<svg width="297" height="247" viewBox="0 0 297 247" fill="none" xmlns="http://www.w3.org/2000/svg">
<path d="M0.0155984 0.10054C0.0930524 0.368134 0.273779 1.48717 0.402869 2.58186C0.531959 3.7009 0.712685 4.72263 0.815957 4.8929C0.919229 5.03886 1.0225 5.67136 1.07414 6.27953C1.09996 6.8877 1.25486 8.15268 1.40977 9.10143C1.53886 10.0258 1.66795 11.4854 1.69377 12.3126C1.69377 13.1397 1.82286 13.8938 1.95195 13.9668C2.10686 14.0397 2.21013 14.3317 2.21013 14.5993C2.21013 14.8425 2.36504 15.0615 2.57158 15.0615C3.13958 15.0615 3.96576 18.1023 4.12066 20.9485C4.22394 22.6271 4.19812 23.6002 4.01739 23.6975C3.57849 23.9407 3.73339 27.0546 4.37884 32.0902C6.08283 44.8374 6.26356 50.3596 5.61811 68.0937C5.30829 76.4135 5.15338 78.4083 4.63702 80.7436C4.53375 81.1815 4.66284 81.5221 5.15338 81.9356C5.82465 82.5195 5.82465 82.5925 5.82465 85.9496C5.82465 87.847 5.92793 90.304 6.08283 91.4231C6.28938 93.2232 6.26356 93.5395 5.82465 94.3909C5.1792 95.5829 5.1792 95.6316 6.00538 96.5803C6.65083 97.3101 6.72828 97.6264 7.0381 100.789L7.34792 104.219L7.21883 100.983C7.08974 97.7237 7.24464 97.2372 7.89009 98.7941C8.07082 99.2319 8.43227 100.035 8.69045 100.57C9.25845 101.738 9.12936 103.076 8.329 104.292C8.045 104.754 7.81264 105.289 7.78682 105.508C7.761 105.752 7.55446 106.238 7.34792 106.652C7.11555 107.041 6.77992 107.99 6.59919 108.719C6.08283 110.86 6.08283 110.836 5.82465 110.422C5.41157 109.814 5.54066 111.42 5.95374 112.247C6.21192 112.709 6.28938 112.782 6.18611 112.417C6.00538 111.76 6.70247 109.401 7.39955 108.281C7.65773 107.844 7.89009 107.162 7.89009 106.749C7.89009 106.36 7.99337 106.043 8.14828 106.043C8.45809 106.043 9.69736 103.781 9.69736 103.197C9.69736 102.954 9.54245 102.175 9.3359 101.47C9.15518 100.765 9.10354 100.132 9.20681 100.059C9.51663 99.8888 9.07772 99.1346 7.91591 97.7967L6.98646 96.7263L6.90901 93.9044L6.80574 91.0825L7.42537 91.9096C7.73519 92.3718 8.329 92.9556 8.71627 93.2476C9.95554 94.099 10.6268 93.6368 12.0726 90.9852C12.7439 89.7445 13.3119 88.4552 13.3119 88.1633C13.3119 87.847 13.0021 87.2389 12.6406 86.8253C12.0726 86.1928 11.8144 86.0955 11.2723 86.2171C10.1879 86.4847 9.69736 87.0443 9.69736 88.066C9.69736 88.5768 9.82645 89.0634 9.98135 89.1364C10.3944 89.3796 10.5752 89.0634 10.2395 88.6985C9.77481 88.1633 10.3686 86.8253 11.0915 86.8253C11.8403 86.8253 12.6922 87.4091 12.873 88.0417C12.9762 88.4552 12.9504 88.5039 12.6406 88.2606C12.3308 88.0173 12.305 88.0903 12.4341 88.7228C12.5632 89.331 12.3824 89.7932 11.4788 91.1798C10.1879 93.1746 9.49081 93.5152 8.53555 92.6637C7.73519 91.9583 7.27046 90.8392 7.52864 90.304C7.63191 90.0608 7.761 89.5256 7.78682 89.1364C7.83846 88.4309 7.83846 88.4552 7.37373 89.3796C6.65083 90.8392 6.52174 90.0851 6.85737 86.1198C7.14137 82.4952 7.08974 82.1546 6.0312 81.0842C5.56647 80.5977 5.56647 80.3787 5.85047 76.7054C6.00538 74.5647 6.18611 71.8401 6.23774 70.648C6.28938 69.4317 6.52174 66.0989 6.7541 63.2284C7.37373 55.6385 7.11555 47.3917 5.82465 33.6714C5.41157 29.3899 5.28247 24.4516 5.4632 21.4351C5.61811 18.9051 5.66975 18.7105 6.00538 19.2213C6.28938 19.6835 6.34101 19.7079 6.23774 19.3186C6.16029 19.0511 6.18611 18.2483 6.3152 17.5428C6.41847 16.8373 6.41847 16.2048 6.28938 16.1319C6.18611 16.0589 5.90211 15.6453 5.72138 15.1831C5.4632 14.6236 5.10175 14.3073 4.4563 14.1127C3.93994 13.9424 3.42358 13.6992 3.29449 13.5289C2.90722 13.091 2.57158 5.81732 2.95885 5.81732C3.11376 5.81732 3.24285 5.93895 3.24285 6.06059C3.24285 6.20654 3.52685 6.42549 3.8883 6.54712C4.50793 6.76607 4.53375 6.81471 4.37884 8.56624C4.22394 10.2691 4.24975 10.3907 4.81775 10.7556C5.20502 11.0232 5.95374 11.1692 6.85737 11.1692C8.09664 11.1692 8.40646 11.0719 8.94863 10.5367C9.28427 10.1961 9.98135 9.70959 10.4719 9.46632C11.3755 9.02844 12.021 7.81212 12.021 6.57146C12.021 5.96329 11.5563 5.67136 11.169 6.03625C10.7301 6.44981 10.4719 6.35251 10.4719 5.81732C10.4719 5.45242 10.6526 5.33078 11.1948 5.33078C11.9177 5.33078 17.83 7.15529 18.3464 7.52019C18.5013 7.64183 19.3017 7.78778 20.1537 7.83644L21.7027 7.98241L20.1537 7.69048C18.0882 7.27693 18.7337 7.10664 22.5547 7.05798C25.9885 7.00932 26.6856 7.3499 23.8198 7.66615C22.2707 7.83644 22.2449 7.86076 23.1227 8.05537C23.6133 8.15268 25.9369 8.25 28.2863 8.25C32.3914 8.22566 37.839 8.44461 48.8891 9.00412C51.7807 9.15009 54.1818 9.22307 54.2334 9.17441C54.3109 9.12576 51.6516 8.80951 48.3469 8.51759C38.6652 7.64183 37.8906 7.52019 42.3572 7.66615C46.4364 7.78778 51.2127 8.20134 56.8153 8.90681C59.7843 9.29604 60.0425 9.36902 59.0098 9.49066C57.8996 9.63661 57.9254 9.66095 59.3971 9.66095C60.817 9.66095 62.2112 9.70959 69.0788 10.0988C70.4213 10.1718 71.4541 10.1718 71.3766 10.0988C71.2992 10.0258 69.2854 9.85556 66.8585 9.70959C64.4574 9.56363 60.3523 9.12576 57.7189 8.73653C51.2902 7.76346 45.8168 7.27693 38.9492 7.10664C35.7994 7.03366 33.2692 6.8877 33.3208 6.79039C33.5274 6.47414 42.099 6.54712 47.1335 6.91202C49.896 7.13097 54.9564 7.66615 58.3643 8.12836C64.2767 8.93114 69.6984 9.41768 73.597 9.51498L75.4042 9.56363L73.4679 9.70959C71.893 9.85556 72.2544 9.87988 75.4042 9.90421C82.2202 9.92854 83.3562 9.95287 83.1754 10.1232C83.098 10.2205 82.1685 10.3664 81.1358 10.4637C79.8449 10.561 80.5937 10.6097 83.6144 10.5854C87.642 10.561 88.0034 10.5854 88.3391 11.0232C88.5714 11.3152 88.7005 11.3881 88.7005 11.1692C88.7005 10.9259 89.062 10.8773 90.327 10.9989C91.747 11.1205 91.9794 11.0719 92.2634 10.6827C92.5216 10.2691 92.7798 10.2205 94.303 10.3664C95.8779 10.4881 96.1619 10.6097 97.1688 11.4611C100.448 14.283 103.778 14.2587 107.754 11.4125C109.329 10.2691 109.82 10.1232 108.606 11.1449C107.573 12.0206 107.987 12.3855 109.045 11.5341C109.458 11.1935 109.949 10.9259 110.104 10.9259C110.259 10.9259 110.362 10.8043 110.31 10.6583C110.284 10.5124 110.517 10.2934 110.852 10.1718C111.265 10.0258 111.42 10.0502 111.42 10.2691C111.42 10.5124 113.46 10.561 121.438 10.4881C128.718 10.4394 131.326 10.4881 131.042 10.6827C130.758 10.8773 131.997 10.9016 135.56 10.78C138.271 10.6827 142.376 10.5854 144.7 10.5854C147.049 10.561 148.598 10.5124 148.185 10.4151C147.411 10.2934 149.734 10.1232 157.764 9.70959C160.32 9.58797 164.167 9.32037 166.284 9.15009C168.427 8.95547 170.518 8.80951 170.931 8.80951C172.609 8.80951 185.596 7.98241 189.004 7.64183C195.716 6.96068 197.962 6.79039 199.434 6.81471C200.544 6.83905 200.183 6.91202 197.833 7.17961C196.155 7.3499 193.935 7.66615 192.928 7.88509C191.895 8.10403 190.191 8.42029 189.133 8.59056C188.048 8.78519 186.422 9.19873 185.518 9.49066C184.021 10.0015 183.349 10.0745 179.322 10.0988C174.855 10.1232 174.778 10.1232 171.86 10.9989C170.26 11.5098 168.84 11.9477 168.736 12.0206C168.633 12.0693 167.471 12.1909 166.129 12.2639C162.204 12.5072 157.506 13.0424 153.762 13.7235C147.746 14.7939 143.357 15.548 142.144 15.694C140.44 15.9129 133.056 17.8591 130.655 18.7105C129.519 19.124 127.841 19.8538 126.937 20.3161C125.517 21.0459 125.233 21.1188 124.923 20.8269C124.613 20.535 124.665 20.4377 125.336 20.1701C125.775 20.0241 126.266 19.7322 126.421 19.5376C126.576 19.343 126.989 19.197 127.324 19.197C127.686 19.197 128.744 18.8321 129.725 18.3699C130.681 17.9077 132.23 17.3482 133.133 17.1292C134.037 16.9103 135.018 16.5211 135.302 16.3021C136.102 15.621 136.283 15.5723 138.426 15.2804C139.562 15.1345 141.627 14.7696 143.047 14.4776C144.467 14.1614 146.326 13.8451 147.178 13.7478C150.122 13.4559 152.6 13.018 153.116 12.7018C153.426 12.5072 154.459 12.3855 156.008 12.3855C158.332 12.3855 161.972 11.972 165.38 11.2908C167.032 10.9746 166.981 10.9746 162.798 10.9989C160.449 11.0232 156.628 10.9503 154.304 10.8286C151.309 10.6583 150.122 10.6827 150.225 10.853C150.354 11.0476 149.502 11.1692 147.695 11.2908C146.197 11.3881 144.984 11.5584 144.984 11.6801C144.984 11.8017 144.597 11.899 144.158 11.899C143.693 11.899 142.609 12.0693 141.757 12.2639C140.905 12.4585 139.82 12.6045 139.33 12.6288C138.839 12.6288 137.367 12.9451 136.051 13.3586C133.701 14.0641 129.829 14.8182 128.538 14.8182C128.202 14.8182 127.634 14.6479 127.298 14.429C126.756 14.0884 126.524 14.0884 125.878 14.3317C125.465 14.502 124.949 14.8912 124.691 15.2318C124.304 15.7913 124.149 15.8399 123.038 15.7183C121.515 15.548 120.069 14.8669 119.062 13.8695C118.34 13.164 118.34 13.1153 118.753 12.5072C119.217 11.8503 119.346 11.826 123.297 11.8747C124.742 11.899 125.362 11.826 125.104 11.6801C124.897 11.5584 123.787 11.4368 122.651 11.4125C119.579 11.3638 114.364 11.4368 114.648 11.5341C114.803 11.5827 115.577 11.8017 116.403 12.0206C117.513 12.3126 117.875 12.5072 117.875 12.8477C117.875 13.31 118.753 14.2344 120.095 15.2318C120.56 15.548 121.696 15.9616 122.677 16.1562L124.458 16.4967L125.388 15.6453C126.317 14.7939 126.343 14.7696 127.118 15.1588C128.254 15.7183 128.899 15.6453 133.495 14.5506C135.767 13.9911 138.323 13.4559 139.175 13.3343C140.027 13.237 142.118 12.8477 143.822 12.5072C145.862 12.0936 147.979 11.8503 150.018 11.7774C151.722 11.7287 152.781 11.753 152.342 11.826C151.929 11.8747 149.011 12.5072 145.887 13.237C142.763 13.9424 139.769 14.5749 139.226 14.6479C138.349 14.7696 138.271 14.7452 138.555 14.4046C138.865 14.0641 138.813 14.0397 138.013 14.21C137.522 14.3073 135.999 14.7939 134.631 15.3047C132.178 16.2292 129.88 16.7643 128.305 16.7643C127.686 16.7643 127.428 16.6427 127.298 16.2535C127.092 15.694 126.24 15.7183 126.317 16.2778C126.343 16.4724 126.085 16.8373 125.749 17.0806C125.104 17.5185 124.484 17.4942 120.715 16.959C120.637 16.9346 120.379 17.0076 120.121 17.1292C119.527 17.3725 116.661 16.9103 113.873 16.1319C111.988 15.5967 110.129 15.5237 110.129 16.0102C110.129 16.1075 109.613 16.7157 108.942 17.3725C107.909 18.4672 106.644 20.3647 106.851 20.5836C106.902 20.608 107.444 20.1944 108.064 19.6592C108.787 19.0267 109.226 18.7835 109.355 18.9538C109.484 19.1484 109.587 19.124 109.691 18.8564C109.949 18.224 110.646 18.3942 110.646 19.0754C110.646 19.5619 110.517 19.6835 109.949 19.7079C109.536 19.7079 108.993 19.8052 108.709 19.9268C108.219 20.1214 108.219 20.1458 108.787 20.1458C109.097 20.1701 109.355 20.2431 109.329 20.3404C109.329 20.6323 105.56 23.0893 105.147 23.0893C104.94 23.0893 104.579 23.3569 104.346 23.6731C104.14 24.0137 103.701 24.33 103.417 24.4273C102.229 24.7922 96.7557 23.1623 95.9037 22.2135C95.5681 21.8243 95.0517 21.7513 95.3099 22.1405C95.3874 22.2865 95.1292 22.2379 94.7419 22.0432C93.1154 21.2891 88.3907 20.7783 86.3769 21.1432C84.2082 21.5324 80.5162 23.3569 79.0446 24.7678C78.3475 25.4247 77.6504 25.9112 77.4697 25.8625C77.3148 25.7896 77.0049 25.9112 76.8242 26.1301C76.5919 26.3977 76.2304 26.4707 75.5591 26.3734C74.0617 26.1545 72.5901 25.7166 72.3061 25.4003C71.8413 24.8895 70.9377 24.5489 70.1115 24.5489C69.2854 24.5489 67.7879 23.8921 67.7879 23.5272C67.7879 23.4299 68.1752 23.2596 68.6141 23.138C69.5435 22.919 69.9566 22.1162 69.1563 22.1162C68.8981 22.1162 67.6588 22.4325 66.4196 22.846C63.7603 23.6975 62.0047 23.7948 61.2301 23.1136C60.9203 22.8704 60.404 22.5784 60.0425 22.4811C59.4229 22.3352 59.4229 22.3352 60.1716 22.9433L60.9461 23.5758L59.9134 23.1866C58.1836 22.5784 57.7963 22.3352 57.8222 21.9216C57.848 21.654 57.5898 21.4837 57.0218 21.3864C56.5829 21.3134 55.8858 20.9972 55.4727 20.6566C53.9494 19.3916 53.872 19.3673 53.4589 19.6835C53.2524 19.8538 53.1491 20.0728 53.2265 20.1944C53.304 20.3161 53.2007 20.4134 53.02 20.4134C52.5811 20.4134 51.0062 21.8973 51.0578 22.2379C51.0836 22.3595 50.3866 23.0163 49.5346 23.6975C48.6567 24.3543 47.9338 25.0598 47.9338 25.2057C47.908 25.376 47.8048 25.522 47.6757 25.522C47.3658 25.522 45.636 27.0546 45.6102 27.3465C45.5844 27.7357 44.5517 28.9277 44.3193 28.8547C44.1902 28.8304 43.6222 29.244 43.0542 29.7791C42.4862 30.3143 41.9182 30.8495 41.7633 30.9955C40.0852 32.4794 38.0197 34.8391 35.5154 38.1719C33.8372 40.3856 30.9972 43.9373 29.1641 46.1024C27.3311 48.2431 24.5685 51.5029 22.9936 53.3517C21.4446 55.1762 19.9213 57.0494 19.6373 57.463C19.3533 57.9008 18.114 59.628 16.8748 61.3309C15.6613 63.0094 14.2155 65.1745 13.6992 66.1719C12.5632 68.3127 12.6922 68.1424 12.2017 67.9721C11.5563 67.7288 11.5304 66.9747 12.1243 66.1233C12.4082 65.7097 13.0279 64.834 13.441 64.2015C15.1191 61.6958 18.6562 57.1954 22.2191 53.0842C25.1882 49.6541 26.2209 48.2675 26.2209 47.6836C26.2209 47.2701 27.1245 46.2727 29.3965 44.1562C31.2554 42.4534 33.3208 40.2396 34.3019 38.9017C35.2572 37.6367 37.0903 35.3256 38.3812 33.7931C39.6721 32.2605 41.4019 30.1684 42.2281 29.171C43.0542 28.1736 45.352 25.7896 47.34 23.9164C49.3022 22.0189 51.5484 19.7809 52.2971 18.9538C53.6396 17.5185 53.7429 17.4698 54.6207 17.6158C55.1113 17.7131 55.6793 17.8834 55.86 18.0293C56.2473 18.3456 56.2731 17.932 55.86 17.5428C55.4469 17.1536 55.9633 17.1536 56.4022 17.5428C56.6862 17.8104 56.6862 17.7617 56.4538 17.2995C56.2989 17.0076 56.0665 16.7643 55.9633 16.74C55.86 16.74 55.2145 16.6914 54.5174 16.6184L53.2265 16.5454L50.3866 19.1727C47.8822 21.4837 47.4691 21.7757 47.0302 21.5324C46.6429 21.3134 46.488 21.3864 45.9975 21.9946C45.7135 22.3838 45.0422 23.1136 44.5 23.5758C43.9837 24.038 42.667 25.8382 41.5826 27.5897C40.4724 29.3169 38.7943 31.7253 37.8648 32.9416C36.9095 34.1336 34.8957 36.7609 33.3725 38.78C31.8492 40.7748 29.4998 43.5481 28.1831 44.9347C26.8405 46.3213 25.0849 48.3891 24.2587 49.5568C21.6511 53.2788 19.2242 56.198 17.0813 58.3631C14.3962 61.0147 12.3566 63.3257 12.1759 63.9095C12.0468 64.2501 11.8403 64.3231 11.2723 64.2501C10.5752 64.1528 10.5494 64.1042 10.8075 63.4717C11.0399 62.8878 11.1432 62.8392 11.5563 63.0824C11.9693 63.3014 12.1759 63.1797 13.0537 62.2553C13.6217 61.6472 14.9384 60.0659 15.997 58.728C17.0555 57.39 18.1657 56.1736 18.4238 56.0034C18.7078 55.8574 19.3017 55.1519 19.7406 54.4221C20.4893 53.2544 20.4893 53.2058 19.8955 53.8626C18.4238 55.4438 17.9849 55.8331 16.9522 56.6358C16.3326 57.0737 15.2224 58.2414 14.4737 59.1902C13.725 60.1389 12.6664 61.3066 12.1243 61.7688L11.169 62.6202L11.8919 61.4039C12.7697 59.92 15.0675 57.0251 16.7715 55.2736C17.4428 54.5681 17.9333 53.9842 17.8559 53.9842C17.6235 53.9842 14.861 56.5629 13.4926 58.0468C12.8472 58.728 12.2792 59.2388 12.2017 59.1658C12.1243 59.0928 11.6853 59.5307 11.2464 60.1146C10.2654 61.3552 9.80063 61.6715 9.31009 61.2823C9.10354 61.1363 8.897 61.112 8.81954 61.2336C8.613 61.5742 9.36172 62.085 9.82645 61.9147C10.317 61.7445 10.317 61.7688 9.80063 62.6932C9.07772 64.1042 9.3359 65.88 10.3686 66.4152C11.2206 66.8288 11.7628 67.8505 11.8144 69.0182C11.8403 69.5047 11.9435 69.9912 12.0726 70.0642C12.1759 70.1372 12.305 71.5238 12.3566 73.1537C12.3824 74.7836 12.4857 76.1216 12.589 76.1216C12.7697 76.1216 13.6475 77.5568 15.5839 80.9382C17.2104 83.8575 19.1984 89.112 17.7009 86.582L17.1846 85.7306L17.3395 86.4604C17.4428 86.8496 17.7268 87.7254 18.0108 88.4066C18.7853 90.304 18.8369 91.9826 18.1915 94.4882C17.1846 98.4778 16.978 97.4074 17.5977 91.2041C17.7268 89.9148 17.6493 89.3553 17.1846 88.1633C16.8748 87.3605 16.3068 85.7793 15.9195 84.6359C15.0675 82.1789 14.3188 80.7193 13.2086 79.4057C12.1501 78.165 11.9435 77.7028 11.8919 76.4865C11.7628 73.324 11.0657 69.2371 10.5235 68.41C10.2912 68.0694 10.2137 67.5829 10.317 67.1936C10.4719 66.5368 10.4719 66.5368 10.0846 66.9747C9.54245 67.6315 9.59408 68.2154 10.3428 69.6507C10.9108 70.7697 10.9883 71.2076 11.0141 74.1754C11.0399 77.8244 11.0657 77.9217 12.9246 80.1355C14.6028 82.1789 14.9384 82.8601 16.0228 86.582C17.0555 90.2067 17.1071 91.3744 16.2293 93.1746C15.9453 93.7584 15.5064 94.8531 15.274 95.6073C14.8351 96.8966 14.8351 97.0912 15.2224 98.6968C15.4806 99.8401 15.6355 101.567 15.6355 103.732C15.6355 107.089 16.1519 110.447 17.0555 112.831C17.4169 113.804 17.4169 113.925 16.9264 114.485C16.1002 115.482 16.2293 117.015 17.2104 118.085C17.9591 118.888 18.0108 119.034 17.83 120.104C17.7009 120.737 17.5977 124.848 17.546 129.275C17.4944 133.679 17.3395 137.96 17.2104 138.763C17.0555 139.566 16.7199 143.02 16.41 146.426C16.1002 149.832 15.7388 153.456 15.6097 154.454C15.4548 155.451 15.274 157.908 15.1966 159.878C15.1191 161.873 14.9642 163.357 14.8351 163.187C14.6028 162.822 14.7835 157.811 15.1191 155.646C15.2482 154.746 15.4806 152.021 15.6355 149.564C15.7646 147.107 16.0744 143.799 16.3068 142.217C16.5391 140.49 16.6682 138.447 16.5908 137.109C16.4617 134.238 16.9522 122.829 17.2362 122.829C17.6493 122.829 17.4686 120.883 17.0555 120.712C16.7457 120.615 16.6682 120.299 16.7199 119.447C16.7715 118.645 16.694 118.353 16.4617 118.401C16.2551 118.426 16.1777 118.28 16.281 117.891C16.3842 117.526 16.2551 117.112 15.8937 116.674L15.3257 116.017L15.997 115.263C16.3584 114.85 16.6682 114.363 16.6682 114.169C16.6682 113.974 16.2551 112.831 15.7646 111.639C15.274 110.447 14.861 109.328 14.861 109.157C14.861 108.987 14.7319 108.671 14.6028 108.476C14.3188 108.087 14.3962 108.792 15.0159 112.222C15.3515 114.144 15.3515 114.169 14.7061 114.85C13.9315 115.75 13.9315 116.042 14.7319 116.942L15.3515 117.647V128.01C15.3515 133.727 15.4031 138.495 15.5064 138.617C15.5839 138.739 15.4548 140.32 15.2482 142.096C15.0159 143.871 14.7835 147.35 14.7319 149.832C14.6802 152.41 14.4479 155.427 14.1897 156.886C13.9573 158.297 13.6733 161.07 13.5959 163.09C13.4668 166.179 13.3635 166.86 12.9246 167.444L12.4082 168.174L11.9435 166.349C11.453 164.501 11.0657 159.051 10.9624 153.237C10.9108 150.756 10.8592 150.269 10.7301 151.291L10.5494 152.629L10.4719 150.683C10.4461 149.613 10.3428 148.956 10.2912 149.223C10.1621 149.637 10.3686 155.013 10.885 165.522C11.0399 168.831 11.3239 169.585 12.2275 169.269C12.5373 169.147 12.7955 168.904 12.7955 168.709C12.7955 168.514 12.8988 168.296 13.0279 168.198C13.1828 168.125 13.2344 168.831 13.157 169.95C13.0021 172.48 13.2602 171.872 13.6992 168.636L14.0606 166.009L13.9573 168.077C13.9057 169.22 13.6217 171.361 13.3119 172.845L12.7439 175.545L13.4152 176.737L14.1122 177.929L13.9315 176.494C13.8541 175.691 13.725 174.912 13.6475 174.718C13.5701 174.547 13.6217 174.402 13.7766 174.402C13.9057 174.402 14.1122 174.864 14.1897 175.423C14.3962 176.688 14.1381 184.351 13.8541 185.713C13.725 186.297 13.6733 185.227 13.725 182.916C13.8024 179.364 13.7766 179.218 13.4668 180.362C13.2602 181.018 13.0795 182.454 13.0795 183.524C13.0537 184.594 12.873 186.346 12.6664 187.416C12.4341 188.487 12.1501 190.19 11.9952 191.187C11.8403 192.184 11.6079 193.157 11.5046 193.328C11.4013 193.522 11.1948 192.428 11.0399 190.895C10.6526 187.416 10.6526 187.465 11.0915 187.611C11.2981 187.684 11.5821 187.611 11.737 187.441C11.8919 187.27 12.3308 184.984 12.6922 182.332L13.3893 177.54L12.6664 176.323C12.0726 175.277 11.9952 174.912 12.1501 174.061C12.4599 172.431 12.4341 171.409 12.0984 171.312C11.8403 171.215 11.7628 171.872 11.7628 174.061C11.7628 176.348 11.8403 177.004 12.1759 177.345C12.5632 177.759 12.5632 177.953 12.1759 179.753C11.9435 180.824 11.7628 182.016 11.737 182.381C11.7112 182.746 11.4788 181.602 11.2206 179.875C10.885 177.734 10.7301 175.472 10.7301 172.893C10.7301 170.631 10.5752 168.101 10.3428 166.69C10.1363 165.376 9.92972 163.746 9.87808 163.09C9.82645 162.408 9.82645 164.598 9.87808 167.955C9.92972 171.288 10.1104 175.958 10.2912 178.294C10.6526 183.183 10.6526 183.84 10.3944 190.968C10.2654 195.347 10.2912 196.296 10.601 196.685C10.8075 196.928 10.9883 197.755 11.0141 198.485L11.0657 199.823L11.3239 198.242C11.453 197.366 11.5563 196.15 11.5563 195.541C11.5563 194.739 11.7112 194.228 12.1243 193.741L12.6922 193.084L12.589 194.739C12.5373 195.663 12.3566 197.196 12.1501 198.144C11.9435 199.093 11.7112 201.818 11.6079 204.226C11.5046 206.61 11.3239 208.848 11.2206 209.189C11.0399 209.773 11.0399 209.773 11.0141 209.043C10.9883 208.629 10.7559 207.267 10.4719 206.002C9.67154 202.377 9.43918 199.701 9.43918 194.106C9.43918 191.236 9.25845 184.667 9.02609 179.51C8.81954 174.353 8.58718 161.825 8.50973 151.656C8.38064 134.749 8.38064 133.07 8.79373 132.195C9.80063 129.908 11.7628 123.51 11.7628 122.488C11.7628 121.491 11.1173 120.542 10.0846 120.031C9.28427 119.618 9.12936 119.593 8.92282 119.91C8.71627 120.226 8.66464 120.226 8.56136 119.91C8.27736 119.131 7.63191 116.212 7.63191 115.652C7.63191 115.361 7.34792 114.606 6.98646 114.047C6.23774 112.806 6.18611 112.879 6.72828 114.29C6.93483 114.85 7.08974 115.969 7.08974 116.82C7.08974 117.647 7.19301 118.645 7.34792 119.01C7.50282 119.399 7.63191 120.299 7.63191 121.029C7.63191 121.929 7.73519 122.318 7.91591 122.196C8.07082 122.123 8.14828 121.783 8.07082 121.467C8.01919 121.175 8.07082 120.761 8.17409 120.591C8.53555 120.08 9.77481 120.858 9.95554 121.734C10.0588 122.148 10.2654 122.707 10.4203 122.999C10.8592 123.753 10.4203 126.308 9.41336 129.032C8.97445 130.224 8.53555 131.319 8.43227 131.465C7.99337 132.049 7.58028 133.776 7.761 134.189C7.89009 134.433 8.01919 142.777 8.045 152.751C8.09664 162.725 8.22573 172.723 8.329 175.01C8.45809 177.272 8.43227 180.41 8.329 181.943C8.07082 185.251 8.50973 198.412 9.05191 204.567C9.25845 206.902 9.54245 210.673 9.69736 212.959C9.85226 215.222 10.0846 217.8 10.2395 218.676C10.7301 221.303 10.9366 229.866 10.6526 235.827C10.4719 239.597 10.4719 242.054 10.6526 243.368L10.9108 245.314L10.9624 242.516C10.9883 239.913 11.6337 232.323 11.8403 232.129C11.8919 232.08 12.021 234.926 12.1243 238.429C12.2275 241.957 12.4082 245.484 12.5373 246.287C12.6664 247.163 12.6922 244.56 12.6406 239.84C12.5632 235.486 12.6406 229.745 12.7955 227.069C12.9504 224.393 13.1312 221.157 13.2086 219.892C13.9315 206.026 14.5253 200.066 15.6613 194.933C15.9453 193.62 16.281 191.357 16.41 189.898C16.5391 188.195 16.7457 187.076 17.0297 186.687C17.3395 186.249 17.4428 185.495 17.4428 183.816C17.4428 182.332 17.5719 181.213 17.83 180.653C18.0366 180.167 18.1915 179.243 18.1915 178.61C18.1399 177.491 18.1399 177.491 17.9591 178.975C17.6235 181.87 17.3911 180.848 17.5202 176.931C17.6235 174.256 17.7784 172.772 18.0366 172.163C18.5013 171.117 19.25 168.247 20.0246 164.549C20.5151 162.311 20.5667 161.435 20.4118 159.246C20.3086 157.494 20.3344 156.643 20.5151 156.643C20.7991 156.643 21.5736 158.832 21.5736 159.611C21.5736 159.854 21.6769 160.049 21.806 160.049C22.2191 160.049 22.2966 155.889 21.9093 154.332C21.6769 153.408 21.522 151.291 21.4962 148.494C21.4446 144.139 21.4446 144.09 22.09 143.336C22.4515 142.898 22.7871 142.558 22.8645 142.558C22.942 142.534 23.226 142.898 23.51 143.312L24.0005 144.115L24.2071 143.142C24.4653 141.779 24.2587 140.466 23.4584 138.69C22.8129 137.182 22.7871 137.084 23.0969 135.041C23.6391 131.197 23.6391 131.295 24.1038 131.465C24.3362 131.562 25.1365 131.708 25.8853 131.805L27.2278 132L26.5049 131.124C26.1176 130.638 25.4464 129.3 24.9816 128.156C24.1554 126.064 24.1554 126.064 24.5685 124.751C25.0591 123.194 25.6271 122.099 25.9627 122.099C26.066 122.099 26.5565 122.999 26.9954 124.094C27.4602 125.213 27.8474 126.137 27.8474 126.162C27.8732 126.186 27.8991 124.921 27.8991 123.364C27.8991 120.907 27.9765 120.348 28.4929 119.301C28.8285 118.62 29.1641 117.453 29.2416 116.674C29.3191 115.896 29.4998 115.215 29.6031 115.142C29.7321 115.069 29.8354 115.142 29.8354 115.288C29.8354 115.434 30.4292 116.358 31.1263 117.355C31.8234 118.353 32.4172 119.301 32.4172 119.472C32.4172 119.642 32.7012 120.323 33.0627 121.004L33.7081 122.221L33.5016 119.545C33.295 116.674 33.3467 113.828 33.579 112.879L33.7339 112.271L34.431 113.098C34.8183 113.56 35.1539 114.266 35.2056 114.655C35.2314 115.044 35.4121 115.555 35.6186 115.75C36.135 116.309 36.3157 117.866 36.0834 119.472C35.8252 121.126 36.0317 121.102 36.7546 119.374C38.2263 115.75 38.5361 113.536 37.8906 111.322C37.7357 110.836 37.7099 110.422 37.839 110.422C37.9423 110.422 38.8975 110.787 39.9819 111.249C41.0404 111.712 42.4088 112.222 42.9768 112.393C44.3193 112.758 44.371 112.855 44.8873 114.825C45.7651 118.134 48.4502 123.461 50.2058 125.31C50.8771 126.016 50.9029 126.016 51.2644 125.602C51.6258 125.189 51.6258 125.164 51.2127 125.456C50.8255 125.748 50.6447 125.602 49.5604 124.045C47.1077 120.469 45.1197 115.628 44.939 112.855C44.8873 111.979 44.655 110.933 44.4226 110.495C44.1902 110.082 43.8546 108.379 43.6481 106.725C43.4673 105.07 43.1059 102.93 42.8735 101.981C42.6412 100.983 42.5379 100.083 42.667 99.9131C42.7702 99.7428 42.8735 99.3293 42.8735 99.013C42.8735 98.1859 43.4157 98.1129 43.6481 98.9157C43.7513 99.2806 43.9321 101.543 44.0353 103.927C44.1644 106.335 44.2935 108.306 44.3451 108.354C44.5517 108.573 44.5259 98.94 44.2935 98.4048C44.1128 97.9183 44.1386 97.7723 44.5517 97.6507C45.1455 97.4804 46.2815 97.7237 47.0819 98.1859C49.3022 99.4995 45.5586 96.1425 43.0284 94.5369C42.1764 94.0017 41.7633 93.6125 41.9957 93.5638C42.8219 93.3449 44.784 92.6637 46.3589 92.0312C47.2884 91.6663 48.5277 91.3501 49.1473 91.3501C50.1284 91.3258 50.18 91.3014 49.7927 90.9852C48.76 90.2554 46.6946 89.5256 45.1455 89.3553C44.2677 89.2823 43.519 89.1364 43.5448 89.039C43.5706 88.7228 45.3779 87.5065 46.9528 86.728L48.6051 85.9009L47.2884 85.7549C46.5655 85.682 45.3262 85.609 44.5517 85.609H43.1317L45.352 84.4413C46.5913 83.8088 48.192 82.7628 48.9666 82.1303L50.3349 80.9382L48.8117 81.1085C47.9597 81.2058 46.4622 81.5464 45.4553 81.8627C44.4742 82.1546 42.8993 82.4708 41.9699 82.5681L40.2917 82.7141L41.5826 81.5951C43.9062 79.6003 46.4622 77.8731 47.5208 77.6298C48.2953 77.4595 47.6498 77.4352 45.0164 77.5325C43.0542 77.6055 41.4535 77.5812 41.4535 77.4839C41.4535 77.3866 41.9441 77.119 42.5637 76.8757L43.6481 76.4378L42.2797 76.2432C41.1179 76.0972 38.4586 75.0025 36.5997 73.9078C36.0834 73.5916 36.0834 73.5672 37.271 72.7645C38.8717 71.6698 40.2659 71.0129 40.9888 70.9886C41.531 70.9643 41.5052 70.94 40.8081 70.648C40.395 70.4778 39.1557 70.3318 38.0455 70.3318C35.9026 70.3075 33.0885 69.675 33.3467 69.2614C33.4241 69.1398 34.4052 68.6289 35.4896 68.1181C38.3812 66.8044 38.3295 66.8288 37.2452 66.4882C36.7288 66.3179 35.4896 66.0989 34.4827 66.0016C33.5016 65.9287 32.6754 65.7584 32.6754 65.6611C32.6754 65.5394 33.0885 65.2232 33.579 64.9313C34.0696 64.6637 34.999 63.8609 35.6703 63.1554C36.3157 62.4499 37.1161 61.7445 37.4259 61.5985C37.8906 61.3309 37.8132 61.3066 36.8063 61.4282C36.1608 61.5012 35.283 61.5985 34.8183 61.6715C34.3019 61.7445 33.9663 61.6715 33.8888 61.4769C33.7856 61.2579 33.7339 61.2823 33.7339 61.5499C33.7081 61.7445 33.295 62.1094 32.8045 62.3283C31.591 62.8635 31.4619 62.8392 32.0816 62.1823C32.3656 61.8904 32.8561 61.2093 33.1918 60.6741C33.5274 60.1389 34.147 59.3361 34.5859 58.8982C35.3088 58.1684 35.3347 58.1198 34.7925 58.1198C34.5085 58.1198 33.9405 58.2414 33.579 58.4117C33.011 58.655 32.8561 58.6306 32.6496 58.3387C32.2623 57.7305 32.3914 56.9521 33.011 56.4899C33.863 55.8574 34.2245 55.2492 33.4241 55.7601C33.0885 55.979 32.6238 56.1736 32.3914 56.1736C31.7718 56.1736 31.3845 54.3248 31.3587 51.2353C31.3587 49.6297 31.2812 48.9243 31.1263 49.2405C30.9972 49.5081 30.894 50.2379 30.894 50.8704L30.8681 52.0138L29.3965 52.4273C28.5703 52.6219 27.6925 52.8652 27.4085 52.9382C26.9954 53.0598 26.9438 52.9625 27.0987 52.3787C27.202 51.9894 27.4343 51.5029 27.6151 51.3083C28.3896 50.4569 28.3638 50.2866 27.5634 50.6758C27.1245 50.8947 26.5565 51.065 26.2983 51.065C25.9627 51.065 26.066 50.8704 26.7631 50.1406C27.2794 49.6541 28.5703 48.1945 29.6289 46.9295C30.7132 45.6645 31.9009 44.3509 32.2365 44.0346L32.9078 43.4751L32.3914 45.0077C31.7718 46.8808 31.875 47.4647 32.5463 45.8105C33.0627 44.4725 34.6892 41.3343 34.8441 41.3343C34.8957 41.3343 34.9474 41.8452 34.9216 42.4534C34.9216 43.2075 35.1281 43.9859 35.5928 44.8374C35.9543 45.5185 36.419 46.6132 36.5997 47.2944L36.9095 48.5107L37.0903 47.5133C37.4775 45.4212 37.8906 44.4968 39.0008 43.1588C39.6204 42.3804 40.1884 41.6506 40.2401 41.4803C40.2917 41.3343 40.4208 41.2614 40.4983 41.3343C40.679 41.4803 41.7117 51.8921 41.7117 53.595C41.7117 54.9573 42.8735 61.2336 43.1575 61.5012C43.2608 61.5742 43.2608 61.3796 43.1833 61.039C42.7702 59.2631 42.2022 53.8626 41.815 48.1458C41.5826 44.5941 41.2986 41.456 41.1695 41.1397C40.8855 40.4342 40.8855 40.3613 41.1437 40.3613C41.2728 40.3613 41.6343 40.8235 41.9699 41.383C42.3055 41.9668 42.8477 42.7453 43.1833 43.1102C43.6997 43.7184 43.7771 44.0833 43.803 46.151C43.8288 47.4404 43.9321 48.827 44.0353 49.2405C44.1644 49.7027 44.1902 49.3622 44.1128 48.3404C44.0353 47.4647 44.0611 46.224 44.1644 45.5915L44.3451 44.4482L44.8873 45.2023C45.6877 46.2483 45.8426 46.151 45.4295 44.8131C44.8615 43.0129 44.9648 41.7722 45.8942 39.9964C46.8753 38.1232 47.4175 37.9772 48.8891 39.2422L49.8444 40.0694L49.328 40.6532L48.8117 41.2127L49.3797 40.7748C49.7153 40.5072 49.9735 40.4342 50.0767 40.5802C50.18 40.7018 49.9993 40.9451 49.7153 41.0911C49.0182 41.4316 49.044 41.7722 49.7927 41.6506C50.3091 41.5533 50.3866 41.6992 50.6706 42.8426C50.8513 43.5481 50.9546 44.3509 50.8771 44.6185C50.8255 44.886 50.5931 46.078 50.3349 47.2944C49.5604 51.284 48.2695 53.4977 46.7462 53.4977C46.3848 53.4977 46.1266 53.4247 46.204 53.3031C46.2557 53.2058 46.0491 53.0112 45.7135 52.8652C45.1197 52.5976 45.0939 52.5976 45.507 53.1571C46.3848 54.4221 48.1662 54.0086 49.328 52.2814C50.2058 50.9677 51.2386 47.9755 51.4193 46.2727C51.4967 45.4942 51.6 44.4725 51.6258 44.0103C51.6775 43.5481 51.7291 43.0129 51.7549 42.8426C51.8065 42.2588 52.1938 42.575 53.0458 43.913C53.5105 44.6428 53.9494 45.2266 54.0011 45.178C54.0527 45.105 53.9753 44.4238 53.8204 43.5967C53.5364 42.1371 53.8204 40.3126 54.3625 39.9964C54.8014 39.7531 57.6672 42.8183 58.1062 43.9616C59.0872 46.7105 58.0803 52.6706 55.9116 57.0737C54.7498 59.4577 52.3487 62.7905 50.2058 65.0772L48.6309 66.7558L50.464 64.9556C53.8204 61.6472 56.2731 57.7549 57.5898 53.6923C58.3643 51.2353 59.268 47.0511 59.268 45.8105C59.268 44.7158 59.5003 44.8374 62.3145 47.3674C63.4763 48.4377 64.4316 49.2892 64.4316 49.2648C64.4316 49.2648 64.1476 48.5837 63.7861 47.7809C63.089 46.1754 62.9858 44.8374 63.4247 42.648C63.8377 40.5559 63.941 40.4586 64.8963 41.2127C65.6708 41.8209 68.8206 45.3239 68.8206 45.5915C68.8206 45.6402 68.6141 45.6402 68.3817 45.5672C68.1235 45.4942 68.5108 45.7375 69.2337 46.1024C70.5246 46.7349 70.5763 46.8078 70.7312 48.0242C71.0668 50.8461 70.2148 55.9547 68.1752 63.0094C67.6588 64.7853 67.2974 66.2449 67.349 66.2936C67.4781 66.4152 69.7243 59.1902 70.4988 56.1736C71.1959 53.3517 71.6864 49.6784 71.4799 48.4377C71.4024 47.9755 71.4541 47.6593 71.609 47.6593C71.7639 47.6593 72.5642 48.3648 73.3904 49.2405C74.2166 50.1163 74.9653 50.8218 75.0686 50.8218C75.1719 50.8218 74.8879 50.2866 74.4748 49.6297C73.7002 48.4621 73.6744 48.3891 73.9584 46.8078C74.0875 45.9078 74.2682 45.105 74.3457 45.032C74.4231 44.959 74.7071 45.105 74.9911 45.3239C75.2751 45.5672 76.0239 45.9078 76.6693 46.078C78.1409 46.4916 80.7227 48.2188 82.3751 49.873C83.0464 50.5542 83.5369 50.9191 83.4078 50.6758C82.9173 49.4838 82.7365 48.4864 82.6591 46.1267C82.5816 43.1588 82.2976 43.2805 85.2409 45.032C86.8674 45.9807 87.5129 46.9295 86.9191 47.489C86.7642 47.635 86.6351 47.9269 86.6351 48.1215C86.6351 48.4134 86.7125 48.4134 86.9449 48.1945C87.1256 48.0242 87.4096 47.9026 87.5903 47.9026C88.0551 47.9026 88.0034 48.754 87.5387 49.1189C87.2289 49.3622 87.1514 50.0676 87.1772 52.7436C87.2031 55.2249 87.2805 55.7844 87.4354 54.9573C87.5387 54.3491 87.642 52.8895 87.642 51.7218C87.6678 50.5298 87.7969 49.3622 87.9518 49.0946C88.21 48.6324 88.2616 48.6567 88.9329 49.5324C90.2238 51.211 92.6765 53.4734 93.4252 53.6193C94.4837 53.8626 95.2325 53.595 95.7488 52.7922C96.3943 51.7462 96.291 51.5516 95.5165 52.4517C94.4321 53.7896 93.451 53.5464 90.9467 51.3326C89.5783 50.1406 88.5456 48.681 88.3391 47.6593L88.1583 46.8078L88.778 47.416C89.1136 47.7566 89.8623 48.4621 90.4561 48.9729L91.5147 49.9217L90.8176 48.3648C90.3787 47.343 90.1205 46.1997 90.043 45.032C89.9398 43.3048 90.327 41.237 90.7918 40.9451C90.9209 40.8721 91.6438 41.1397 92.3925 41.5289C93.1154 41.9182 94.019 42.3074 94.3805 42.3804C94.7419 42.4777 95.2583 42.6966 95.5423 42.9156L96.0586 43.3291L95.5423 43.1832C95.155 43.0615 95.1808 43.1588 95.723 43.5237C96.3943 44.0103 96.7815 45.3483 97.0397 48.2675C97.0914 48.8756 97.143 48.6324 97.1688 47.635C97.1946 46.5403 97.3495 45.9078 97.6077 45.7132C97.9434 45.4456 97.995 45.6645 97.995 47.4647C97.995 48.5837 97.7626 51.2596 97.4786 53.4004C97.0655 56.4412 96.9881 58.5577 97.0139 63.35L97.0397 69.4317L97.2463 62.6202C97.3495 58.8009 97.6077 54.6897 97.8401 53.2788C98.2015 50.9191 98.5114 49.9217 98.5114 50.9677C98.5372 51.211 98.7179 51.6975 98.9244 52.0381C99.1826 52.4517 99.2601 52.476 99.131 52.1597C98.6921 50.9434 98.5114 49.1919 98.563 46.9052L98.6404 44.4238L99.8797 45.3239C100.577 45.8348 101.196 46.1754 101.274 46.1267C101.326 46.0537 100.964 45.0807 100.474 43.9373C99.5183 41.7722 99.1052 39.8261 99.3892 38.8044C99.6215 37.9529 100.06 38.0016 101.119 39.0476C102.384 40.3126 105.301 42.5264 107.651 44.0103L109.665 45.3239L109.51 47.8296C108.968 55.1276 106.592 60.4065 104.424 59.1172C104.114 58.9469 103.83 58.8739 103.778 58.9226C103.546 59.1415 105.301 59.7497 105.792 59.628C106.463 59.4577 107.677 57.8765 108.296 56.3196C108.787 55.0789 109.949 49.8487 110.259 47.4647C110.439 46.2483 110.465 46.1997 110.878 46.5403C111.575 47.1484 111.679 47.0025 111.291 45.8834C110.801 44.4238 110.052 40.3613 110.233 40.191C110.31 40.118 111.007 40.5802 111.756 41.237C112.531 41.8939 113.641 42.7939 114.235 43.2561C114.828 43.694 115.629 44.4968 116.016 45.0563C117.049 46.5159 117.023 45.6888 115.964 42.7453C114.828 39.5342 114.157 37.2231 114.338 37.0528C114.596 36.7852 115.551 37.4664 115.68 38.0016C115.732 38.2935 115.913 39.4855 116.042 40.6532C116.352 43.1345 117.023 44.5698 118.159 45.1293C118.856 45.4699 118.933 45.5915 118.804 46.2727C118.494 47.8539 118.159 51.7705 118.03 55.0789L117.901 58.4847L118.262 54.4221C118.675 49.6054 119.114 46.7835 119.501 46.1267C119.682 45.8834 120.121 45.3483 120.482 44.959C122.161 43.2561 123.452 38.78 123.193 35.5202L123.064 33.4768L123.658 34.012C124.407 34.6688 124.691 34.6688 124.458 33.9633C123.89 32.2848 123.4 28.4412 123.736 28.4412C123.89 28.4412 123.942 28.1736 123.865 27.833C123.632 26.6653 125.233 25.7409 126.085 26.5437C126.266 26.714 127.195 26.9329 128.15 27.0059C130.242 27.2005 132.333 27.9303 133.701 28.952C134.502 29.5602 134.682 29.6332 134.605 29.2683C134.476 28.6115 131.197 26.1058 129.157 25.1084C127.634 24.3543 127.453 24.184 127.841 23.9894C128.099 23.8434 129.493 23.6975 130.913 23.6245C133.495 23.5272 133.521 23.5272 135.431 24.4273C136.49 24.9381 137.755 25.6193 138.194 25.9599C138.865 26.4221 139.046 26.4707 139.046 26.1788C139.046 25.6923 137.806 24.3056 137.367 24.3056C137.187 24.3056 136.567 23.8921 135.999 23.3812C135.431 22.8704 134.605 22.2865 134.166 22.0919L133.391 21.727L134.14 21.2891C134.553 21.0702 135.509 20.681 136.283 20.462C137.471 20.0728 137.832 20.0728 139.201 20.3404C140.078 20.4863 141.473 20.8512 142.299 21.1188C143.77 21.6054 143.796 21.6054 143.177 21.1432C142.815 20.8756 141.86 20.3404 141.059 19.9268C140.233 19.5133 139.562 19.0754 139.562 18.9781C139.562 18.8564 140.001 18.6618 140.543 18.5159C141.059 18.3699 141.86 18.1266 142.325 17.9564C142.944 17.7131 143.357 17.7131 144.132 17.9077C144.674 18.078 145.939 18.3699 146.92 18.6132C149.244 19.1484 151.49 20.1944 152.058 21.0215C152.316 21.3864 152.574 21.6054 152.678 21.5324C152.91 21.3134 151.206 19.7565 150.38 19.416C149.967 19.27 149.631 19.0024 149.631 18.8321C149.631 18.6618 149.063 18.2726 148.34 17.9564C147.643 17.6401 147.049 17.3239 147.049 17.2266C147.049 16.959 147.927 16.3265 148.65 16.0589C149.734 15.6696 150.844 15.7183 153.22 16.2535C156.344 16.9346 157.531 17.4212 158.28 18.2969C158.642 18.7348 158.926 18.9538 158.926 18.8321C158.9 18.1753 155.595 15.7913 153.478 14.9642L152.652 14.6236L154.433 14.356C157.66 13.8695 164.941 13.091 167.575 12.9451C169.743 12.8234 170.363 12.7018 171.447 12.1423C172.661 11.5098 172.996 11.4611 176.869 11.3152C181.103 11.1692 184.305 10.6583 188.255 9.46632C189.804 8.9798 191.095 8.88249 198.298 8.59056C202.842 8.42029 208.238 8.10403 210.303 7.88509C223.419 6.54712 228.583 6.20654 232.662 6.42549C234.831 6.54712 235.863 6.5228 235.967 6.32819C236.096 6.1579 237.722 6.06059 240.872 6.06059C243.634 6.06059 247.714 5.86598 250.734 5.57405C260.339 4.69829 262.869 4.57666 266.587 4.84425C268.497 4.96588 273.377 5.08752 277.43 5.08752C281.484 5.11185 285.615 5.18483 286.596 5.30646C287.603 5.40376 289.152 5.4281 290.081 5.33078C291.32 5.20915 291.863 5.25781 292.095 5.50107C292.276 5.67136 292.663 5.81732 292.947 5.81732C293.231 5.81732 293.851 5.98761 294.367 6.18222C294.857 6.37683 295.193 6.42549 295.116 6.30385C295.012 6.1579 295.425 6.03625 296.071 6.03625C297.104 6.01193 297.078 5.98761 295.632 5.793C294.78 5.67136 293.541 5.4281 292.869 5.20915C291.888 4.91724 289.9 4.84425 281.768 4.84425C276.217 4.81993 269.762 4.67397 267.026 4.50368C263.592 4.26041 261.552 4.23608 260.055 4.40637C258.893 4.528 254.969 4.72263 251.354 4.81993C247.74 4.91724 245.932 5.03886 247.352 5.06319C251.819 5.18483 248.979 5.57405 242.963 5.67136C239.994 5.74434 238.135 5.69569 238.832 5.62271C239.555 5.52541 236.638 5.4281 232.378 5.40376C228.118 5.35512 223.419 5.33078 221.922 5.30646C217.739 5.23347 214.124 5.40376 214.486 5.62271C214.873 5.84164 213.04 5.93895 209.658 5.84164C207.98 5.793 207.438 5.86598 207.722 6.03625C208.006 6.23088 206.534 6.30385 202.687 6.30385C199.718 6.30385 193.78 6.47414 189.52 6.66876C185.26 6.86337 179.348 7.13097 176.353 7.27693C173.384 7.39856 167.626 7.69048 163.573 7.90942C159.519 8.10403 152.264 8.32297 147.436 8.37163C142.609 8.44461 137.367 8.6149 135.767 8.76085C132.126 9.12576 114.364 8.93114 113.925 8.51759C113.408 8.03105 111.808 8.22566 110.801 8.85815C110.259 9.19873 109.742 9.41768 109.639 9.3447C109.51 9.29604 108.787 9.66095 107.987 10.1961C107.212 10.7313 106.386 11.1692 106.179 11.1692C105.947 11.1692 105.74 11.3152 105.689 11.4611C105.585 11.7044 105.095 11.7044 103.391 11.4854C102.203 11.3395 100.577 11.2665 99.7764 11.3395C98.3306 11.4611 98.279 11.4611 97.1172 10.4394C96.0586 9.51498 95.8005 9.39336 94.5354 9.36902C93.7608 9.36902 93.1928 9.27171 93.2703 9.15009C93.3219 9.05278 93.2961 8.76085 93.2187 8.46893C92.883 7.47154 90.8434 7.32558 89.8107 8.25C89.3976 8.59056 88.3907 8.73653 84.2082 8.9798C79.406 9.29604 78.7089 9.27171 72.8482 8.78519C69.4403 8.49326 64.7672 8.12836 62.4952 7.98241C60.2232 7.86076 56.9702 7.47154 55.2662 7.15529C52.6069 6.66876 47.1851 6.1579 40.2917 5.72002C38.5361 5.62271 28.2089 6.1579 27.8216 6.40117C27.7183 6.44981 25.6013 6.42549 23.1227 6.32819C19.6115 6.20654 18.4497 6.06059 17.9591 5.76866C17.4169 5.4281 17.1071 5.40376 16.1002 5.62271C14.9901 5.86598 14.6802 5.84164 13.1053 5.25781C10.1363 4.1631 9.64572 4.40637 10.1621 6.74173C10.3944 7.78778 10.3944 8.22566 10.1363 8.68788C9.85226 9.24739 9.64572 9.32037 7.99337 9.41768C5.59229 9.53931 5.1792 9.22307 5.43738 7.42288C5.66975 5.91463 5.87629 5.62271 7.01228 5.4281C8.07082 5.25781 9.02609 5.86598 8.84536 6.59578C8.76791 6.83905 8.81954 6.985 8.94863 6.8877C9.07772 6.81471 9.181 6.49847 9.181 6.18222C9.181 5.33078 7.86428 4.72263 6.83156 5.06319C6.00538 5.33078 5.90211 5.18483 6.4701 4.50368C7.11555 3.7009 6.90901 3.62791 5.66975 4.11446C5.02429 4.38205 4.4563 4.60098 4.40466 4.60098C4.37884 4.60098 3.86248 4.01715 3.29449 3.31166C1.69377 1.41418 -0.190946 -0.458969 0.0155984 0.10054ZM221.018 6.35251C219.598 6.47414 215.415 6.83905 211.723 7.17961C208.031 7.54453 204.21 7.86076 203.203 7.88509C202.222 7.93375 199.95 8.03105 198.169 8.10403C195.974 8.17702 195.303 8.15268 196.103 8.00673C196.749 7.88509 198.246 7.78778 199.46 7.73914C201.035 7.7148 201.396 7.64183 200.751 7.54453C199.744 7.37424 204.572 6.91202 210.303 6.64442C212.085 6.57146 214.744 6.42549 216.242 6.30385C217.739 6.20654 220.011 6.13358 221.276 6.13358H223.6L221.018 6.35251ZM111.679 16.3994C111.085 16.6914 111.162 16.7157 112.582 16.5941C113.821 16.4967 114.957 16.667 118.391 17.4455C124.02 18.7591 124.665 18.8321 125.104 18.3699C125.44 17.9564 126.137 17.8347 126.137 18.1996C126.137 18.2969 125.672 18.7105 125.078 19.0511L124.02 19.7322L123.452 19.2213C122.729 18.5645 122.419 18.5645 122.6 19.2213C122.729 19.6835 122.703 19.6835 122.316 19.3673C121.567 18.7835 120.947 18.6618 117.797 18.5645C116.119 18.4915 113.925 18.2969 112.918 18.1266C111.679 17.9077 110.775 17.8834 110.078 18.0293C108.968 18.2483 108.684 18.1753 108.968 17.7374C109.071 17.5671 109.381 17.4942 109.639 17.5671C109.923 17.6401 110.078 17.5915 109.975 17.4698C109.897 17.3482 109.975 17.2509 110.104 17.2509C110.259 17.2509 110.388 17.0806 110.388 16.886C110.388 16.4724 111.111 16.0589 111.808 16.0589C112.272 16.0589 112.247 16.0832 111.679 16.3994ZM116.171 19.5619C116.842 19.8295 117.255 19.8782 117.617 19.6835C118.236 19.3673 119.166 19.3673 119.166 19.6835C119.166 19.8295 119.476 20.0485 119.837 20.1701C120.689 20.4863 120.612 21.5081 119.656 22.1649C119.114 22.5541 118.753 22.6028 117.797 22.4811C116.248 22.2622 115.577 21.8243 116.016 21.3134C116.3 20.9972 116.274 20.9242 115.887 20.8269C115.629 20.7539 115.939 20.7539 116.584 20.8269L117.746 20.9485L116.455 20.3161C115.655 19.9268 114.751 19.6835 114.054 19.6835C113.383 19.6835 112.995 19.5862 113.099 19.4403C113.331 19.0754 115.112 19.1484 116.171 19.5619ZM111.188 21.6297C111.265 22.6271 111.317 22.7244 111.885 22.6757C112.737 22.5784 113.486 23.0163 113.486 23.5758C113.486 23.8434 113.615 24.0624 113.744 24.0624C114.131 24.0624 113.796 22.846 113.176 22.0189L112.634 21.3134L113.434 21.7513C113.873 21.9946 114.338 22.4568 114.493 22.773C114.777 23.3812 115.448 23.3082 115.19 22.7001C115.009 22.2379 115.087 22.2622 116.636 23.1136C118.727 24.2813 118.908 24.8408 117.513 26.1545C116.791 26.8356 116.455 26.9816 115.5 26.9816C114.441 26.9816 114.26 26.8843 112.918 25.449C110.594 23.0163 110.336 22.6514 110.517 22.0919C110.646 21.7513 110.568 21.4837 110.362 21.3621C110.104 21.2161 110.155 21.1432 110.594 21.1432C110.981 21.1432 111.162 21.2891 111.188 21.6297ZM95.7746 24.9138C96.6008 26.1301 96.9106 27.8573 96.5492 29.1953C96.1361 30.6792 95.7746 31.2874 95.155 31.6037C94.871 31.7496 94.6386 32.0659 94.6386 32.3335C94.6386 32.747 94.5612 32.7713 93.8641 32.5281C92.7798 32.1875 92.6507 31.8226 93.6576 31.9929C94.3805 32.0902 94.4321 32.0659 94.0448 31.8469C93.7867 31.6766 93.2703 31.628 92.9347 31.701C92.4183 31.8226 92.0568 31.6523 91.1274 30.8252C90.1721 29.9494 89.9656 29.6089 89.914 28.7574C89.8881 28.1736 89.7849 27.7114 89.6558 27.7114C89.5525 27.7114 89.5267 27.4194 89.63 27.0302C89.9914 25.449 90.0947 25.449 90.2754 26.9329C90.4045 28.1493 90.5852 28.6115 91.1274 29.1223C91.4889 29.4872 91.7987 29.6575 91.7987 29.4872C91.7987 29.3413 91.6179 29.098 91.4114 28.9277C90.9725 28.5871 90.9209 27.2492 91.2823 25.9599C91.5405 25.0841 91.5921 25.0598 92.7023 25.1084C93.6576 25.1571 93.8641 25.2544 93.9932 25.7409C94.0707 26.0572 94.3288 26.4707 94.5096 26.6653C94.9485 27.0546 95.0259 29.0493 94.6386 29.2926C94.5096 29.3656 94.3805 29.2926 94.3805 29.098C94.3805 28.5385 93.451 27.906 92.7798 28.0033C92.1859 28.1249 92.2634 28.1736 93.4252 28.5385C93.9674 28.7088 94.019 29.4142 93.4768 29.4142C93.2703 29.4142 93.0896 29.2926 93.0896 29.171C93.0896 29.025 92.9863 28.9277 92.8314 28.9277C92.3409 28.9277 92.5732 29.9008 93.167 30.2413C94.1223 30.8495 94.7161 30.5819 95.1034 29.3899C95.5165 28.1006 95.3616 25.6679 94.8194 25.0841C94.4063 24.6219 94.5096 24.038 94.9743 24.1353C95.155 24.1597 95.5165 24.5002 95.7746 24.9138ZM110.336 24.5975C110.568 24.8165 110.646 24.8165 110.646 24.5975C110.646 24.111 111.007 24.257 112.143 25.1814C113.305 26.1058 113.537 26.7383 112.711 26.7383C112.376 26.7383 112.195 26.568 112.195 26.2518C112.195 25.9842 112.092 25.7652 111.963 25.7652C111.833 25.7652 111.782 25.9599 111.859 26.2031C111.937 26.495 111.601 27.0546 111.007 27.7357C110.026 28.8547 109.51 29.0007 107.651 28.7574C107.005 28.6601 106.721 28.4169 106.283 27.6141C105.611 26.3004 105.585 26.0085 106.257 26.6897C106.825 27.2735 108.606 27.4438 109.355 26.9816C109.639 26.8113 109.51 26.7383 108.813 26.7383C107.573 26.7383 106.515 25.9842 106.928 25.376C107.419 24.5975 107.987 24.4029 108.529 24.8651C109.174 25.4247 109.613 25.4003 109.613 24.7922C109.613 24.2327 109.871 24.1597 110.336 24.5975ZM87.5645 27.1519C87.642 27.4438 87.9776 27.7357 88.3132 27.8087C88.9071 27.9546 89.2169 28.5628 89.2169 29.7305C89.2169 30.1197 89.3201 30.363 89.475 30.2657C89.9398 29.9981 89.759 31.9929 89.191 33.3308C88.0034 36.1284 86.5576 36.2257 83.2271 33.6714C82.0911 32.7957 81.6264 31.3117 82.2202 30.4116C82.4009 30.144 82.5816 30.3387 83.0205 31.1171C83.4336 31.8956 83.6402 32.0659 83.7951 31.8226C83.9242 31.6523 83.9242 31.3847 83.8209 31.2388C83.4336 30.7765 83.2787 29.3169 83.5111 27.906C83.7434 26.2518 83.8467 26.1301 84.518 26.5194C84.9311 26.7626 85.1634 26.7383 85.8863 26.3248C86.6867 25.8625 86.79 25.8625 87.0998 26.2274C87.2805 26.4464 87.4871 26.8599 87.5645 27.1519ZM103.882 26.2761C104.191 26.4707 104.32 26.7626 104.243 27.1275C104.14 27.7114 104.527 28.2222 105.301 28.5142C105.585 28.6115 105.74 28.9277 105.74 29.5116C105.74 30.7279 104.32 31.8469 102.771 31.8469C101.506 31.8469 98.7179 30.8738 97.6077 30.0224L96.8848 29.5116L97.6335 28.4169L98.3564 27.3465L98.7179 28.5628C99.1826 30.144 99.5957 30.5333 101.067 30.8738C102.41 31.1658 103.288 30.9712 103.959 30.2413C104.475 29.6575 104.733 28.7331 104.424 28.5385C104.295 28.4655 104.191 28.5628 104.191 28.7818C104.191 28.9764 103.83 29.4142 103.391 29.7548C101.713 31.0928 99.5183 30.1684 99.5699 28.1493C99.5957 27.4681 99.6473 27.3221 99.7248 27.7357C99.8797 28.6115 100.835 28.4412 100.835 27.5411C100.835 27.0546 100.938 26.9572 101.3 27.1032C101.532 27.2005 102.255 27.3221 102.849 27.3708C103.675 27.4438 103.959 27.3951 103.856 27.1762C103.804 27.0059 103.494 26.8843 103.21 26.9329C102.849 26.9816 102.642 26.8843 102.642 26.6653C102.642 25.9842 103.133 25.8382 103.882 26.2761ZM120.25 27.8087C120.87 28.1249 121.541 28.6844 121.748 29.0737C121.98 29.4629 122.316 30.0467 122.522 30.3873C122.858 30.9225 123.064 32.0902 122.858 32.0902C122.522 32.0902 120.586 30.9955 119.192 30.0224C118.288 29.3899 117.152 28.7088 116.661 28.5385C115.706 28.1493 115.603 27.8573 116.274 27.4924C117.1 27.0302 119.088 27.1762 120.25 27.8087ZM47.624 29.0007C47.6757 28.1249 47.9338 27.7114 48.4502 27.7114C48.8633 27.7114 48.9408 27.8817 48.9408 28.6844C48.9408 29.244 49.1215 29.9981 49.328 30.363C49.6895 31.0685 51.5226 32.0902 52.4004 32.0902C52.6327 32.0902 52.7618 32.1875 52.6844 32.3335C52.4004 32.7713 50.8513 32.601 49.9477 32.0172C49.4829 31.7253 48.8117 31.0928 48.5018 30.6549C48.1662 30.1927 47.908 29.9008 47.908 29.9738C47.908 30.3387 48.8117 32.2361 49.044 32.3821C49.1989 32.4794 49.2247 32.6254 49.1215 32.7227C49.0182 32.82 48.5277 32.5037 48.0371 32.0172C47.1593 31.1658 47.1335 31.0928 47.1593 29.3656C47.2109 27.8573 47.2368 27.7357 47.3917 28.5628C47.4949 29.098 47.5982 29.2926 47.624 29.0007ZM65.3352 30.4603C66.0839 32.82 66.5745 33.4038 68.5624 34.2796C70.0083 34.9121 70.6279 34.7905 70.6279 33.9147C70.6279 33.1606 70.8603 33.1606 71.7897 33.8174C72.2802 34.2066 72.461 34.4985 72.3577 34.9121C72.3061 35.2283 72.3319 35.4229 72.4352 35.3743C72.5384 35.3013 72.6933 34.8148 72.7966 34.2796C72.8741 33.7444 73.0806 33.3065 73.2355 33.3065C73.5453 33.3065 73.4162 34.1093 72.745 36.2257C72.2286 37.9286 72.0221 38.1719 71.0926 38.1719C69.5952 38.1719 67.6072 36.8826 66.3421 35.0824C65.8516 34.3769 65.3352 33.7931 65.2061 33.7931C65.077 33.7931 64.6639 33.2822 64.2767 32.674C63.6054 31.5793 63.5796 31.555 64.0185 30.3387C64.2508 29.6575 64.4316 28.8304 64.4574 28.4655C64.4832 27.7114 64.4574 27.687 65.3352 30.4603ZM75.2235 29.1467C74.7071 30.29 74.7071 30.3387 75.146 31.701C75.6882 33.3308 76.4111 34.2796 77.0824 34.2796C77.8569 34.2796 77.9344 33.8417 77.1857 33.7444C76.7984 33.6958 76.3337 33.4281 76.1013 33.1119C75.7399 32.601 75.7657 32.5767 76.2046 32.7227C76.6177 32.8686 76.6435 32.8443 76.3853 32.5524C76.2046 32.3821 76.0497 31.7739 76.0497 31.1901C76.0497 30.2413 76.1013 30.144 76.6951 30.144C77.0824 30.144 77.6246 29.8764 77.986 29.5116C78.6057 28.8791 79.1478 28.9034 79.1478 29.5602C79.1478 29.7791 79.0187 29.8521 78.8638 29.7548C78.6315 29.6332 78.6057 29.7791 78.7347 30.2657C78.8897 30.8738 78.8638 30.9225 78.5282 30.6549C78.3217 30.4846 78.0118 30.4116 77.8569 30.5089C77.4697 30.7522 77.8053 31.1171 78.4249 31.1171C78.7347 31.1171 79.1737 31.2874 79.4318 31.5063C79.8449 31.8469 79.8966 31.8226 80.0515 31.1414C80.1547 30.7279 80.3355 30.436 80.4646 30.5333C80.5937 30.6062 80.6969 30.4116 80.7227 30.0954C80.7227 29.5359 80.7227 29.5359 81.0067 30.144C81.1616 30.4846 81.2907 31.1414 81.3424 31.6037L81.4198 32.4551L81.0584 31.7253L80.7227 30.9955L80.6969 32.1145C80.6969 33.5498 79.6126 35.6419 78.7864 35.7878C77.7278 35.9825 75.9722 35.3256 74.9395 34.3282C74.165 33.5984 73.9584 33.1849 73.9068 32.3335C73.8293 31.2388 74.165 29.9981 74.9137 28.6601C75.5333 27.4924 75.7915 27.8573 75.2235 29.1467ZM70.7828 29.5359C71.041 29.9981 71.3508 30.3873 71.4541 30.3873C71.9188 30.3873 71.609 31.3117 71.1184 31.4334C70.6795 31.555 70.6021 31.701 70.6795 32.2118C70.8086 32.7957 70.3697 33.5498 69.8792 33.5498C69.4403 33.5498 68.6915 32.82 68.3817 32.0659L68.0461 31.2388L68.1235 32.5037C68.1752 33.5498 68.1235 33.6958 67.8137 33.4768C66.9875 32.82 66.7036 31.6523 67.065 30.2413C67.349 29.0737 67.4523 28.9277 68.0719 28.9277C69.0272 28.9277 69.1304 29.1467 68.5624 29.9008C67.8137 30.8738 67.9428 31.1171 68.7174 30.2657L69.3628 29.5359L69.2337 30.7522C69.1046 31.8712 69.1304 31.9199 69.4661 31.5063C69.6984 31.2388 69.8533 30.5089 69.8533 29.8521C69.8533 29.2196 69.9566 28.6844 70.0599 28.6844C70.189 28.6844 70.4988 29.0737 70.7828 29.5359ZM114.131 28.9277C114.209 29.0493 114.57 29.171 114.906 29.171C116.223 29.171 117.978 32.0415 118.52 35.0824C118.598 35.5932 118.753 36.2014 118.83 36.396C118.959 36.7123 118.882 36.7609 118.494 36.615C118.236 36.4933 117.049 36.2744 115.913 36.1041C113.976 35.8365 113.692 35.7149 112.608 34.7661C111.343 33.6471 110.594 32.1632 111.162 31.8469C111.472 31.6523 111.446 31.2388 111.033 29.9738C110.878 29.5116 110.981 29.4142 111.859 29.2683C112.401 29.1953 113.021 29.025 113.228 28.9034C113.744 28.6358 113.951 28.6358 114.131 28.9277ZM109.019 31.628C109.561 31.8226 109.639 31.9199 109.355 32.0902C109.123 32.2118 108.864 32.2118 108.632 32.0415C108.038 31.555 107.728 32.1875 108.271 32.8443C108.529 33.1606 109.2 34.158 109.716 35.058C110.259 35.9825 110.723 36.7123 110.775 36.7123C110.827 36.7123 110.594 36.0068 110.259 35.1553C109.742 33.8417 109.691 33.5498 110 33.3065C110.284 33.0876 110.413 33.1362 110.646 33.5498C110.801 33.8174 110.852 34.158 110.749 34.3039C110.672 34.4499 110.749 34.7418 110.956 34.9607C111.162 35.1797 111.549 35.9095 111.808 36.5906C112.066 37.2475 112.737 38.6584 113.279 39.7288C113.847 40.7748 114.235 41.6992 114.157 41.7722C114.08 41.8452 113.383 41.3343 112.634 40.6775C111.885 39.9964 110.904 39.2666 110.465 39.072C109.691 38.6827 106.954 35.9338 106.205 34.7661C105.973 34.4256 105.74 33.7687 105.663 33.2822C105.534 32.3821 105.534 32.3821 106.851 31.8956C107.599 31.6037 108.219 31.3847 108.245 31.3847C108.271 31.3604 108.606 31.482 109.019 31.628ZM120.147 31.8226C121.748 32.601 121.928 32.9416 122.264 35.8608C122.703 39.8747 121.954 43.3048 120.302 44.7644L119.682 45.2996V44.7158C119.682 44.3995 119.863 43.621 120.044 43.0129C120.586 41.383 120.715 39.6315 120.431 38.5368C120.044 37.0772 118.908 32.0172 118.908 31.6523C118.908 31.2631 119.011 31.2874 120.147 31.8226ZM93.3219 33.1119C93.6576 33.3552 93.7867 33.5498 93.6059 33.5498C93.3994 33.5498 93.0638 33.4038 92.8572 33.2092C92.4699 32.893 91.6438 32.7227 90.8434 32.7957C89.9656 32.8686 90.5852 35.4229 91.8761 36.9799C92.6507 37.9043 92.8056 37.8556 92.5474 36.7609C92.3667 35.9825 92.4183 35.7878 92.9347 35.277L93.5543 34.6931L94.587 35.4716C95.6197 36.2501 95.9296 36.7123 96.4201 38.0502C96.6783 38.78 96.6783 38.78 96.859 38.1962L97.0397 37.6367L97.3754 38.1962C97.8917 39.0476 97.8143 38.4638 97.1946 36.7609C96.6783 35.3256 96.6783 34.5229 97.1688 34.5229C97.5819 34.5229 98.0466 36.2987 98.0208 37.7583C98.0208 38.5611 98.1757 39.9234 98.3823 40.7748C98.9244 42.9156 98.8986 43.2561 98.279 42.5993C97.6852 41.9425 97.4786 41.9182 97.4786 42.5507C97.4786 42.9886 97.2979 42.9399 95.3874 42.0398C92.9088 40.8235 92.1085 39.972 90.895 37.2231C89.7849 34.7661 89.6041 32.893 90.3529 32.1145L90.8434 31.6037L91.7729 32.1388C92.2892 32.4308 92.9863 32.8686 93.3219 33.1119ZM100.241 33.0389C100.68 33.2822 100.68 33.2822 100.267 33.3065C99.5441 33.3065 99.7248 33.7931 100.551 34.0607C101.093 34.2309 101.274 34.4256 101.171 34.7418C101.093 35.0094 101.171 35.277 101.326 35.35C101.48 35.4473 101.61 35.3256 101.635 35.0824C101.635 34.8148 101.713 34.7661 101.79 34.9607C101.894 35.204 101.997 35.204 102.281 34.9851C102.849 34.5472 104.217 35.5202 105.792 37.4421C107.212 39.2179 107.599 39.3396 106.928 37.8313C106.36 36.5663 106.851 36.9799 107.832 38.5854C108.503 39.6801 109.303 42.0641 109.355 43.0859C109.355 43.3778 108.709 43.3048 108.374 42.9886C108.167 42.7939 108.167 42.6237 108.348 42.4047C108.555 42.1615 107.935 41.7722 105.792 40.7505C101.532 38.6827 98.2532 35.4473 98.2532 33.2579C98.2532 32.674 98.3306 32.601 99.0019 32.6983C99.4408 32.747 99.983 32.893 100.241 33.0389ZM51.6 34.3769C52.168 34.6931 52.8135 35.277 53.0716 35.6905C53.5364 36.396 53.5364 36.4447 53.0716 36.8339C52.7618 37.1015 52.4004 37.1745 52.0647 37.0772C51.4967 36.9069 51.2902 37.3204 51.8582 37.515C52.0647 37.588 51.9098 37.8799 51.4193 38.3908C50.9804 38.8044 50.5673 39.1449 50.4898 39.1449C50.0509 39.1449 47.908 37.1015 47.908 36.7123C47.908 35.9095 48.3211 35.9825 48.6309 36.8339C48.8117 37.2718 49.1473 37.7826 49.3797 37.9772C49.7669 38.2692 49.7669 38.2448 49.5087 37.7583C49.0957 37.0528 49.1215 36.7123 49.5862 36.7123C49.8186 36.7123 50.0509 36.5663 50.1284 36.3717C50.3349 35.8851 49.7927 35.0094 49.3022 35.0094C48.6826 35.0094 49.1473 34.5229 49.7927 34.4985C50.1284 34.4985 50.2058 34.4256 49.9993 34.3526C49.7153 34.2309 49.7153 34.1823 49.9993 34.012C50.4898 33.7201 50.4898 33.7201 51.6 34.3769ZM55.5243 36.2257C55.3178 36.8339 55.6018 38.1719 55.9374 38.1719C56.0665 38.1719 56.1956 37.8799 56.1956 37.4907C56.2473 36.9312 56.2473 36.9069 56.3505 37.3934C56.5054 38.1475 56.9443 37.8313 56.9443 36.9555C56.9443 36.0554 57.5123 35.8851 57.8996 36.6879C58.1062 37.1501 58.2094 37.1988 58.2094 36.8826C58.2869 35.5202 60.817 38.0989 60.817 39.5342C60.817 39.972 60.9461 40.3613 61.1269 40.4099C61.3334 40.4829 61.2301 40.7018 60.8687 41.0424C60.5589 41.3343 60.404 41.5776 60.533 41.5776C60.688 41.5776 60.8687 41.4316 60.972 41.2857C61.2818 40.8235 61.5399 41.9182 61.5658 43.7184L61.5916 45.2753L60.5072 44.5211C59.0614 43.5237 56.3247 40.6045 55.6018 39.3152C55.0596 38.3421 54.724 35.8608 55.1887 36.1284C55.292 36.2014 55.3953 36.1284 55.3953 36.0068C55.3953 35.8608 55.4727 35.7392 55.5502 35.7392C55.6276 35.7392 55.6018 35.9581 55.5243 36.2257ZM86.8416 38.3178C87.7969 38.8287 88.0034 39.2909 88.0809 40.9694C88.1067 41.6263 88.2616 42.8426 88.4165 43.621C88.5972 44.4238 88.7005 45.2996 88.6489 45.5429C88.5714 46.0051 88.5198 45.9807 87.7452 45.3726C87.3063 45.032 86.8416 44.7401 86.7125 44.7887C86.4285 44.8374 84.9569 44.0346 84.0016 43.3048C83.1496 42.648 81.9878 41.0424 81.9878 40.5559C82.0136 40.3856 82.246 40.6532 82.53 41.1397C82.814 41.6506 83.098 42.0641 83.1496 42.0641C83.2271 42.0641 83.098 41.6506 82.8656 41.1397C82.1944 39.6558 81.9104 38.8773 82.0395 38.7557C82.1169 38.707 82.2976 39.072 82.4525 39.5828C82.6075 40.0937 83.1238 40.8235 83.5627 41.2127L84.3631 41.9425L83.8209 40.9208C83.1754 39.7045 83.1496 39.2422 83.6402 38.7557C84.1824 38.2448 84.4663 38.3178 85.6023 39.2909C86.3511 39.9477 86.7642 40.5802 87.1256 41.6749L87.642 43.1588V42.1128C87.6678 40.7748 86.9707 39.5098 85.4991 38.2205C84.6471 37.4907 84.1049 37.1988 83.5369 37.1988C82.6591 37.1988 82.6333 37.1501 83.0722 36.4933C83.3562 36.0554 83.4336 36.0798 84.6729 36.9555C85.3958 37.4421 86.3769 38.0746 86.8416 38.3178ZM39.5172 37.0042C39.8786 37.1501 40.1626 37.3934 40.1368 37.5394C40.111 37.9772 39.6721 38.8044 39.6721 38.4638C39.6463 38.3178 39.4655 38.1719 39.259 38.1719C39.0008 38.1719 38.8717 38.4151 38.8717 38.999C38.8717 39.4612 38.7943 40.045 38.691 40.2883C38.5361 40.6775 38.5619 40.6775 38.9492 40.3856C40.1368 39.4855 38.7684 41.8695 37.0645 43.7184C36.6256 44.1806 36.2125 43.9616 35.9801 43.1345C35.6961 42.1858 35.9543 41.164 36.7546 39.9964C37.1161 39.4612 37.4259 38.8044 37.4775 38.5124C37.5292 37.9043 38.3037 36.7123 38.6394 36.7123C38.7426 36.7123 39.1557 36.8339 39.5172 37.0042ZM78.2442 37.8313C78.8122 38.0259 79.4835 38.4638 79.7158 38.7557C80.1547 39.3152 81.0584 43.1102 81.3682 45.6402L81.5489 46.9295L80.542 46.5403C77.6246 45.3969 75.4042 43.9373 75.6624 43.3535C75.7399 43.0859 75.6882 43.0372 75.4042 43.1345C75.1719 43.2075 74.9137 43.0615 74.7588 42.7696C74.2941 41.9425 73.7519 38.8287 73.9842 38.4151C74.165 38.1475 74.2166 38.2692 74.2424 38.853C74.2424 39.7531 74.8104 41.1884 75.2751 41.456C75.5075 41.6019 75.5591 41.3587 75.4042 40.4342C75.2493 39.2909 75.2751 39.1693 75.9206 38.6827L76.6177 38.1719L77.6246 38.926C78.6057 39.6558 78.7864 40.0207 79.3802 42.502C79.7417 44.1076 79.9998 44.0589 79.8707 42.4047C79.7417 40.5559 78.8122 38.7314 77.6246 38.0016C76.5919 37.3448 76.7984 37.2961 78.2442 37.8313ZM118.83 38.1719C119.062 38.1719 119.424 40.3613 119.295 41.0424C119.166 41.6506 119.217 41.8209 119.45 41.6749C119.682 41.5533 119.708 41.6749 119.605 42.0885C119.527 42.4047 119.372 43.1345 119.269 43.694C119.14 44.4482 118.985 44.7401 118.649 44.7401C117.488 44.7401 116.584 42.6966 116.403 39.7045L116.248 37.4421L117.513 37.807C118.21 38.0016 118.804 38.1719 118.83 38.1719ZM69.0788 38.4881C69.5694 38.6827 70.189 38.926 70.4472 38.999C70.7053 39.072 70.8344 39.2422 70.757 39.3882C70.6795 39.5098 70.8344 39.6315 71.0926 39.6315C71.3766 39.6315 71.6864 39.8018 71.7639 40.0207C71.9962 40.5559 72.5126 46.4429 72.3577 46.6132C72.1253 46.8078 70.2664 45.7861 69.3112 44.9347C68.8206 44.4968 68.6399 44.3022 68.9239 44.5211C70.1115 45.3969 70.1632 45.2266 69.053 44.1076C67.6072 42.6237 66.1614 40.9208 65.7225 40.118C65.4127 39.5585 65.4127 39.5342 65.8257 39.8504C66.213 40.1667 66.2388 40.1423 65.9806 39.5098C65.5417 38.4395 65.8774 38.5124 66.4712 39.5828C67.1683 40.8721 67.6072 41.1154 67.1941 39.972C66.8843 39.1693 66.9101 39.0233 67.3748 38.5368C67.6588 38.2205 67.9686 38.0016 68.0461 38.0259C68.1235 38.0746 68.5883 38.2692 69.0788 38.4881ZM30.9714 55.979C30.8165 56.5142 27.2536 57.244 27.2536 56.7332C27.2536 56.5385 28.9576 53.741 29.3707 53.2301C29.5514 53.0355 29.9387 52.7436 30.2227 52.5733C30.7132 52.33 30.739 52.403 30.9198 53.9356C30.9972 54.8357 31.023 55.7601 30.9714 55.979ZM31.2296 57.1224C31.6427 57.7549 27.5118 60.5524 26.1693 60.5524C25.7045 60.5524 25.8336 60.4308 26.6856 60.0416C27.9249 59.4577 28.0023 59.1902 26.8147 59.6037C26.3758 59.7253 25.5238 59.8226 24.9042 59.774L23.794 59.701L25.5754 58.6063C27.1762 57.6332 28.3121 57.2683 30.9198 56.9278C31.023 56.9034 31.1521 57.0007 31.2296 57.1224ZM23.1485 62.0607C23.1485 62.304 23.2002 62.304 23.3035 62.0607C23.6133 61.3309 25.4464 62.2067 25.4464 63.1068C25.4464 63.4473 25.3689 63.4473 24.8525 63.1311C24.2329 62.7175 23.8198 62.8635 23.5616 63.569C23.4067 63.9095 23.4842 63.9825 23.7682 63.8609C24.2845 63.6906 24.2587 63.9095 23.5616 65.0529C23.0453 65.88 22.8387 66.026 22.1416 66.0016C21.6769 65.9773 21.3155 66.0503 21.3155 66.1719C21.3155 66.2936 21.0831 66.3909 20.8249 66.3909C20.2053 66.3909 19.9987 65.8557 20.0504 64.3717C20.102 63.1797 20.386 62.7905 21.7027 62.158C22.6322 61.6958 23.1227 61.6715 23.1485 62.0607ZM16.6424 64.9069C16.6682 65.3691 16.7457 65.4178 17.0297 65.1989C17.3137 64.9799 17.4169 65.0529 17.5202 65.5881C17.8817 67.2423 18.0624 67.7775 18.4755 68.337C19.1726 69.2614 19.4566 70.5507 19.1726 71.3292C19.0177 71.8157 19.0177 72.1077 19.2242 72.3023C19.5857 72.6428 19.6115 73.0321 19.25 72.8374C18.8886 72.6428 18.9144 72.7888 19.4308 73.9808C19.6631 74.5647 20.0762 75.2701 20.3344 75.562C20.8249 76.0729 21.4187 77.8244 21.1606 78.0434C21.0831 78.1163 20.9024 78.019 20.7733 77.8244C20.5409 77.5325 20.5409 77.5568 20.67 77.9461C20.7733 78.2137 20.954 78.8705 21.0573 79.43C21.1347 79.9652 21.4704 80.8166 21.7802 81.2788C22.09 81.741 22.4256 82.6655 22.5031 83.3223C22.6064 83.9791 22.942 84.8305 23.2518 85.2441C23.5616 85.6333 23.8973 86.2901 24.0005 86.6794C24.1038 87.0686 24.3878 87.4091 24.6718 87.4821C25.214 87.6281 25.3431 88.0173 24.9816 88.4066C24.8525 88.5525 24.4911 89.331 24.1554 90.1581C23.6133 91.6177 23.5358 93.2232 23.9489 95.4613C24.0005 95.7532 23.8715 95.9722 23.5875 96.0208C23.2518 96.0695 23.1227 95.8505 22.9936 95.0234C22.8904 94.4153 22.8904 93.7098 22.9936 93.4179C23.3035 92.4691 22.8387 92.907 22.2966 94.0504C21.8318 95.0234 21.7544 95.6559 21.7802 97.6994C21.806 99.086 21.7544 100.205 21.7027 100.205C21.6253 100.205 21.3929 99.8158 21.1864 99.3293C20.8766 98.5995 20.8507 98.0643 21.0573 96.2641C21.3413 93.9287 21.5478 93.3692 22.2966 92.8583C23.0453 92.3718 23.3551 91.6663 23.1227 91.0582C22.9678 90.6933 23.0453 90.304 23.4067 89.7688C24.1813 88.5768 24.0522 87.4091 23.0711 86.5334C22.6064 86.1198 22.2191 85.609 22.1933 85.3657C22.1675 85.1468 21.6769 84.1737 21.0831 83.225C20.0246 81.5707 19.9729 81.3761 19.9213 79.4057C19.8955 77.8974 19.7664 77.2406 19.5082 77.0703C19.2242 76.8757 19.1984 76.7784 19.4566 76.6811C19.6115 76.6324 19.7664 76.3648 19.7664 76.0972C19.7664 75.854 19.6115 75.6593 19.4566 75.6837C19.25 75.7323 19.0951 75.4161 19.0435 74.9052C18.9918 74.443 18.7595 73.8348 18.5013 73.5672C17.9849 73.0077 16.565 68.7019 16.7457 68.2397C16.8231 68.0694 16.6682 67.0963 16.41 66.0503C16.126 65.0042 15.997 63.9825 16.0744 63.7879C16.2293 63.4473 16.281 63.4473 16.4359 63.8609C16.5391 64.1042 16.6424 64.5907 16.6424 64.9069ZM16.4359 69.2371C16.7199 69.9182 16.7973 70.5021 17.1588 74.6133C17.4169 77.1919 17.7009 78.1893 17.7009 76.4621C17.7009 74.9052 18.1915 76.0242 18.2431 77.7028C18.2689 78.5056 18.3464 78.8705 18.398 78.4812C18.4497 78.1163 18.6046 77.8244 18.7078 77.8244C18.8886 77.8244 19.5082 80.8166 19.5082 81.741C19.5082 82.3249 19.0435 82.1303 18.7337 81.3761C18.5013 80.8653 18.5013 80.8653 18.5013 81.4248C18.4755 81.741 18.8111 82.3249 19.25 82.7384C19.6889 83.1277 20.0246 83.5655 20.0246 83.7115C20.0246 84.125 21.0573 85.6576 21.9351 86.5091C22.374 86.9713 22.5547 87.3118 22.374 87.3118C22.09 87.3118 22.09 87.3848 22.3482 87.6768C22.6322 88.0173 22.4773 89.0147 22.1158 89.0147C22.0384 89.0147 21.7544 88.7228 21.522 88.3336C21.2896 87.9687 20.7217 87.2875 20.2569 86.8253C19.5857 86.1442 19.4049 85.7549 19.3791 84.8792C19.3533 84.0521 19.0177 83.2006 18.0108 81.4734L16.694 79.1624L16.5391 75.8296C16.4617 73.8592 16.2551 72.1077 16.0228 71.4995C15.5839 70.3561 15.5064 69.456 15.8679 69.6507C15.9711 69.7236 16.0228 69.5047 15.9453 69.1884C15.7904 68.3857 16.1002 68.41 16.4359 69.2371ZM26.3242 69.456C26.4274 69.9182 26.5823 70.4778 26.6598 70.6967C26.7889 71.0129 26.6598 71.0373 25.8078 70.9156C25.2656 70.8427 24.6202 70.867 24.4136 71.0129C24.078 71.2076 24.078 71.2562 24.4394 71.2562C25.7045 71.2562 25.5238 72.9104 24.1813 73.5672C23.1227 74.0781 23.0453 74.0295 23.4584 73.251C24.078 72.1077 24.2329 71.2805 23.6391 72.3023C22.942 73.4943 22.4773 73.3483 22.5289 71.9617C22.6064 70.0399 22.8645 69.3831 23.6391 69.0668C24.0522 68.8965 24.4911 68.8479 24.646 68.9209C24.7751 69.0182 24.9558 68.9695 25.0591 68.8235C25.1365 68.7019 25.4205 68.5803 25.6787 68.5803C26.0402 68.5803 26.2209 68.8235 26.3242 69.456ZM34.6376 70.5507C38.3037 70.9156 38.5361 71.0616 36.6772 71.7671C34.5601 72.5455 31.4619 72.5699 29.9645 71.8157C28.9318 71.2805 28.9318 71.2805 29.6805 71.2562C30.0936 71.2562 30.6616 71.4508 30.9456 71.6698C31.307 71.986 31.7976 72.0833 32.7528 72.059C34.7925 71.9617 34.7667 71.5725 32.7012 71.3778C31.4361 71.2562 30.8681 71.1102 30.8681 70.8913C30.8681 70.5994 31.2296 70.4048 31.9783 70.3075C32.0816 70.3075 33.295 70.4048 34.6376 70.5507ZM29.3191 74.9052C29.3191 75.2458 29.4481 75.6593 29.6289 75.8296C30.0161 76.1945 29.8096 76.3648 28.906 76.4621C28.3638 76.5108 28.1831 76.6811 28.1572 77.0946C28.1314 77.4109 27.7183 77.9704 27.2278 78.3596C26.2725 79.1137 25.8336 79.2354 26.066 78.6759C26.1434 78.4812 26.2983 78.1163 26.4016 77.8974C26.5049 77.6541 26.2209 77.8488 25.782 78.311L24.9558 79.1624L24.6718 78.4326C24.2845 77.5325 24.7751 75.9513 25.5754 75.5377C25.8594 75.3918 26.1434 75.1971 26.2209 75.1242C26.2983 75.0512 26.5823 74.8566 26.8663 74.6863C27.3827 74.37 27.0987 74.443 26.066 74.8322C25.6787 74.9539 25.6787 74.9052 26.0918 74.3457C26.5565 73.6646 27.8216 73.4213 28.1572 73.9321C28.4412 74.3457 28.8543 74.1997 28.6994 73.7375C28.5703 73.397 28.5961 73.397 28.9318 73.7862C29.1383 74.0538 29.3191 74.5647 29.3191 74.9052ZM35.7736 74.7593C38.0455 75.4161 40.4983 76.5351 40.3175 76.827C40.1368 77.0703 34.7925 77.3866 34.0179 77.1676C33.0885 76.9487 33.8372 76.6324 35.3863 76.5838C36.1092 76.5594 36.4448 76.5108 36.1608 76.4378C34.3277 76.0486 33.1659 75.562 33.295 75.2215C33.4241 74.9296 33.2692 74.8809 32.3656 75.0269L31.2554 75.1728L32.2881 74.6863C33.6048 74.0781 33.5016 74.0781 35.7736 74.7593ZM14.861 75.8053C15.2999 76.4378 15.6355 77.0946 15.6355 77.2892C15.6355 77.4595 15.842 78.0677 16.126 78.6272C17.1329 80.7923 18.8369 85.5847 18.6562 85.7549C18.6046 85.8036 18.114 84.9035 17.5719 83.7601C17.0297 82.6168 15.997 80.7193 15.2999 79.576C14.6028 78.4083 13.9057 77.119 13.7766 76.7297C13.5701 76.0486 13.725 74.662 13.9831 74.662C14.0348 74.662 14.4479 75.1728 14.861 75.8053ZM44.0353 78.5056C44.0353 78.9921 38.4586 82.4708 37.4259 82.6168C36.2125 82.8114 36.2899 82.3249 37.5292 81.9356C38.7684 81.5707 39.9819 80.9869 39.827 80.8409C39.7754 80.768 39.3881 80.8409 38.975 80.9869C38.4328 81.1815 38.0972 81.1815 37.6583 80.9626C37.1419 80.695 37.0128 80.7193 36.6772 81.1329C36.3416 81.5707 36.2641 81.5707 35.5928 81.2302C34.5085 80.6707 34.4827 79.6733 35.5154 79.1624C36.7288 78.5786 44.0353 78.019 44.0353 78.5056ZM30.8681 80.4274C30.8681 80.768 29.7063 84.0277 29.474 84.3683C29.2416 84.7089 27.3311 85.5847 26.7889 85.609C26.5565 85.609 26.5307 85.4874 26.7372 85.1468C27.1503 84.417 27.0729 84.0277 26.6082 84.3926C26.066 84.8062 25.9111 84.6116 25.9111 83.5169C25.9111 82.4708 26.5565 81.7654 28.2863 80.8896C29.4223 80.3301 30.8681 80.0868 30.8681 80.4274ZM46.8237 82.7141C46.1782 83.6872 40.2401 85.8766 38.3554 85.8279C37.7357 85.8279 37.7357 85.8036 38.4845 85.536C39.5172 85.1468 41.0146 84.3683 40.8855 84.271C40.8597 84.2467 40.2401 84.2953 39.5172 84.3926C38.8201 84.5143 37.8906 84.6116 37.4517 84.6116C36.703 84.6116 36.703 84.6116 37.1677 84.271C37.4517 84.0764 38.2521 83.9061 38.975 83.8818C39.6979 83.8818 41.7375 83.5169 43.519 83.079C45.3004 82.6411 46.8237 82.2519 46.9528 82.2276C47.056 82.2276 47.0044 82.4222 46.8237 82.7141ZM45.3004 86.3145C45.8168 86.6307 43.6222 87.9687 41.9182 88.3822C39.7754 88.8931 37.839 89.112 37.839 88.7958C37.839 88.6498 38.407 88.4795 39.1299 88.3822C40.7564 88.1876 40.5499 87.7984 38.7943 87.7984C38.0455 87.7741 37.1161 87.6281 36.6772 87.4578L35.9026 87.1416L36.9354 86.9713C37.5034 86.874 38.4328 86.7037 39.0008 86.582C40.8855 86.1685 41.0404 86.1442 43.0026 86.1198C44.0611 86.1198 45.0939 86.1928 45.3004 86.3145ZM33.863 89.4039C34.3277 89.9148 34.431 89.9878 34.3277 89.6229C34.1987 89.258 34.2245 89.2093 34.431 89.4769C34.6117 89.7202 34.5859 89.9878 34.3019 90.4013C33.9405 90.9365 33.9405 90.9609 34.3536 90.8149C34.7408 90.6689 34.7667 90.7176 34.5343 91.1068C33.9147 92.1772 32.2365 93.2719 30.7907 93.4908C29.8612 93.6611 29.8096 93.6368 30.0678 93.1746C30.5067 92.4448 30.4034 92.2988 29.8354 92.7854C29.4223 93.1503 29.2674 93.1503 28.9318 92.907C28.1314 92.2988 28.5187 91.2041 29.8354 90.377C30.171 90.1581 30.3518 89.9878 30.1969 89.9878C30.042 89.9878 29.474 90.3527 28.9318 90.7906C28.2605 91.3501 27.9765 91.788 27.9765 92.2502C27.9765 92.907 27.9507 92.907 27.486 92.5178C26.4274 91.6177 27.486 89.5013 28.8285 89.8175C29.3965 89.9635 30.0936 89.6472 30.0936 89.2823C30.0936 89.185 29.7063 89.1364 29.2674 89.2093C28.6736 89.2823 28.4929 89.2337 28.6736 89.0634C29.0351 88.6985 30.0161 88.5525 31.7201 88.6255C33.0368 88.6741 33.295 88.7715 33.863 89.4039ZM44.4742 90.2554C47.0044 90.596 47.3658 90.7663 46.5655 91.2528C45.8426 91.6907 42.8993 92.4205 41.0663 92.5907C40.0593 92.688 39.6721 92.6394 39.4139 92.3232C39.1041 91.9826 39.2074 91.9583 40.5757 92.0799C41.4277 92.1529 42.4604 92.1042 42.8735 91.9583L43.6481 91.7393L42.7702 91.715C41.4019 91.6663 38.8717 90.9852 38.2779 90.45C37.7357 89.9878 37.7615 89.9878 40.0852 89.9878C41.4019 89.9878 43.3641 90.1094 44.4742 90.2554ZM21.8318 91.5934C21.8318 91.788 21.9609 91.9339 22.1158 91.9339C22.2966 91.9339 22.2449 92.1529 21.9867 92.4691C21.7544 92.7854 21.3929 93.3449 21.2122 93.7584L20.8507 94.4882L20.5409 93.7828C20.386 93.3692 20.1795 93.1746 20.0504 93.2962C19.7148 93.6368 19.4566 96.6047 19.7664 96.4344C19.9213 96.3614 20.0246 96.1425 20.0246 95.9722C20.0246 95.8019 20.1795 95.4613 20.386 95.218C20.67 94.8288 20.7217 95.0721 20.6958 97.0669C20.67 98.8914 20.7733 99.5239 21.1606 100.205C21.4446 100.716 21.6769 101.64 21.7286 102.638C21.7544 103.513 21.7286 103.878 21.6769 103.489C21.238 101.056 19.9471 97.748 19.5598 98.1129C19.4824 98.2102 19.0951 97.9669 18.7078 97.6264C18.1657 97.1398 18.0366 96.8723 18.2173 96.556C18.3464 96.3371 18.5271 95.4126 18.6304 94.5126C18.7337 93.6368 18.9144 92.907 19.0177 92.907C19.1468 92.907 19.2758 93.053 19.3017 93.1989C19.3017 93.3692 19.4049 93.0286 19.4824 92.4205C19.6115 91.496 19.7148 91.3501 20.1537 91.3987C20.4377 91.4474 20.7217 91.5934 20.7475 91.715C20.9282 92.1772 21.3413 91.9096 21.1864 91.4474C21.0573 91.0825 21.1089 91.0095 21.4187 91.1068C21.6511 91.1798 21.8318 91.3987 21.8318 91.5934ZM39.1557 94.1477C39.3881 94.5612 39.5946 94.6342 40.2659 94.5126C40.9113 94.3909 41.2212 94.4639 41.5826 94.8531C41.8408 95.1207 42.4604 95.5829 42.9251 95.8505C43.3899 96.1181 43.7771 96.4344 43.7771 96.5317C43.7771 96.8479 38.8459 98.2345 37.7099 98.2345C36.3416 98.2345 34.2245 97.5777 34.3794 97.2128C34.431 97.0425 34.2245 96.7993 33.9147 96.6776C33.5016 96.5074 33.295 96.1911 33.2434 95.6316C33.1401 94.6342 33.4758 94.6342 33.9663 95.6559C34.4052 96.556 35.8252 97.2858 37.4517 97.4804C38.6394 97.6021 41.2986 97.3101 40.7306 97.1155C40.4724 97.0182 40.4724 96.9209 40.7048 96.6533C40.9372 96.3857 40.7823 96.41 40.2143 96.7263C39.4397 97.1398 39.3623 97.1398 37.9681 96.6776C37.1419 96.4344 36.0834 95.8992 35.5928 95.5343C34.7925 94.9504 34.7408 94.8531 35.1539 94.7072C35.4379 94.6342 35.8768 94.4639 36.1608 94.2936C36.5739 94.0747 37.5808 93.8314 38.6652 93.6611C38.7684 93.6611 38.975 93.8557 39.1557 94.1477ZM18.9144 99.0617C19.4308 99.7915 19.6115 100.4 19.6115 101.178V102.273L19.8955 101.324C20.3344 99.9131 20.6184 100.594 20.6958 103.295C20.7475 104.851 20.9024 105.727 21.1864 106.092C21.5995 106.652 21.6511 106.579 21.5995 105.557C21.5736 105.022 21.5995 104.997 21.8318 105.362C21.9867 105.606 22.09 106.457 22.0384 107.284L21.9609 108.768L20.7217 106.968C19.6115 105.411 19.4824 105.289 19.6373 106.043C19.8955 107.187 20.4635 108.33 21.2122 109.084C21.8835 109.765 22.4515 111.42 22.2449 112.076C22.1675 112.295 22.3224 113.414 22.6064 114.558C22.8645 115.701 23.0969 116.504 23.1227 116.382C23.1744 116.09 23.6133 117.501 23.8198 118.62C23.9231 119.253 23.8715 119.423 23.5358 119.423C23.2518 119.423 23.1227 119.642 23.1227 120.177C23.1227 120.566 23.0195 120.858 22.8904 120.785C22.7613 120.712 22.5805 119.35 22.4773 117.793C22.2966 114.85 21.806 112.295 21.2638 111.687C21.0831 111.493 20.7217 111.249 20.4118 111.152C20.102 111.03 19.4566 110.106 18.8111 108.914C17.8042 107.041 17.7009 106.627 17.4944 104.195L17.262 101.543L17.2362 105.07L17.1846 108.598L18.5271 110.909C20.7733 114.825 21.0573 115.409 21.2122 116.309C21.3413 117.039 21.2896 117.209 20.9024 117.282C20.4635 117.355 20.4118 117.623 20.386 119.91C20.3344 123.145 19.818 130.273 19.5598 131.149C19.2758 132.146 19.4566 121.71 19.7922 118.523C20.0504 115.823 19.9213 114.996 19.1984 114.533C19.0693 114.46 18.5013 113.147 17.9591 111.614C16.8748 108.695 16.5908 106.919 16.2551 101.178L16.1002 98.1372L16.9006 99.159C17.3395 99.7428 17.7009 100.302 17.7009 100.448C17.7009 100.57 17.9333 100.692 18.2173 100.692C19.3533 100.692 18.4755 98.8671 17.1588 98.4535C17.0039 98.4048 16.978 98.1859 17.0555 97.9426C17.3137 97.3588 18.0624 97.7967 18.9144 99.0617ZM42.1248 99.2319C42.0473 99.6698 42.2281 101.008 42.5895 102.467C42.9251 103.83 43.2866 105.703 43.3641 106.652L43.4931 108.354L42.5121 106.603C41.9699 105.63 41.1179 104.365 40.6532 103.805C39.0783 101.957 38.7943 100.91 39.5688 99.6942C40.0077 99.013 40.8597 98.5508 41.815 98.5265C42.2022 98.5021 42.2539 98.6238 42.1248 99.2319ZM38.9234 103.562C40.7564 105.168 42.3055 107.26 43.3124 109.449C44.2419 111.541 44.2419 111.93 43.3382 111.736C42.9251 111.639 42.383 111.371 42.0732 111.128C41.7892 110.86 41.3761 110.666 41.1695 110.666C39.9303 110.617 37.271 108.16 36.5481 106.36C35.851 104.559 35.9026 104.511 36.9354 105.97C38.0455 107.527 39.7754 109.109 40.5241 109.279C41.0146 109.401 40.9888 109.376 40.4208 109.011C38.6135 107.892 36.5997 104.997 37.3226 104.584C37.5034 104.487 37.555 104.268 37.4775 104.122C37.2194 103.732 37.6325 103.805 38.3554 104.268L39.0008 104.657L38.3554 104C38.0197 103.635 37.4259 103.222 37.0645 103.051C36.7288 102.881 36.3932 102.565 36.3416 102.346C36.1866 101.616 37.271 102.151 38.9234 103.562ZM30.1969 104.097C31.2554 104.487 31.7459 104.827 32.0299 105.338C32.2623 105.752 32.3139 106.043 32.159 106.043C32.0041 106.043 31.7718 105.752 31.6427 105.411C31.4878 105.07 31.2812 104.851 31.1521 104.949C31.023 105.022 30.8423 104.973 30.739 104.827C30.6616 104.705 30.1969 104.584 29.758 104.608C28.9576 104.608 28.9576 104.632 29.5514 104.851C29.9645 104.997 30.0936 105.168 29.9129 105.338C29.5514 105.679 28.4412 105.241 27.9249 104.535C27.5118 104 27.5118 104 27.5118 104.487C27.5118 105.192 28.3896 106.189 29.1383 106.384C29.474 106.457 30.1452 106.408 30.61 106.287C31.4878 106.043 32.6754 106.189 32.6754 106.53C32.6754 106.627 32.443 106.773 32.1332 106.846C31.8492 106.919 31.5394 107.211 31.4619 107.479C31.3845 107.795 31.1005 107.99 30.8165 107.99C30.171 107.99 27.7442 106.773 27.8991 106.53C27.9765 106.433 27.8474 106.214 27.6409 106.043C27.3827 105.824 27.2536 105.265 27.2536 104.17V102.613L27.9765 103.1C28.3896 103.367 29.3707 103.83 30.1969 104.097ZM34.8699 105.97C34.9732 106.481 35.3605 107.6 35.7477 108.476C36.5997 110.349 36.9612 111.712 37.1936 113.706C37.3485 115.166 37.3485 115.166 36.9095 114.436C35.3863 111.833 34.147 109.936 33.9405 109.936C33.7081 109.936 33.4758 109.498 33.0627 108.257C32.9078 107.795 32.9594 107.698 33.2692 107.819C33.5016 107.892 33.8114 107.795 33.9663 107.625C34.147 107.43 34.4052 107.333 34.5859 107.43C34.7408 107.503 34.6117 107.308 34.2761 106.968C33.8372 106.506 33.7339 106.189 33.863 105.703C34.0954 104.778 34.6634 104.924 34.8699 105.97ZM21.0573 129.762C20.2569 135.625 19.818 139.444 19.3791 144.115C19.1726 146.523 18.7337 151.291 18.398 154.697C18.0882 158.103 17.8817 161.776 17.9075 162.846C18.0108 165.182 17.5719 169.779 16.9522 172.942C16.6166 174.596 16.4617 176.713 16.4359 180.362C16.3842 184.984 16.3326 185.567 15.842 186.541C15.4806 187.246 15.2224 188.414 15.0933 189.946C14.8093 193.182 14.3188 195.882 14.0606 195.639C13.4926 195.104 13.5184 191.528 14.1122 188.389C14.577 185.762 14.7061 184.181 14.7577 179.145C14.7835 175.788 14.9384 171.92 15.0933 170.509C15.2482 169.098 15.4806 165.376 15.6355 162.238C15.7904 159.1 16.0228 156.035 16.1777 155.427C16.4617 154.21 18.0108 144.285 18.4238 141.074C19.0177 136.476 21.1864 125.797 21.4704 126.04C21.522 126.089 21.3413 127.767 21.0573 129.762Z" fill="black"/>
</svg>
