<svg width="297" height="247" viewBox="0 0 297 247" fill="none" xmlns="http://www.w3.org/2000/svg">
<path d="M295.142 1.87122C294.212 2.91612 293.232 4.00964 292.974 4.32555L292.509 4.88446L291.27 4.39845C290.005 3.88814 289.799 3.96104 290.444 4.76295C291.012 5.44337 290.909 5.58917 290.083 5.32187C289.05 4.98166 287.734 5.58917 287.734 6.43968C287.734 6.75558 287.837 7.07149 287.966 7.14439C288.095 7.24159 288.147 7.09579 288.07 6.8528C287.889 6.12378 288.844 5.51627 289.902 5.68637C291.038 5.88078 291.244 6.17238 291.477 7.679C291.735 9.47723 291.322 9.79314 288.921 9.67163C287.269 9.57443 287.063 9.50154 286.779 8.94263C286.521 8.48091 286.521 8.0435 286.753 6.9986C287.269 4.66576 286.779 4.42274 283.785 5.51627C282.159 6.09947 281.927 6.14809 280.843 5.88078C279.81 5.61346 279.578 5.63777 278.984 6.00227C278.442 6.34248 277.436 6.43968 273.796 6.58548C271.319 6.68269 269.202 6.70699 269.099 6.65839C268.712 6.41539 258.388 5.88078 256.633 5.97798C249.741 6.41539 244.321 6.92569 241.663 7.4117C239.959 7.7276 236.707 8.11641 234.436 8.23792C232.164 8.38371 227.493 8.74821 224.086 9.03983C218.227 9.52583 217.53 9.55014 212.729 9.23422C208.548 8.99123 207.541 8.84543 207.128 8.50522C206.096 7.5818 204.057 7.7276 203.721 8.72392C203.644 9.01553 203.618 9.30713 203.67 9.40433C203.747 9.52583 203.179 9.62303 202.405 9.62303C201.14 9.64734 200.882 9.76884 199.824 10.6922C198.662 11.7129 198.611 11.7129 197.165 11.5914C196.365 11.5185 194.739 11.5914 193.552 11.7372C191.848 11.9559 191.358 11.9559 191.255 11.7129C191.203 11.5671 190.997 11.4213 190.764 11.4213C190.558 11.4213 189.732 10.9839 188.958 10.4492C188.158 9.91464 187.435 9.55014 187.306 9.59874C187.203 9.67163 186.686 9.45293 186.144 9.11273C185.138 8.48091 183.537 8.28651 183.021 8.77252C182.583 9.18562 165.057 9.38004 161.134 9.01553C159.431 8.84543 154.139 8.67532 149.39 8.62672C144.641 8.57812 137.44 8.35942 133.388 8.16501C129.336 7.9463 123.606 7.65471 120.612 7.5332C117.644 7.38741 111.707 7.1201 107.448 6.92569C103.19 6.73129 97.2791 6.56119 94.2851 6.56119C90.4652 6.56119 88.9682 6.48828 89.2521 6.29388C89.536 6.12378 88.994 6.05087 87.3163 6.09947C83.9094 6.17238 82.2317 6.09947 82.3865 5.88078C82.5156 5.66208 78.8763 5.49197 75.0564 5.56487C73.5594 5.58917 68.8619 5.63777 64.6032 5.66208C60.3445 5.68637 57.4537 5.78357 58.1506 5.88078C58.8733 5.95367 57.0149 6.00227 54.0209 5.92938C48.0071 5.83217 45.1679 5.44337 49.6331 5.32187C51.0527 5.29756 49.246 5.17607 45.6325 5.07886C42.0191 4.98166 38.0959 4.78726 36.9344 4.66576C35.4374 4.49565 33.3984 4.51996 29.9656 4.76295C27.2297 4.93306 20.7771 5.07886 15.2279 5.10316C7.09761 5.10316 5.11021 5.17607 4.12942 5.46767C3.45835 5.68637 2.21945 5.92938 1.3677 6.05087C-0.0776779 6.24529 -0.103488 6.26958 0.928928 6.29388C1.57419 6.29388 1.98715 6.41539 1.88391 6.56119C1.80648 6.68269 2.14202 6.63409 2.63241 6.43968C3.14862 6.24529 3.76807 6.07518 4.05199 6.07518C4.3359 6.07518 4.72306 5.92938 4.90373 5.75928C5.13602 5.51627 5.67804 5.46767 6.91694 5.58917C7.84611 5.68637 9.34312 5.66208 10.2723 5.56487C11.2015 5.44337 15.3311 5.34616 19.435 5.34616C23.5646 5.34616 28.4944 5.22467 30.4044 5.10316C34.1211 4.83586 36.6505 4.95737 46.252 5.83217C49.2718 6.12378 53.3498 6.31818 56.1116 6.31818C59.2604 6.31818 60.8865 6.41539 61.0155 6.58548C61.1188 6.77989 62.1512 6.80418 64.3193 6.68269C68.3973 6.46399 73.5594 6.80418 86.6711 8.14072C88.7359 8.35942 94.1303 8.67532 98.6729 8.84543C106.313 9.16133 107.087 9.23422 109.126 9.81744C112.92 10.9353 116.25 11.4456 120.354 11.5914C123.967 11.7129 124.303 11.7615 125.516 12.3933C126.6 12.9522 127.219 13.0737 129.387 13.1952C132.02 13.341 139.298 14.1186 142.525 14.6046L144.306 14.8719L143.48 15.2121C141.363 16.0383 138.06 18.4198 138.034 19.0759C138.034 19.1974 138.318 18.9787 138.679 18.5413C139.428 17.6665 140.615 17.1805 143.738 16.5C146.112 15.9654 147.222 15.9168 148.306 16.3056C149.029 16.573 149.907 17.2048 149.907 17.4721C149.907 17.5693 149.339 17.8852 148.616 18.2011C147.919 18.517 147.326 18.9058 147.326 19.0759C147.326 19.246 146.99 19.5133 146.577 19.6591C145.751 19.9993 144.048 21.5545 144.28 21.7732C144.383 21.8461 144.641 21.6274 144.899 21.2629C145.467 20.4367 147.713 19.3918 150.036 18.8572C151.042 18.6142 152.281 18.3226 152.797 18.1768C153.623 17.9338 154.062 17.9824 155.585 18.4927C156.566 18.8086 157.392 19.1488 157.392 19.246C157.392 19.3432 156.72 19.7563 155.92 20.1694C155.094 20.5825 154.139 21.1171 153.778 21.3844C153.159 21.8461 153.184 21.8461 154.656 21.3601C155.482 21.0928 156.875 20.7283 157.753 20.5825C159.172 20.2909 159.456 20.3152 160.902 20.8012C161.779 21.0928 162.734 21.4816 163.018 21.676C163.534 22.0162 163.534 22.0162 162.838 22.3078C162.476 22.4536 161.65 23.0368 161.031 23.5715C160.437 24.1061 159.766 24.5435 159.585 24.5435C159.147 24.5435 157.908 25.9286 157.908 26.4146C157.908 26.7062 158.088 26.6576 158.76 26.1959C159.198 25.8557 160.463 25.1753 161.521 24.665C163.431 23.7659 163.457 23.7659 166.038 23.8631C167.458 23.936 168.851 24.0818 169.109 24.2276C169.497 24.422 169.316 24.5921 167.793 25.3454C165.754 26.3417 162.476 28.8447 162.347 29.5007C162.27 29.8653 162.45 29.7924 163.251 29.1848C164.618 28.1642 166.709 27.4352 168.8 27.2408C169.755 27.1679 170.684 26.9492 170.865 26.7791C171.716 25.9772 173.317 26.9006 173.084 28.067C173.007 28.4072 173.058 28.6745 173.162 28.6745C173.471 28.6745 173.446 30.1083 173.162 31.3962C173.033 31.9794 172.8 32.9271 172.646 33.5346C172.516 34.1421 172.439 34.6767 172.516 34.7253C172.568 34.7739 172.904 34.5795 173.265 34.2636L173.884 33.7047L173.755 35.746C173.497 39.0022 174.788 43.4735 176.465 45.1745C176.827 45.5633 177.291 46.0979 177.446 46.3895C177.808 46.9484 178.453 51.3711 178.814 55.7695L179.046 58.6855L178.917 55.2835C178.788 52.0029 178.453 48.0905 178.143 46.4867C178.014 45.8063 178.092 45.6848 178.788 45.3446C180.001 44.7371 180.647 43.3034 180.956 40.3873C181.215 38.1517 181.318 37.8115 181.834 37.4956C182.17 37.2769 182.505 37.1797 182.608 37.2526C182.789 37.447 182.17 39.6826 180.982 42.9632C179.924 45.9035 179.898 46.7297 180.931 45.2717C181.318 44.7128 182.118 43.9109 182.712 43.4735C183.305 43.0118 184.415 42.1127 185.189 41.4565C185.938 40.8004 186.635 40.3387 186.712 40.4116C186.893 40.5817 186.144 44.6399 185.654 46.0979C185.267 47.2157 185.37 47.3615 186.067 46.754C186.48 46.4138 186.506 46.4624 186.686 47.6774C186.996 50.0589 188.158 55.2835 188.648 56.5228C189.267 58.078 190.48 59.6575 191.152 59.8276C191.642 59.9491 193.397 59.3416 193.165 59.1229C193.113 59.0743 192.829 59.1472 192.52 59.3173C190.351 60.6053 187.977 55.3321 187.435 48.0419L187.28 45.539L189.293 44.2268C191.642 42.7445 194.559 40.5331 195.823 39.2695C196.881 38.2246 197.32 38.176 197.553 39.0265C197.836 40.0471 197.423 41.9911 196.469 44.1539C195.978 45.296 195.617 46.268 195.668 46.3409C195.746 46.3895 196.365 46.0493 197.062 45.539L198.301 44.6399L198.378 47.1185C198.43 49.4028 198.249 51.1524 197.811 52.3674C197.682 52.6833 197.759 52.659 198.017 52.2459C198.224 51.9057 198.404 51.4197 198.43 51.1767C198.43 50.1318 198.74 51.1281 199.101 53.4852C199.333 54.8947 199.592 59.0014 199.695 62.8166L199.901 69.6207L199.927 63.6671C199.979 59.05 199.85 56.8144 199.463 53.7039C199.179 51.4926 198.946 48.771 198.946 47.6531C198.946 45.8792 198.998 45.6605 199.333 45.9278C199.592 46.1222 199.746 46.754 199.772 47.8475C199.798 48.8439 199.85 49.0869 199.901 48.4794C200.159 45.5633 200.547 44.2268 201.218 43.7408C201.76 43.3763 201.785 43.2791 201.398 43.4006L200.882 43.5464L201.398 43.1333C201.682 42.9146 202.198 42.6959 202.56 42.5987C202.921 42.5258 203.824 42.137 204.547 41.7482C205.296 41.3593 206.018 41.092 206.147 41.1649C206.612 41.4565 206.999 43.5221 206.896 45.2474C206.818 46.4138 206.56 47.5559 206.122 48.5766L205.425 50.1318L206.483 49.1841C207.077 48.6738 207.825 47.9691 208.161 47.6288L208.78 47.0213L208.599 47.8718C208.393 48.8925 207.36 50.3505 205.993 51.5412C203.489 53.7525 202.508 53.9955 201.424 52.659C200.65 51.7599 200.547 51.9543 201.192 52.9992C201.708 53.8011 202.457 54.0685 203.541 53.8254C204.263 53.6796 206.715 51.4197 208.006 49.743C208.677 48.8682 208.728 48.8439 208.987 49.3056C209.141 49.5729 209.27 50.7393 209.296 51.93C209.296 53.0964 209.4 54.5545 209.503 55.162C209.658 55.9882 209.735 55.4293 209.761 52.9506C209.787 50.2776 209.709 49.5729 209.4 49.3299C208.935 48.9654 208.883 48.1149 209.348 48.1149C209.529 48.1149 209.812 48.2364 209.993 48.4065C210.225 48.6252 210.303 48.6252 210.303 48.3336C210.303 48.1391 210.174 47.8475 210.019 47.7018C209.425 47.1428 210.071 46.1951 211.697 45.2474C214.639 43.4978 214.381 43.3763 214.252 46.3652C214.174 48.7953 214.02 49.743 213.529 50.8851C213.4 51.1281 213.891 50.7636 214.562 50.0832C216.136 48.5037 218.82 46.6811 220.059 46.3652C220.575 46.2194 221.35 45.9035 221.737 45.6362C222.15 45.3689 222.511 45.1988 222.589 45.2717C222.666 45.3203 222.847 46.1222 222.976 47.0213C223.26 48.6009 223.234 48.6738 222.46 49.8402C222.047 50.4963 221.763 51.0309 221.866 51.0309C221.969 51.0309 222.718 50.3262 223.544 49.4514C224.37 48.5766 225.17 47.8718 225.325 47.8718C225.479 47.8718 225.531 48.1878 225.454 48.6495C225.247 49.8888 225.737 53.5581 226.434 56.377C227.209 59.3902 229.454 66.6075 229.583 66.4859C229.635 66.4373 229.274 64.9793 228.757 63.2054C226.718 56.1583 225.867 51.0552 226.202 48.2364C226.357 47.0213 226.409 46.9484 227.699 46.3166C228.422 45.9521 228.809 45.7091 228.577 45.782C228.319 45.8549 228.112 45.8549 228.112 45.8063C228.112 45.539 231.261 42.0397 232.009 41.4323C232.474 41.092 232.913 40.8976 233.016 40.9948C233.3 41.2621 233.79 44.1782 233.79 45.4661C233.79 46.0493 233.481 47.1914 233.145 47.9933C232.784 48.7953 232.5 49.4757 232.5 49.4757C232.5 49.5 233.584 48.5523 234.9 47.3615C236.191 46.1708 237.352 45.1988 237.481 45.1988C237.584 45.1988 237.662 45.5876 237.662 46.0493C237.662 47.2643 238.565 51.444 239.34 53.8983C240.656 57.9565 243.108 61.8446 246.463 65.1494L248.296 66.9476L246.721 65.2709C244.579 62.9867 242.179 59.6575 241.017 57.2761C238.849 52.902 237.843 46.8998 238.823 44.1782C239.262 43.0361 242.127 39.9742 242.566 40.2172C243.108 40.5331 243.392 42.3557 243.108 43.8137C242.953 44.6399 242.876 45.3203 242.927 45.3932C242.979 45.4418 243.418 44.8586 243.882 44.1296C244.734 42.7931 245.121 42.4772 245.173 43.0604C245.199 43.2305 245.25 43.6922 245.276 44.1053C245.328 44.4941 245.431 45.539 245.534 46.4138C245.715 48.285 246.696 51.1524 247.599 52.4889C248.76 54.2142 250.541 54.6273 251.419 53.3637C251.832 52.8048 251.806 52.8048 251.212 53.0721C250.877 53.2179 250.67 53.4123 250.722 53.4852C250.98 53.8983 250.051 53.874 249.328 53.4609C247.986 52.6833 247.005 50.229 246.179 45.4904C246.024 44.6399 246.05 43.8137 246.257 42.9875C246.541 41.9183 246.644 41.7724 247.16 41.8696C247.883 41.9911 247.909 41.651 247.212 41.3107C246.928 41.1649 246.747 40.9219 246.85 40.8004C246.954 40.6546 247.212 40.7275 247.547 40.9948L248.115 41.4323L247.599 40.8733L247.083 40.2901L248.038 39.4639C249.509 38.2003 250.051 38.3461 251.032 40.2172C251.961 41.9911 252.064 43.2305 251.496 45.0287C251.083 46.3652 251.238 46.4624 252.038 45.4175L252.58 44.6642L252.761 45.8063C252.864 46.4381 252.89 47.6774 252.813 48.5523C252.735 49.5729 252.761 49.9131 252.89 49.4514C252.993 49.0383 253.097 47.6531 253.122 46.3652C253.148 44.2997 253.226 43.9352 253.742 43.3277C254.077 42.9632 254.619 42.1856 254.955 41.6023C255.29 41.0434 255.652 40.5817 255.781 40.5817C256.039 40.5817 256.039 40.6546 255.755 41.3593C255.626 41.6752 255.342 44.81 255.11 48.3578C254.723 54.0685 254.155 59.4631 253.742 61.2371C253.664 61.5773 253.664 61.7717 253.768 61.6988C254.077 61.4315 255.213 55.1377 255.213 53.7282C255.213 52.0272 256.245 41.7238 256.426 41.5537C256.503 41.4809 256.633 41.578 256.684 41.7238C256.762 41.894 257.304 42.6473 257.949 43.4249C259.059 44.7614 259.446 45.6362 259.833 47.726L260.014 48.7224L260.323 47.5073C260.504 46.8269 260.969 45.7334 261.33 45.053C261.795 44.2025 262.001 43.4249 262.001 42.6716C261.975 42.0641 262.027 41.5537 262.079 41.5537C262.233 41.5537 263.859 44.6885 264.376 46.025C265.047 47.6774 265.15 47.0942 264.531 45.2231L264.014 43.6922L264.685 44.2511C265.021 44.567 266.208 45.8792 267.292 47.1428C268.35 48.4065 269.641 49.8645 270.157 50.3505C270.854 51.0795 270.957 51.2739 270.622 51.2739C270.364 51.2739 269.796 51.1038 269.357 50.8851C268.557 50.4963 268.531 50.6664 269.305 51.5169C269.486 51.7113 269.718 52.1973 269.822 52.5861C269.977 53.1693 269.925 53.2665 269.512 53.145C269.228 53.0721 268.35 52.8291 267.55 52.6347L266.053 52.2216L266.028 51.0795C266.028 50.4477 265.924 49.7187 265.795 49.4514C265.64 49.1355 265.563 49.8402 265.563 51.444C265.537 54.5302 265.15 56.377 264.531 56.377C264.298 56.377 263.834 56.1826 263.498 55.9639C262.698 55.4536 263.059 56.0611 263.911 56.6929C264.531 57.1546 264.66 57.9322 264.272 58.5397C264.066 58.8313 263.911 58.8556 263.343 58.6126C262.982 58.4425 262.414 58.321 262.13 58.321C261.588 58.321 261.614 58.3696 262.337 59.0986C262.775 59.536 263.395 60.338 263.73 60.8726C264.066 61.4072 264.582 62.1119 264.866 62.4278C265.434 63.0353 265.305 63.0353 263.937 62.4035C263.524 62.2334 263.214 61.9175 263.188 61.7231C263.188 61.4801 263.137 61.4558 263.034 61.6502C262.956 61.8689 262.569 61.9175 261.846 61.8203C261.253 61.7474 260.349 61.6502 259.859 61.5773C259.033 61.4801 259.007 61.5044 259.497 61.7717C259.807 61.9418 260.607 62.6465 261.253 63.3512C261.924 64.0559 262.853 64.8578 263.343 65.1251C263.834 65.4167 264.247 65.7326 264.247 65.8541C264.247 65.9513 263.421 66.1214 262.44 66.1943C261.433 66.2915 260.194 66.5102 259.678 66.6803C258.594 67.0206 258.543 66.9963 261.433 68.3085C262.517 68.8188 263.498 69.3291 263.576 69.4749C263.859 69.888 261.124 70.4955 258.904 70.5198C257.794 70.5198 256.529 70.6656 256.116 70.8357C255.419 71.1273 255.394 71.1516 255.936 71.1759C256.658 71.2002 258.052 71.8563 259.652 72.9498C260.84 73.7518 260.865 73.7761 260.298 74.1163C258.491 75.1855 255.832 76.279 254.645 76.4248L253.277 76.6192L254.387 77.0566C254.981 77.2996 255.471 77.5669 255.471 77.6641C255.471 77.7613 253.871 77.7856 251.935 77.7127C249.277 77.6155 248.631 77.6398 249.406 77.8099C250.464 78.0529 253.019 79.7783 255.342 81.7709L256.633 82.8887L254.955 82.7429C254.026 82.6457 252.477 82.3298 251.47 82.0139C250.49 81.698 248.967 81.3821 248.115 81.2849L246.566 81.0905L247.96 82.2812C248.709 82.9373 250.335 83.9822 251.574 84.614L253.793 85.7805H252.219C251.341 85.7805 250.128 85.8534 249.483 85.9263L248.322 86.0721L249.973 86.8983C251.548 87.6759 253.355 88.8909 253.38 89.2068C253.406 89.304 252.658 89.4498 251.78 89.5227C250.232 89.6928 248.167 90.4218 247.134 91.1508C246.747 91.4668 246.799 91.491 247.78 91.5154C248.399 91.5154 249.638 91.8313 250.567 92.1958C252.142 92.8276 254.103 93.508 254.929 93.7267C255.161 93.7753 254.748 94.1641 253.897 94.6987C251.367 96.3025 247.625 99.656 249.844 98.3438C250.645 97.882 251.78 97.639 252.374 97.8091C252.787 97.9306 252.813 98.0764 252.632 98.5625C252.4 99.0971 252.374 108.72 252.58 108.501C252.632 108.453 252.761 106.484 252.89 104.079C252.993 101.697 253.174 99.4373 253.277 99.0728C253.509 98.2709 254.051 98.3438 254.051 99.17C254.051 99.4859 254.155 99.899 254.258 100.069C254.387 100.239 254.284 101.138 254.051 102.135C253.819 103.082 253.458 105.221 253.277 106.825C253.071 108.453 252.735 110.202 252.477 110.713C252.245 111.247 252.012 112.316 251.961 113.118C251.806 115.767 249.767 120.676 247.367 124.175C246.283 125.73 246.102 125.876 245.715 125.584C245.302 125.293 245.302 125.317 245.663 125.73C246.024 126.143 246.05 126.143 246.721 125.439C248.476 123.592 251.161 118.27 252.038 114.965C252.554 112.997 252.606 112.9 253.948 112.535C254.516 112.365 255.884 111.855 256.942 111.393C258.026 110.931 258.981 110.567 259.085 110.567C259.214 110.567 259.188 110.98 259.033 111.466C258.388 113.677 258.697 115.889 260.169 119.509C260.865 121.21 261.124 121.283 260.84 119.728C260.582 118.221 260.788 116.423 261.304 115.889C261.511 115.694 261.691 115.184 261.717 114.795C261.743 114.406 262.079 113.726 262.491 113.288C263.188 112.535 263.214 112.511 263.343 113.045C263.576 113.969 263.601 116.861 263.421 119.679L263.214 122.353L263.859 121.138C264.221 120.457 264.505 119.777 264.505 119.582C264.505 119.412 265.098 118.44 265.795 117.468C266.518 116.496 267.086 115.573 267.086 115.427C267.086 115.281 267.189 115.208 267.318 115.281C267.421 115.354 267.602 116.034 267.679 116.812C267.757 117.59 268.092 118.756 268.428 119.436C268.944 120.481 269.022 121.04 269.022 123.495C269.022 125.05 269.047 126.314 269.073 126.289C269.073 126.265 269.46 125.341 269.925 124.224C270.364 123.13 270.854 122.231 270.957 122.231C271.293 122.231 271.861 123.325 272.351 124.88C272.764 126.192 272.764 126.192 271.938 128.282C271.474 129.424 270.802 130.76 270.415 131.246L269.693 132.121L271.035 131.927C271.783 131.83 272.583 131.684 272.816 131.587C273.28 131.417 273.28 131.319 273.822 135.159C274.132 137.2 274.106 137.297 273.461 138.804C272.661 140.578 272.454 141.89 272.712 143.251L272.919 144.223L273.409 143.421C273.693 143.008 273.977 142.643 274.055 142.668C274.132 142.668 274.468 143.008 274.829 143.445C275.474 144.199 275.474 144.247 275.422 148.597C275.397 151.392 275.242 153.506 275.01 154.429C274.648 155.863 274.7 160.14 275.061 160.14C275.164 160.14 275.371 159.508 275.552 158.73C275.732 157.953 276.042 157.102 276.248 156.835C276.61 156.422 276.636 156.616 276.481 159.168C276.352 161.5 276.429 162.4 276.894 164.635C277.694 168.523 278.365 171.099 278.855 172.168C279.139 172.849 279.294 174.185 279.397 177.004C279.526 180.916 279.294 181.937 278.959 179.045C278.778 177.563 278.778 177.563 278.726 178.681C278.726 179.313 278.881 180.236 279.088 180.722C279.346 181.281 279.475 182.399 279.475 183.881C279.475 185.558 279.578 186.311 279.888 186.749C280.172 187.137 280.378 188.255 280.507 189.956C280.636 191.414 280.972 193.674 281.256 195.011C281.978 198.17 282.778 204.196 283.037 208.011L283.217 211.049L283.372 209.226L283.501 207.404L283.553 209.275C283.579 210.32 283.501 211.17 283.398 211.17C283.269 211.17 283.217 211.462 283.269 211.827C283.32 212.215 283.475 214.743 283.63 217.489C283.759 220.235 283.992 224.609 284.121 227.209C284.275 229.809 284.353 235.495 284.275 239.845C284.224 244.559 284.25 247.159 284.379 246.285C284.508 245.483 284.688 241.959 284.792 238.435C284.895 234.936 285.024 232.093 285.076 232.142C285.282 232.336 285.927 239.918 285.953 242.518L286.005 245.313L286.263 243.368C286.444 242.056 286.444 239.578 286.263 235.714C286.005 229.663 286.185 221.328 286.65 218.704C286.831 217.829 287.063 215.253 287.218 212.993C287.373 210.709 287.657 206.942 287.863 204.609C288.405 198.461 288.818 185.558 288.586 182.131C288.483 180.528 288.457 177.344 288.586 175.084C288.689 172.8 288.818 162.813 288.87 152.85C288.896 142.886 289.025 134.551 289.154 134.308C289.334 133.895 288.921 132.17 288.483 131.587C288.379 131.441 287.941 130.347 287.502 129.157C286.495 126.484 286.005 123.568 286.469 123.057C286.624 122.863 286.857 122.353 286.934 121.939C287.14 121.016 288.379 120.19 288.741 120.724C288.844 120.895 288.896 121.308 288.844 121.599C288.766 121.915 288.844 122.255 288.999 122.328C289.179 122.45 289.283 122.061 289.283 121.162C289.283 120.433 289.412 119.534 289.567 119.145C289.721 118.78 289.825 117.784 289.825 116.958C289.825 116.107 289.98 114.99 290.186 114.431C290.728 113.021 290.676 112.948 289.928 114.188C289.567 114.747 289.283 115.5 289.283 115.791C289.283 116.35 288.637 119.266 288.354 120.044C288.25 120.36 288.199 120.36 287.992 120.044C287.786 119.728 287.631 119.752 286.831 120.166C285.798 120.676 285.153 121.624 285.153 122.62C285.153 123.64 287.115 130.031 288.121 132.316C288.534 133.191 288.534 134.867 288.405 151.756C288.328 161.914 288.095 174.428 287.889 179.58C287.657 184.732 287.476 191.293 287.476 194.16C287.476 199.749 287.244 202.422 286.444 206.043C286.16 207.307 285.927 208.716 285.902 209.202L285.876 210.077L285.669 209.226C285.566 208.765 285.385 206.456 285.282 204.123C285.205 201.791 284.947 199.117 284.766 198.17C284.559 197.246 284.353 195.715 284.301 194.792L284.224 193.091L284.74 193.771C285.101 194.209 285.282 194.841 285.308 195.57C285.334 196.201 285.463 197.368 285.592 198.17L285.85 199.628L285.902 198.413C285.927 197.732 286.108 196.979 286.314 196.736C286.624 196.347 286.65 195.4 286.521 191.025C286.263 183.905 286.263 183.249 286.624 178.365C286.805 176.032 286.986 171.439 287.037 168.159C287.089 164.878 287.089 162.691 287.037 163.299C286.986 163.906 286.779 165.461 286.573 166.774C286.34 168.183 286.185 170.71 286.185 172.97C286.185 175.546 286.031 177.806 285.695 179.944C285.437 181.67 285.205 182.812 285.179 182.447C285.153 182.083 284.972 180.892 284.74 179.823C284.353 178 284.353 177.83 284.74 177.417C285.101 177.053 285.153 176.469 285.127 174.137C285.101 172.095 285.024 171.318 284.817 171.391C284.482 171.488 284.482 172.533 284.766 174.137C284.921 174.987 284.843 175.352 284.25 176.397L283.527 177.612L284.224 182.399C284.585 185.048 285.024 187.332 285.179 187.502C285.334 187.672 285.643 187.745 285.85 187.672C286.211 187.55 286.237 187.721 286.108 188.96C286.031 189.738 285.876 191.147 285.772 192.07C285.566 194.039 285.334 193.796 284.921 191.244C284.766 190.248 284.482 188.547 284.25 187.478C284.043 186.408 283.862 184.659 283.837 183.59C283.837 182.52 283.656 181.087 283.45 180.43C283.14 179.288 283.114 179.434 283.191 182.982C283.243 185.315 283.191 186.384 283.062 185.777C282.778 184.416 282.52 177.028 282.727 175.619C282.804 174.987 282.985 174.477 283.14 174.477C283.269 174.477 283.32 174.671 283.243 174.89C283.191 175.133 283.062 175.935 282.959 176.664L282.83 178L283.501 176.81L284.172 175.619L283.604 172.922C283.295 171.439 283.011 169.301 282.959 168.159L282.856 166.093L283.217 168.718C283.656 171.95 283.914 172.557 283.759 170.03C283.682 169.009 283.708 168.159 283.759 168.159C283.811 168.159 283.992 168.426 284.121 168.766C284.25 169.106 284.534 169.374 284.766 169.374C284.972 169.374 285.153 169.568 285.153 169.787C285.179 170.03 285.334 169.787 285.54 169.252C285.747 168.718 285.979 167.017 286.056 165.486C286.108 163.955 286.314 159.799 286.469 156.252C286.624 152.704 286.702 149.593 286.624 149.326C286.573 149.059 286.469 149.715 286.444 150.784L286.366 152.728L286.185 151.392C286.056 150.371 286.005 150.784 285.953 153.214C285.876 159.095 285.437 164.83 284.947 166.555L284.482 168.232L283.992 167.527C283.553 166.944 283.45 166.239 283.32 163.177C283.243 161.16 282.959 158.39 282.727 156.981C282.469 155.523 282.236 152.509 282.185 149.933C282.133 147.455 281.901 143.98 281.669 142.206C281.462 140.432 281.333 138.853 281.411 138.731C281.514 138.609 281.565 133.847 281.565 128.136V117.784L282.185 117.079C282.985 116.18 282.985 115.889 282.211 114.99C281.565 114.309 281.565 114.285 281.901 112.365C282.52 108.939 282.598 108.234 282.314 108.623C282.185 108.817 282.056 109.133 282.056 109.303C282.056 109.473 281.643 110.591 281.152 111.782C280.662 112.973 280.249 114.115 280.249 114.309C280.249 114.504 280.533 114.99 280.868 115.354L281.514 116.059L280.998 116.788C280.688 117.201 280.559 117.711 280.636 118.051C280.739 118.416 280.662 118.562 280.456 118.537C280.223 118.489 280.146 118.78 280.197 119.582C280.249 120.433 280.172 120.749 279.862 120.846C279.449 121.016 279.268 122.96 279.681 122.96C279.965 122.96 280.456 134.357 280.326 137.224C280.249 138.561 280.378 140.602 280.61 142.327C280.843 143.907 281.152 147.212 281.281 149.666C281.436 152.121 281.669 154.842 281.798 155.741C282.133 157.904 282.314 162.91 282.082 163.274C281.953 163.444 281.798 161.962 281.72 159.97C281.643 158.001 281.462 155.547 281.307 154.551C281.178 153.554 280.817 149.933 280.507 146.531C280.197 143.129 279.836 139.679 279.707 138.877C279.552 138.075 279.449 134.794 279.449 131.587C279.449 128.379 279.346 124.224 279.217 122.377L278.984 118.999L279.733 118.173C280.688 117.152 280.791 115.597 279.991 114.625C279.501 114.066 279.501 113.945 279.862 112.973C280.765 110.591 281.281 107.238 281.281 103.884C281.281 101.722 281.436 99.9962 281.694 98.8541C282.082 97.2502 282.082 97.0558 281.643 95.7679C281.411 95.0146 280.972 93.9211 280.688 93.3379C279.81 91.5396 279.862 90.3732 280.894 86.7525C281.978 83.0345 282.314 82.3541 283.992 80.3129C285.85 78.1015 285.876 78.0043 285.902 74.3593C285.927 71.3946 286.005 70.9572 286.573 69.8394C287.321 68.4057 287.373 67.8225 286.831 67.1664C286.444 66.7289 286.444 66.7289 286.598 67.3851C286.702 67.7739 286.624 68.2599 286.392 68.6001C285.85 69.4263 285.179 73.3144 285.024 76.6678C284.972 77.8828 284.766 78.3688 283.708 79.5839C282.598 80.8961 281.849 82.3541 280.998 84.8084C280.61 85.9506 280.043 87.5301 279.733 88.332C279.268 89.5227 279.191 90.0816 279.32 91.3695C279.939 97.5661 279.733 98.6354 278.726 94.6501C278.158 92.4388 278.133 90.1788 278.649 89.2554C278.984 88.6965 279.733 86.2665 279.604 86.2665C279.552 86.2665 279.32 86.5581 279.113 86.9226C278.494 88.0161 278.649 87.1656 279.449 85.0757C280.378 82.6943 283.94 76.3033 284.327 76.3033C284.43 76.3033 284.534 74.9668 284.559 73.3387C284.611 71.7105 284.74 70.3254 284.843 70.2525C284.972 70.1796 285.076 69.6936 285.101 69.2076C285.153 68.0412 285.695 67.0206 286.547 66.6075C287.579 66.0728 287.837 64.2989 287.115 62.8895C286.598 61.9661 286.598 61.9418 287.089 62.1119C287.553 62.282 288.302 61.7717 288.095 61.4315C288.018 61.31 287.811 61.31 287.605 61.4801C287.14 61.8446 286.521 61.553 285.927 60.6295C285.385 59.8033 284.301 58.807 284.766 59.536C284.869 59.7304 284.482 59.3416 283.862 58.6855C282.288 56.9845 279.32 54.1899 279.088 54.1899C278.984 54.1899 279.475 54.7732 280.146 55.4779C281.849 57.2275 284.146 60.1192 285.024 61.6016L285.747 62.8166L284.792 61.9661C284.25 61.5044 283.191 60.338 282.443 59.3902C281.694 58.4425 280.585 57.2761 279.965 56.8387C278.933 56.0368 278.494 55.648 277.023 54.0685C276.429 53.4123 276.429 53.4609 277.178 54.6273C277.616 55.3564 278.21 56.0611 278.494 56.2069C278.752 56.377 279.862 57.592 280.92 58.9285C281.978 60.265 283.295 61.8446 283.862 62.4521C284.74 63.3755 284.947 63.497 285.359 63.2783C285.772 63.0353 285.876 63.0839 286.108 63.6671C286.366 64.2989 286.34 64.3475 285.643 64.4447C285.076 64.5176 284.869 64.4447 284.74 64.1045C284.559 63.5213 282.52 61.2128 279.836 58.564C277.694 56.4013 275.268 53.4852 272.661 49.7673C271.835 48.6009 270.08 46.5353 268.738 45.1502C267.421 43.7651 264.789 40.6303 262.93 38.1517C261.046 35.673 259.136 33.1944 258.672 32.6598C258.181 32.1009 256.813 30.084 255.574 28.1642C254.361 26.2445 252.942 24.2762 252.425 23.8145C251.883 23.3528 251.212 22.6237 250.928 22.2349C250.438 21.6274 250.283 21.5545 249.896 21.7732C249.457 22.0162 249.044 21.7246 246.541 19.4161L243.702 16.7917L242.411 16.8645C241.714 16.9375 241.069 16.9861 240.966 16.9861C240.862 17.0104 240.63 17.2534 240.475 17.545C240.243 18.0067 240.243 18.0553 240.527 17.788C241.069 17.3263 241.327 17.4478 240.991 18.031C240.733 18.517 240.733 18.5413 241.043 18.2983C241.25 18.1525 241.817 17.9581 242.308 17.8609C243.185 17.7151 243.289 17.7637 244.631 19.1974C245.379 20.0236 247.625 22.2592 249.586 24.1547C251.574 26.0258 253.871 28.4072 254.697 29.4035C255.523 30.3999 257.252 32.4897 258.543 34.0206C259.833 35.5515 261.666 37.8601 262.621 39.1237C263.601 40.4602 265.615 42.5987 267.395 44.2511C269.512 46.2194 270.493 47.2643 270.596 47.7746C270.751 48.528 271.835 49.986 274.7 53.2908C278.262 57.3976 281.798 61.8932 283.475 64.3961C283.914 65.0279 284.508 65.9027 284.792 66.3158C285.385 67.1664 285.359 67.9197 284.714 68.1627C284.224 68.3328 284.353 68.5029 283.217 66.3644C282.701 65.3681 281.256 63.2054 280.043 61.5287C278.804 59.8276 277.565 58.1023 277.281 57.6649C276.997 57.2518 275.5 55.3807 273.926 53.5581C272.377 51.7113 269.589 48.4551 267.757 46.3166C265.924 44.1539 263.085 40.606 261.407 38.3947C258.904 35.0655 256.839 32.7084 255.161 31.2261C255.006 31.0803 254.439 30.5457 253.871 30.0111C253.303 29.4765 252.735 29.0633 252.606 29.0876C252.374 29.1606 251.187 27.7754 251.264 27.5081C251.316 27.2894 249.535 25.7585 249.251 25.7585C249.122 25.7585 249.018 25.6127 248.993 25.4426C248.993 25.2968 248.27 24.5921 247.392 23.936C246.541 23.2556 245.844 22.5994 245.87 22.4779C245.921 22.1377 244.347 20.6554 243.908 20.6554C243.727 20.6554 243.624 20.5582 243.702 20.4367C243.779 20.3152 243.676 20.0965 243.469 19.9264C243.056 19.6105 242.979 19.6348 241.456 20.8984C241.043 21.2386 240.346 21.5545 239.907 21.6274C239.34 21.7246 239.081 21.8947 239.107 22.162C239.133 22.5751 238.746 22.8181 237.017 23.4257L235.984 23.8145L236.759 23.1826C237.507 22.5751 237.507 22.5751 236.888 22.7209C236.526 22.8181 236.01 23.1098 235.7 23.3528C234.926 24.0332 233.171 23.936 230.512 23.0854C229.274 22.6723 228.035 22.3564 227.777 22.3564C226.976 22.3564 227.389 23.1584 228.319 23.3771C228.757 23.4986 229.144 23.6687 229.144 23.7659C229.144 24.1304 227.647 24.7865 226.822 24.7865C225.996 24.7865 225.092 25.1267 224.628 25.637C224.344 25.9529 222.873 26.3903 221.376 26.609C220.704 26.7062 220.343 26.6333 220.111 26.366C219.93 26.1473 219.62 26.0258 219.466 26.0987C219.285 26.1473 218.588 25.6613 217.891 25.0052C216.42 23.5958 212.729 21.7732 210.561 21.3844C208.548 21.0199 203.824 21.5302 202.198 22.2835C201.811 22.4779 201.553 22.5265 201.631 22.3807C201.889 21.9919 201.372 22.0648 201.037 22.4536C200.185 23.4014 194.713 25.0295 193.526 24.665C193.242 24.5678 192.803 24.2519 192.597 23.9117C192.365 23.5958 192.003 23.3285 191.797 23.3285C191.384 23.3285 187.616 20.8741 187.616 20.5825C187.59 20.4853 187.796 20.4124 188.054 20.4124C188.416 20.4124 188.441 20.3638 188.106 20.1694C187.899 20.0479 187.409 19.9264 187.022 19.9264C186.428 19.9264 186.299 19.8292 186.299 19.3189C186.299 18.6385 186.996 18.4684 187.254 19.1002C187.357 19.3918 187.461 19.4161 187.59 19.1731C187.745 18.9544 188.106 19.1731 188.906 19.8778C189.964 20.8741 190.919 21.3358 190.119 20.461C189.887 20.2423 189.655 19.8292 189.551 19.5619C189.474 19.2946 188.803 18.4684 188.106 17.7637C187.383 17.0347 186.815 16.3542 186.815 16.257C186.815 15.771 184.957 15.8439 183.073 16.3785C180.285 17.1562 177.42 17.6179 176.827 17.3749C176.569 17.2534 176.311 17.1805 176.233 17.2048C172.465 17.7394 171.845 17.7637 171.2 17.3263C170.865 17.0833 170.606 16.7188 170.632 16.5244C170.71 15.9654 169.858 15.9411 169.652 16.5C169.522 16.8889 169.264 17.0104 168.645 17.0104C167.07 17.0104 164.773 16.4757 162.321 15.5523C160.953 15.042 159.431 14.556 158.94 14.4588C158.14 14.2887 158.088 14.313 158.398 14.6532C158.682 14.9934 158.605 15.0177 157.727 14.8962C157.185 14.8233 154.191 14.1915 151.068 13.4868C147.945 12.7821 145.106 12.126 144.744 12.0774C144.383 12.0045 145.441 11.9802 147.067 12.0288C148.926 12.1017 151.197 12.369 153.133 12.7578C154.836 13.098 156.927 13.4868 157.779 13.584C158.63 13.7055 161.186 14.2401 163.457 14.799C168.051 15.8925 168.697 15.9654 169.832 15.4065C170.606 15.0177 170.632 15.042 171.561 15.8925L172.491 16.743L174.272 16.4028C175.252 16.2084 176.388 15.7953 176.853 15.4794C178.195 14.4831 179.072 13.5597 179.072 13.098C179.072 12.7578 179.434 12.5634 180.569 12.2718C181.369 12.0531 182.17 11.8344 182.299 11.7858C182.583 11.6886 177.369 11.6157 174.297 11.6643C173.162 11.6886 172.052 11.8101 171.845 11.9316C171.587 12.0774 172.207 12.1503 173.652 12.126C177.601 12.0774 177.73 12.1017 178.195 12.7578C178.608 13.3653 178.608 13.4139 177.885 14.1186C176.878 15.1149 175.433 15.7953 173.91 15.9654C172.8 16.0869 172.646 16.0383 172.258 15.4794C172 15.1392 171.484 14.7504 171.071 14.5803C170.426 14.3373 170.194 14.3373 169.652 14.6775C169.316 14.8962 168.748 15.0663 168.413 15.0663C167.122 15.0663 163.251 14.313 160.902 13.6083C159.585 13.1952 158.114 12.8793 157.624 12.8793C157.133 12.855 156.049 12.7092 155.198 12.5148C154.346 12.3204 153.262 12.1503 152.823 12.1503C152.359 12.1503 151.971 12.0531 151.971 11.9316C151.971 11.8101 150.758 11.64 149.261 11.5428C147.455 11.4213 146.603 11.2998 146.732 11.1054C146.835 10.9353 145.648 10.9109 142.654 11.0811C140.331 11.2026 136.511 11.2755 134.162 11.2512C129.981 11.2269 129.929 11.2269 131.581 11.5428C134.988 12.2232 138.627 12.6363 140.95 12.6363C142.499 12.6363 143.531 12.7578 143.841 12.9522C144.357 13.2681 146.887 13.7055 149.777 13.9971C150.629 14.07 152.488 14.3859 153.907 14.7018C155.327 15.0177 157.392 15.3822 158.527 15.528C160.669 15.8196 160.85 15.8682 161.65 16.5486C161.934 16.7673 162.915 17.1562 163.818 17.3749C164.722 17.5936 166.27 18.1525 167.225 18.6142C168.206 19.0759 169.264 19.4404 169.626 19.4404C169.961 19.4404 170.374 19.5862 170.529 19.7806C170.684 19.975 171.174 20.2666 171.613 20.4124C172.284 20.6797 172.336 20.7769 172.026 21.0685C171.716 21.3601 171.432 21.2872 170.013 20.5582C169.109 20.0965 167.432 19.3675 166.296 18.9544C163.767 18.0553 157.263 16.3056 155.327 16.0383C153.752 15.8196 148.487 14.9205 143.247 13.9728C139.402 13.2924 134.678 12.7335 131.142 12.5391C129.387 12.4419 127.994 12.1746 125.98 11.5671C121.799 10.2791 121.025 10.1819 117.411 10.3277C114.546 10.4736 113.953 10.4249 112.352 9.96324C109.487 9.13702 102.57 7.80051 99.1891 7.436C96.8146 7.19299 96.4274 7.09579 97.5372 7.07149C99.0084 7.0472 101.254 7.2173 107.965 7.89771C111.372 8.23792 124.354 9.06413 126.032 9.06413C126.471 9.06413 128.561 9.20993 130.678 9.40433C132.82 9.57443 136.64 9.84174 139.195 9.96324C147.222 10.3763 149.545 10.5464 148.771 10.668C148.358 10.7652 149.907 10.8138 152.255 10.8381C154.578 10.8381 158.708 10.9353 161.392 11.0325C164.954 11.154 166.193 11.1297 165.909 10.9353C165.625 10.7409 168.232 10.6922 175.536 10.7409C183.486 10.8138 185.525 10.7652 185.525 10.5222C185.525 10.3035 185.68 10.2791 186.119 10.4249C186.428 10.5464 186.661 10.7652 186.635 10.9109C186.583 11.0568 186.686 11.1783 186.841 11.1783C186.996 11.1783 187.486 11.4456 187.899 11.7858C188.958 12.6363 189.371 12.2718 188.338 11.397C187.125 10.3763 187.616 10.5222 189.19 11.6643C191.152 13.0737 192.649 13.6812 194.378 13.8027C195.643 13.8999 196.107 13.8027 197.475 13.1709C198.378 12.7578 199.488 12.0288 199.979 11.5914C200.779 10.8624 201.089 10.7409 202.637 10.6194C204.16 10.4736 204.418 10.5222 204.676 10.9353C204.96 11.3241 205.192 11.3727 206.612 11.2512C207.877 11.1297 208.238 11.1783 208.238 11.4213C208.238 11.64 208.367 11.5914 208.599 11.2998C208.987 10.7895 210.432 10.7166 216.755 10.9596L220.756 11.1297L217.349 10.8381C215.465 10.668 213.839 10.4736 213.761 10.3763C213.555 10.2062 214.975 10.1576 221.401 10.1576C224.473 10.1576 224.989 10.109 223.595 9.96324L221.788 9.81744L223.466 9.76884C227.286 9.67163 232.732 9.16133 238.565 8.38371C241.972 7.92201 247.031 7.38741 249.793 7.1687C254.826 6.80418 263.395 6.73129 263.601 7.0472C263.653 7.14439 261.201 7.29019 258.104 7.3631C251.574 7.5332 244.863 8.09212 240.114 8.86972C236.294 9.50154 236.578 9.64734 240.553 9.11273C245.044 8.50522 250.593 8.01921 254.594 7.92201C258.955 7.7762 258.517 7.84911 248.502 8.74821C242.282 9.33144 241.017 9.55014 245.276 9.33144C253.561 8.91832 259.394 8.72392 265.795 8.60242C269.693 8.52951 273.306 8.38371 273.796 8.28651C274.648 8.11641 274.622 8.09212 273.1 7.92201C270.235 7.60611 270.931 7.2659 274.364 7.3145C278.184 7.3631 278.829 7.5332 276.765 7.9463L275.216 8.23792L276.765 8.09212C277.616 8.0435 278.442 7.87341 278.571 7.7762C278.726 7.679 279.526 7.3631 280.378 7.09579C281.23 6.82849 282.598 6.36679 283.398 6.09947C285.359 5.41907 286.444 5.41907 286.444 6.07518C286.444 6.60979 286.185 6.70699 285.747 6.29388C285.359 5.92938 284.895 6.22098 284.895 6.82849C284.895 8.06781 285.54 9.28284 286.444 9.72023C286.934 9.96324 287.631 10.4492 287.966 10.7895C288.508 11.3241 288.818 11.4213 290.057 11.4213C290.96 11.4213 291.709 11.2755 292.096 11.0082C292.664 10.6436 292.69 10.5222 292.535 8.82112C292.406 7.2659 292.432 7.02289 292.845 6.87709C293.077 6.80418 293.49 6.56119 293.774 6.34248C294.238 5.95367 294.264 6.05087 294.083 9.72023C293.98 11.7858 293.825 13.5597 293.748 13.6812C293.67 13.8027 293.103 14.0943 292.483 14.3373C291.864 14.6046 291.348 14.9691 291.348 15.1635C291.348 15.3336 291.141 15.7467 290.883 16.0383C290.496 16.5 290.444 16.7917 290.625 17.8366C290.728 18.517 290.754 19.2946 290.676 19.5619C290.573 19.9507 290.625 19.9264 290.909 19.4647C291.244 18.9544 291.296 19.1488 291.451 21.676C291.631 24.6893 291.502 29.6223 291.089 33.8991C289.799 47.6045 289.541 55.8424 290.16 63.4241C290.393 66.2915 290.625 69.6207 290.676 70.8357C290.728 72.0264 290.909 74.7481 291.064 76.8865C291.348 80.5559 291.348 80.7746 290.883 81.2606C289.825 82.3298 289.773 82.67 290.057 86.2908C290.393 90.2517 290.263 91.005 289.541 89.547C289.076 88.6236 289.076 88.5993 289.128 89.304C289.154 89.6928 289.283 90.2274 289.386 90.4704C289.644 91.005 289.179 92.1229 288.379 92.8276C287.424 93.6781 286.753 93.3379 285.437 91.3452C284.534 89.9844 284.353 89.4984 284.482 88.9152C284.559 88.4535 284.534 88.2348 284.379 88.332C284.224 88.4049 284.121 88.3077 284.121 88.1133C284.121 87.6516 285.101 86.9955 285.824 86.9955C286.547 86.9955 287.14 88.332 286.676 88.8666C286.34 89.2311 286.521 89.547 286.934 89.304C287.089 89.2311 287.218 88.7451 287.218 88.2348C287.218 87.2142 286.727 86.6553 285.643 86.388C285.101 86.2665 284.843 86.3637 284.275 86.9955C283.914 87.4086 283.604 88.0161 283.604 88.332C283.604 88.6236 284.172 89.9115 284.843 91.1508C286.289 93.7996 286.96 94.2613 288.199 93.4108C288.586 93.1192 289.179 92.536 289.489 92.0742L290.109 91.248L290.005 94.0669L289.928 96.8857L288.999 97.955C287.837 99.2915 287.399 100.045 287.708 100.215C287.811 100.288 287.76 100.92 287.579 101.624C287.373 102.329 287.218 103.107 287.218 103.35C287.218 103.933 288.457 106.193 288.766 106.193C288.921 106.193 289.025 106.509 289.025 106.897C289.025 107.311 289.257 107.991 289.515 108.428C290.212 109.546 290.909 111.903 290.728 112.559C290.625 112.924 290.702 112.851 290.96 112.389C291.373 111.563 291.502 109.959 291.089 110.567C290.831 110.98 290.857 111.029 290.341 109.036C290.186 108.38 289.851 107.456 289.618 106.97C289.386 106.484 289.179 105.901 289.154 105.658C289.128 105.439 288.87 104.905 288.586 104.443C287.786 103.228 287.657 101.892 288.224 100.725C288.483 100.191 288.844 99.3887 289.025 98.9513C289.67 97.396 289.825 97.882 289.696 101.138L289.567 104.37L289.876 100.944C290.16 97.7849 290.238 97.4689 290.909 96.7399C291.735 95.7922 291.735 95.8408 291.115 94.5043C290.676 93.5809 290.651 93.1678 290.831 91.491C290.96 90.4218 291.064 88.0161 291.064 86.1207C291.089 82.7672 291.115 82.6943 291.76 82.1111C292.251 81.698 292.38 81.3578 292.277 80.9204C291.76 78.5875 291.606 76.5949 291.296 68.4057C290.651 50.7636 290.831 45.0773 292.535 32.3196C293.18 27.338 293.335 24.179 292.896 23.936C292.741 23.8388 292.69 22.7939 292.793 21.19C292.948 18.3469 293.774 15.3093 294.342 15.3093C294.548 15.3093 294.703 15.0906 294.703 14.8476C294.703 14.5803 294.832 14.2887 294.961 14.2158C295.116 14.1429 295.219 13.3896 295.219 12.5634C295.245 11.7372 295.374 10.2791 295.503 9.35573C295.658 8.40802 295.813 7.14439 295.839 6.53688C295.89 5.92938 295.993 5.29756 296.097 5.15176C296.2 4.98166 296.381 3.96104 296.51 2.84323C296.639 1.74971 296.819 0.656189 296.897 0.413193C297 0.194489 297.026 7.62939e-05 296.974 7.62939e-05C296.923 7.62939e-05 296.097 0.850601 295.142 1.87122ZM80.6056 6.56119C82.464 6.68269 85.3031 6.8528 86.9292 6.92569C92.2461 7.14439 97.2275 7.6304 96.2209 7.80051C95.5757 7.89771 95.937 7.97061 97.5114 7.9949C98.7245 8.0435 100.222 8.14072 100.867 8.26221C101.667 8.40802 100.996 8.43231 98.802 8.35942C97.021 8.28651 94.7755 8.18932 93.7689 8.14072C92.7881 8.11641 88.9424 7.80051 85.2515 7.436C81.5606 7.09579 77.3793 6.70699 75.9598 6.60979L73.3787 6.39108L75.3145 6.36679C76.3727 6.34248 78.7731 6.43968 80.6056 6.56119ZM185.886 16.5244C186.248 16.6458 186.557 16.9131 186.557 17.1319C186.557 17.3263 186.686 17.4964 186.841 17.4964C186.97 17.4964 187.048 17.5936 186.97 17.6908C186.893 17.8123 187.099 17.8852 187.409 17.8852C187.745 17.8609 188.003 18.031 188.054 18.3226C188.132 18.6142 188.054 18.7114 187.848 18.5899C187.074 18.1282 185.731 18.0553 183.976 18.3712C182.944 18.5656 180.75 18.76 179.098 18.8086C176.001 18.9058 175.381 19.0273 174.633 19.6105C174.246 19.9264 174.22 19.9264 174.349 19.4647C174.53 18.8086 174.22 18.8086 173.497 19.4647L172.929 19.975L171.871 19.2946C171.278 18.9544 170.813 18.5413 170.813 18.4441C170.813 18.0796 171.51 18.2011 171.845 18.6142C172.284 19.0759 172.929 19.003 178.556 17.6908C181.989 16.9131 183.125 16.743 184.363 16.8403C185.783 16.9617 185.86 16.9375 185.267 16.6458C184.518 16.257 184.931 16.1598 185.886 16.5244ZM183.847 19.6834C183.95 19.8292 183.563 19.9264 182.892 19.9264C182.195 19.9264 181.292 20.1694 180.492 20.5582L179.201 21.19L180.363 21.0685C181.008 20.9956 181.318 20.9956 181.06 21.0685C180.673 21.1657 180.647 21.2386 180.931 21.5545C181.369 22.0648 180.698 22.5022 179.15 22.7209C178.195 22.8425 177.833 22.7939 177.291 22.405C176.336 21.7489 176.259 20.7283 177.111 20.4124C177.472 20.2909 177.782 20.0722 177.782 19.9264C177.782 19.6105 178.711 19.6105 179.33 19.9264C179.692 20.0965 180.079 20.0722 180.673 19.8292C181.679 19.4161 183.615 19.3432 183.847 19.6834ZM186.583 21.6031C186.377 21.7246 186.299 21.9919 186.428 22.3321C186.609 22.8911 186.351 23.2556 184.028 25.6856C182.686 27.1193 182.505 27.2165 181.447 27.2165C180.492 27.2165 180.156 27.0707 179.434 26.3903C178.066 25.1024 178.324 24.3977 180.698 23.134C181.86 22.5022 181.937 22.5022 181.757 22.9397C181.498 23.5472 182.17 23.6201 182.453 23.0125C182.608 22.6966 183.073 22.2349 183.512 21.9919L184.312 21.5545L183.77 22.2592C183.15 23.0854 182.815 24.3005 183.202 24.3005C183.331 24.3005 183.46 24.0818 183.46 23.8145C183.46 23.2556 184.209 22.8181 185.06 22.9153C185.628 22.9639 185.68 22.8667 185.757 21.8704C185.783 21.5302 185.964 21.3844 186.377 21.3844C186.79 21.3844 186.841 21.4573 186.583 21.6031ZM202.353 24.665C202.457 24.7865 202.353 25.0781 202.147 25.3211C201.579 25.88 201.424 28.31 201.837 29.6223C202.224 30.813 202.818 31.0803 203.799 30.4728C204.366 30.1326 204.599 29.1606 204.108 29.1606C203.979 29.1606 203.85 29.2578 203.85 29.4035C203.85 29.5251 203.67 29.6466 203.437 29.6466C202.844 29.6466 203.102 28.8203 203.721 28.7231C204.573 28.5773 204.805 28.1885 204.057 28.1885C203.644 28.1885 203.179 28.4315 202.869 28.796C202.586 29.1362 202.276 29.4035 202.198 29.4035C201.863 29.4035 202.069 27.2408 202.431 26.9006C202.611 26.7062 202.869 26.2931 202.947 25.9772C203.076 25.4912 203.282 25.394 204.237 25.3454C205.347 25.3211 205.399 25.3454 205.657 26.1959C206.018 27.4838 205.967 28.8203 205.528 29.1606C205.321 29.3307 205.141 29.5737 205.141 29.7195C205.141 29.8896 205.451 29.7195 205.812 29.3549C206.354 28.8447 206.535 28.3829 206.689 27.1679C206.844 25.8314 206.87 25.7342 207.051 26.366C207.154 26.7548 207.309 27.2894 207.386 27.5081C207.438 27.7511 207.412 27.9455 207.283 27.9455C207.18 27.9455 207.051 28.4072 207.025 28.9904C206.973 29.841 206.767 30.1812 205.812 31.056C204.883 31.8822 204.521 32.0523 204.005 31.9308C203.67 31.8579 203.153 31.9065 202.895 32.0766C202.508 32.2953 202.56 32.3196 203.282 32.2224C204.289 32.0523 204.16 32.4168 203.076 32.757C202.379 33 202.302 32.9757 202.302 32.5626C202.302 32.2953 202.069 31.9794 201.785 31.8336C201.166 31.5177 200.805 30.9102 200.392 29.4521C200.03 28.0913 200.237 26.8034 201.063 25.3454C201.605 24.3734 201.966 24.179 202.353 24.665ZM186.299 24.8351C186.299 25.0538 186.377 25.0538 186.609 24.8351C187.074 24.3977 187.332 24.4706 187.332 25.0295C187.332 25.637 188.054 25.6613 188.519 25.0781C188.88 24.6164 189.526 24.8351 190.016 25.6127C190.429 26.2202 189.371 26.9735 188.132 26.9735C187.435 26.9735 187.306 27.0464 187.59 27.2165C188.338 27.6782 190.119 27.5081 190.687 26.9249C191.358 26.2445 191.332 26.5361 190.661 27.8483C190.222 28.6502 189.938 28.8932 189.293 28.9904C187.435 29.2334 186.919 29.0876 185.938 27.9698C185.344 27.2894 185.009 26.7305 185.086 26.4389C185.164 26.1959 185.112 26.0015 184.983 26.0015C184.854 26.0015 184.751 26.2202 184.751 26.4875C184.751 26.8034 184.57 26.9735 184.234 26.9735C183.408 26.9735 183.641 26.3417 184.802 25.4183C185.938 24.4949 186.299 24.3491 186.299 24.8351ZM212.419 26.7548C213.09 26.366 213.194 26.4875 213.426 28.1399C213.658 29.5493 213.503 31.0074 213.116 31.4691C213.013 31.6149 213.013 31.8822 213.142 32.0523C213.297 32.2953 213.503 32.1252 213.916 31.3476C214.355 30.57 214.536 30.3756 214.716 30.6429C215.026 31.1289 215 32.2467 214.639 32.8785C214.045 33.9234 211.284 35.7216 210.251 35.7216C208.832 35.7216 208.574 35.4543 207.49 32.9757C207.128 32.1252 207.102 30.2784 207.464 30.4971C207.619 30.5943 207.722 30.3513 207.722 29.9625C207.722 28.8203 208.006 28.1885 208.599 28.0427C208.909 27.9698 209.322 27.5324 209.58 26.9492L210.019 26.0015L210.948 26.5361C211.748 26.9735 212.006 26.9978 212.419 26.7548ZM194.249 26.8034C194.326 27.1436 194.197 27.2408 193.758 27.1679C193.449 27.1193 193.139 27.2408 193.087 27.4109C192.984 27.6296 193.268 27.6782 194.094 27.6053C194.688 27.5567 195.41 27.4352 195.668 27.338C196.004 27.1922 196.107 27.2894 196.107 27.7754C196.107 28.6745 197.062 28.8447 197.217 27.9698C197.294 27.5567 197.346 27.7025 197.372 28.3829C197.423 30.4242 195.255 31.3476 193.552 29.9868C193.113 29.6466 192.752 29.2092 192.752 29.0147C192.752 28.796 192.649 28.6988 192.52 28.7717C192.21 28.9661 192.468 29.8896 192.984 30.4728C193.655 31.2018 194.533 31.3962 195.875 31.1046C197.346 30.7644 197.759 30.3756 198.224 28.796L198.585 27.581L199.308 28.6502L200.056 29.7438L199.333 30.2541C198.224 31.1046 195.436 32.0766 194.171 32.0766C192.623 32.0766 191.203 30.9588 191.203 29.7438C191.203 29.1606 191.358 28.8447 191.668 28.7474C192.416 28.4801 192.803 27.9698 192.7 27.4109C192.545 26.4146 194.068 25.8314 194.249 26.8034ZM180.647 27.7025C181.369 28.067 181.266 28.3829 180.285 28.7717C179.795 28.9418 178.659 29.6223 177.756 30.2541C176.362 31.2261 174.426 32.3196 174.091 32.3196C173.859 32.3196 174.091 31.1289 174.452 30.6186C174.685 30.2784 174.943 29.7681 175.046 29.4521C175.381 28.5287 177.42 27.4595 178.892 27.4595C179.563 27.4595 180.363 27.581 180.647 27.7025ZM249.122 28.3343C249.199 28.553 249.302 28.9418 249.302 29.2334C249.328 29.5251 249.431 29.3307 249.535 28.796C249.69 27.9698 249.715 28.0913 249.767 29.598C249.793 31.3233 249.767 31.3962 248.889 32.2467C248.399 32.7327 247.909 33.0486 247.805 32.9514C247.702 32.8542 247.728 32.7084 247.883 32.6112C248.115 32.4654 249.018 30.57 249.018 30.2055C249.018 30.1326 248.76 30.4242 248.425 30.8859C248.115 31.3233 247.444 31.9551 246.979 32.2467C246.076 32.8299 244.527 33 244.244 32.5626C244.166 32.4168 244.295 32.3196 244.527 32.3196C245.405 32.3196 247.238 31.299 247.599 30.5943C247.805 30.2298 247.986 29.4765 247.986 28.9175C247.986 28.1156 248.063 27.9455 248.476 27.9455C248.735 27.9455 249.044 28.1156 249.122 28.3343ZM222.021 28.8932C222.769 30.2298 223.105 31.4691 223.027 32.5626C222.976 33.4131 222.769 33.8262 221.995 34.5552C220.963 35.5515 219.207 36.2077 218.149 36.0133C217.323 35.8675 216.239 33.7776 216.239 32.3439L216.213 31.2261L215.878 31.9551L215.517 32.6841L215.594 31.8336C215.646 31.3719 215.775 30.7158 215.93 30.3756C216.213 29.7681 216.213 29.7681 216.213 30.327C216.239 30.6429 216.342 30.8373 216.472 30.7644C216.601 30.6672 216.781 30.9588 216.885 31.3719C217.039 32.0523 217.091 32.0766 217.504 31.7364C217.762 31.5177 218.201 31.3476 218.511 31.3476C219.13 31.3476 219.466 30.9831 219.078 30.7401C218.924 30.6429 218.614 30.7158 218.407 30.8859C218.072 31.1532 218.046 31.1046 218.201 30.4971C218.33 30.0111 218.304 29.8653 218.072 29.9868C217.917 30.084 217.788 30.0111 217.788 29.7924C217.788 29.1362 218.33 29.112 218.949 29.7438C219.311 30.1083 219.853 30.3756 220.24 30.3756C220.834 30.3756 220.885 30.4728 220.885 31.4205C220.885 32.0037 220.73 32.6112 220.575 32.7813C220.291 33.0729 220.317 33.0972 220.73 32.9514C221.169 32.8056 221.195 32.8299 220.834 33.3402C220.601 33.6561 220.137 33.9234 219.749 33.972C219.001 34.0692 219.078 34.5066 219.853 34.5066C220.524 34.5066 221.246 33.5589 221.788 31.9308C222.227 30.57 222.227 30.5214 221.711 29.3793C221.143 28.0913 221.401 27.7268 222.021 28.8932ZM232.939 30.5457C233.326 31.8093 233.326 31.8336 232.655 32.9271C232.268 33.5346 231.855 34.0206 231.725 34.0206C231.596 34.0206 231.08 34.6038 230.59 35.3085C229.325 37.1068 227.338 38.3947 225.841 38.3947C224.912 38.3947 224.705 38.1517 224.189 36.4507C223.518 34.3365 223.389 33.5346 223.698 33.5346C223.853 33.5346 224.06 33.972 224.137 34.5066C224.24 35.0412 224.395 35.5273 224.499 35.6002C224.602 35.6488 224.628 35.4543 224.576 35.1384C224.473 34.7253 224.653 34.4337 225.144 34.0449C226.073 33.3888 226.305 33.3888 226.305 34.1421C226.305 34.4823 226.486 34.8225 226.718 34.9197C227.234 35.1142 229.635 34.0692 230.358 33.3159C230.848 32.8299 232.164 29.4521 232.268 28.4072C232.293 28.2128 232.371 28.3343 232.422 28.6745C232.474 29.0147 232.706 29.841 232.939 30.5457ZM184.957 29.4521C185.964 29.6709 186.067 29.7681 185.912 30.2298C185.499 31.4691 185.473 31.8822 185.783 32.0766C186.351 32.3925 185.602 33.8748 184.338 34.9926C183.254 35.9404 182.97 36.0619 181.034 36.3292C179.898 36.4993 178.711 36.718 178.453 36.8395C178.066 36.9853 177.988 36.9367 178.117 36.6208C178.195 36.4264 178.35 35.8188 178.427 35.3085C178.969 32.271 180.724 29.4035 182.04 29.4035C182.376 29.4035 182.737 29.282 182.815 29.1362C182.918 28.9904 183.176 28.9661 183.434 29.0633C183.667 29.1362 184.363 29.3307 184.957 29.4521ZM227.08 30.084C227.08 30.7401 227.234 31.4691 227.467 31.7364C227.802 32.1495 227.828 32.1009 227.699 30.9831L227.57 29.7681L228.215 30.4971C228.99 31.3476 229.119 31.1046 228.37 30.1326C227.802 29.3793 227.906 29.1606 228.861 29.1606C229.48 29.1606 229.583 29.3064 229.867 30.4728C230.228 31.8822 229.945 33.0486 229.119 33.7047C228.809 33.9234 228.757 33.7776 228.835 32.7327C228.886 31.8093 228.835 31.5663 228.654 31.8336C228.499 32.028 228.37 32.3925 228.37 32.6112C228.37 33.1701 227.286 33.8262 226.718 33.6318C226.279 33.486 226.228 33.2916 226.305 32.3682C226.331 31.9794 226.176 31.7607 225.815 31.6635C225.325 31.542 225.015 30.6186 225.479 30.6186C225.583 30.6186 225.892 30.2298 226.15 29.7681C226.434 29.3064 226.744 28.9175 226.873 28.9175C226.976 28.9175 227.08 29.4521 227.08 30.084ZM178.04 31.8822C178.04 32.2467 176.904 37.3012 176.517 38.7592C176.233 39.8527 176.336 41.2621 176.904 43.2791C177.111 44.0324 177.266 44.8586 177.266 45.1016C177.266 45.8063 176.104 44.6156 175.485 43.2791C174.607 41.335 174.349 39.1237 174.685 36.0862C175.02 33.1944 175.201 32.8299 176.749 32.0523C177.833 31.5177 178.04 31.4934 178.04 31.8822ZM190.016 32.1009C191.41 32.6112 191.435 32.6355 191.306 33.486C191.255 33.972 190.997 34.6524 190.764 34.9926C189.913 36.232 187.228 38.905 186.48 39.2938C186.041 39.4882 185.06 40.2172 184.312 40.8976C183.563 41.5537 182.866 42.0641 182.789 41.9911C182.712 41.9183 183.099 40.9948 183.667 39.9499C184.209 38.8807 184.88 37.4713 185.138 36.8152C185.396 36.1348 185.783 35.4057 185.989 35.187C186.196 34.9683 186.273 34.6767 186.196 34.5309C186.093 34.3851 186.144 34.0449 186.299 33.7776C186.531 33.3645 186.661 33.3159 186.944 33.5346C187.254 33.7776 187.203 34.0692 186.686 35.3815C186.351 36.232 186.119 36.9367 186.17 36.9367C186.222 36.9367 186.686 36.2077 187.228 35.2842C187.745 34.3851 188.416 33.3888 188.674 33.0729C189.216 32.4168 188.906 31.785 188.312 32.271C188.08 32.4411 187.822 32.4411 187.59 32.3196C187.228 32.1009 187.28 32.0766 188.545 31.6149C188.545 31.5906 189.216 31.8336 190.016 32.1009ZM207.025 34.1178C206.948 35.6488 205.502 39.0994 204.366 40.363C203.954 40.8733 202.74 41.6752 201.553 42.2585C199.643 43.1576 199.463 43.2062 199.463 42.7688C199.463 42.137 199.256 42.1613 198.662 42.8174C198.043 43.4735 198.017 43.1333 198.559 40.9948C198.766 40.1443 198.92 38.7835 198.92 37.9816C198.895 36.5236 199.359 34.7496 199.772 34.7496C200.263 34.7496 200.263 35.5515 199.746 36.9853C199.127 38.6863 199.05 39.2695 199.566 38.419L199.901 37.8601L200.082 38.419C200.263 39.0022 200.263 39.0022 200.521 38.2732C201.011 36.9367 201.321 36.475 202.353 35.6974L203.386 34.9197L204.005 35.5029C204.521 36.0133 204.573 36.2077 204.366 37.0582L204.134 38.0302L204.96 37.1797C205.425 36.718 206.018 35.6974 206.302 34.9197C206.793 33.5589 206.793 33.486 206.354 33.1701C205.838 32.8299 204.676 32.9514 204.057 33.4617C203.824 33.6561 203.489 33.7776 203.334 33.729C203.179 33.6804 203.721 33.243 204.547 32.757L206.044 31.8336L206.56 32.3196C206.973 32.7084 207.077 33.0972 207.025 34.1178ZM198.688 33.5103C198.688 35.673 195.384 38.905 191.126 40.9705C189.113 41.9426 188.39 42.4043 188.596 42.5987C188.777 42.7688 188.777 42.9389 188.596 43.1819C188.287 43.5221 187.59 43.6193 187.59 43.3034C187.641 42.2828 188.441 39.9013 189.113 38.8078C190.093 37.204 190.584 36.7909 190.016 38.0545C189.345 39.5611 189.732 39.4396 191.152 37.6657C192.726 35.746 194.094 34.7739 194.662 35.2113C194.946 35.4301 195.049 35.4301 195.152 35.187C195.23 34.9926 195.307 35.0412 195.307 35.3085C195.333 35.5515 195.462 35.673 195.617 35.5759C195.772 35.5029 195.849 35.2356 195.772 34.9683C195.668 34.6524 195.849 34.458 196.391 34.2879C197.217 34.0206 197.398 33.5346 196.701 33.5346C195.978 33.5103 197.217 32.9271 198.017 32.9028C198.585 32.8542 198.688 32.9514 198.688 33.5103ZM246.825 34.1664C247.16 34.2879 247.186 34.3608 246.902 34.5309C246.67 34.6767 246.721 34.7496 247.134 34.7496C247.444 34.7496 247.78 34.8468 247.857 34.9926C247.934 35.1142 247.831 35.2356 247.625 35.2356C247.134 35.2356 246.592 36.1105 246.799 36.5965C246.876 36.7909 247.108 36.9367 247.341 36.9367C247.805 36.9367 247.831 37.2769 247.418 37.9816C247.16 38.4676 247.16 38.4919 247.547 38.2003C247.78 38.0059 248.115 37.4956 248.296 37.0582C248.605 36.2077 249.018 36.1348 249.018 36.9367C249.018 37.3255 246.876 39.3667 246.437 39.3667C246.36 39.3667 245.947 39.0265 245.508 38.6134C245.018 38.1031 244.863 37.8115 245.095 37.7386C245.637 37.5442 245.431 37.1311 244.863 37.3012C244.527 37.3984 244.166 37.3255 243.856 37.0582C243.392 36.6694 243.392 36.6208 243.856 35.9161C244.114 35.5029 244.76 34.9197 245.328 34.6038C246.489 33.9234 246.308 33.9963 246.825 34.1664ZM241.766 36.3535C242.205 36.0862 241.869 38.5891 241.327 39.5368C240.604 40.8247 237.868 43.7408 236.449 44.7371L235.339 45.4904L235.365 43.9352C235.391 42.137 235.649 41.0434 235.958 41.5051C236.062 41.651 236.242 41.7968 236.397 41.7968C236.526 41.7968 236.397 41.578 236.113 41.3107C235.649 40.8733 235.623 40.7518 235.958 40.4602C236.165 40.2658 236.268 39.877 236.191 39.6097C235.984 38.8321 237.714 36.6937 238.539 36.6937C238.617 36.6937 238.694 36.8881 238.72 37.1068C238.72 37.4227 238.823 37.3741 239.03 36.9124C239.417 36.1105 239.985 36.2806 239.985 37.1797C239.985 38.0545 240.424 38.3704 240.578 37.6171C240.682 37.1311 240.682 37.1554 240.733 37.7143C240.733 38.1031 240.862 38.3947 240.991 38.3947C241.327 38.3947 241.611 37.0825 241.43 36.4021C241.353 36.0862 241.353 35.989 241.43 36.1591C241.508 36.3049 241.663 36.4021 241.766 36.3535ZM213.374 37.447C211.439 37.7143 209.245 40.3144 209.296 42.3314V43.3763L209.812 41.894C210.174 40.8004 210.587 40.1686 211.335 39.5125C212.445 38.5891 212.858 38.4676 213.348 38.9293C213.787 39.3424 213.736 39.9742 213.116 41.1406L212.574 42.1613L213.374 41.4323C213.813 41.0434 214.329 40.3144 214.484 39.8041C214.639 39.2938 214.82 38.9293 214.897 38.9779C215.026 39.0994 214.742 39.877 214.071 41.3593C213.839 41.8696 213.71 42.2828 213.787 42.2828C213.839 42.2828 214.123 41.8696 214.407 41.3593C214.691 40.8733 214.923 40.606 214.949 40.7761C214.949 41.2621 213.787 42.866 212.936 43.5221C211.981 44.2511 210.509 45.053 210.225 45.0044C210.096 44.9558 209.632 45.2474 209.193 45.5876C208.419 46.1951 208.367 46.2194 208.29 45.7577C208.238 45.5147 208.341 44.6399 208.522 43.838C208.677 43.0604 208.832 41.8454 208.857 41.1892C208.935 39.4639 209.141 39.0265 210.251 38.4433C210.793 38.176 211.748 37.5685 212.368 37.1068L213.503 36.2806L213.942 36.7909C214.381 37.3012 214.381 37.3012 213.374 37.447ZM258.955 37.5685C259.188 37.933 259.42 38.4433 259.446 38.7349C259.497 39.0265 259.807 39.6826 260.169 40.2172C260.969 41.3836 261.227 42.4043 260.943 43.352C260.711 44.1782 260.298 44.3969 259.859 43.9352C258.155 42.0883 256.787 39.7069 257.975 40.606C258.362 40.8976 258.388 40.8976 258.233 40.5088C258.13 40.2658 258.052 39.6826 258.052 39.2209C258.052 38.6377 257.923 38.3947 257.665 38.3947C257.458 38.3947 257.278 38.5405 257.252 38.6863C257.252 39.0265 256.813 38.2003 256.787 37.7629C256.762 37.4956 257.665 36.9853 258.207 36.961C258.388 36.9367 258.697 37.2283 258.955 37.5685ZM180.543 39.9256C180.363 42.9146 179.459 44.9558 178.298 44.9558C177.962 44.9558 177.808 44.6642 177.679 43.9109C177.575 43.352 177.42 42.623 177.343 42.3071C177.24 41.894 177.266 41.7724 177.498 41.894C177.73 42.0397 177.782 41.8696 177.653 41.2621C177.549 40.8004 177.601 39.9742 177.782 39.4153C178.04 38.4919 178.169 38.3704 179.279 38.0545C179.95 37.8601 180.543 37.69 180.595 37.69C180.647 37.6657 180.621 38.6863 180.543 39.9256ZM219.853 37.8358C218.433 38.3218 217.246 40.3144 217.065 42.5258C216.936 44.2754 217.168 44.3726 217.556 42.7202C218.149 40.2415 218.33 39.877 219.311 39.148L220.317 38.3947L221.014 38.905C221.659 39.391 221.685 39.5125 221.53 40.6546C221.376 41.578 221.427 41.821 221.659 41.6752C222.124 41.4079 222.692 39.9742 222.692 39.0751C222.718 38.4919 222.769 38.3704 222.924 38.6377C223.182 39.0265 222.614 42.2342 222.176 43.0118C222.021 43.2791 221.763 43.4249 221.53 43.352C221.246 43.2548 221.195 43.3034 221.272 43.5707C221.53 44.1539 219.311 45.6119 216.394 46.754L215.388 47.1428L215.568 45.8549C215.878 43.3277 216.781 39.5368 217.22 38.9779C217.659 38.419 219.13 37.7143 219.853 37.7143C220.188 37.7143 220.188 37.7143 219.853 37.8358ZM229.738 40.1686C229.325 41.3107 229.764 41.1163 230.461 39.8041C231.054 38.7349 231.39 38.662 230.951 39.7312C230.693 40.363 230.719 40.3873 231.106 40.0714C232.319 39.1237 230.022 42.1613 227.88 44.324C226.77 45.4418 226.822 45.6119 227.983 44.7371C228.37 44.4455 228.37 44.4941 227.906 44.9801C227.26 45.6605 224.808 47.0213 224.602 46.8269C224.421 46.6811 224.937 40.8004 225.17 40.2415C225.247 40.0228 225.557 39.8527 225.841 39.8527C226.099 39.8527 226.254 39.7312 226.176 39.6097C226.099 39.4639 226.228 39.2938 226.486 39.2209C226.744 39.148 227.415 38.8807 227.983 38.6377C228.99 38.2246 229.015 38.2246 229.557 38.7349C230.022 39.1966 230.048 39.3181 229.738 40.1686ZM267.55 53.4366C268.247 54.2628 269.718 56.8873 269.564 57.0331C269.305 57.2761 266.234 56.6686 266.002 56.3284C265.873 56.1583 265.847 55.6966 265.924 55.3078C266.002 54.919 266.053 54.1413 266.053 53.5338C266.053 52.5132 266.079 52.4889 266.647 52.7562C266.957 52.9263 267.37 53.2179 267.55 53.4366ZM268.041 57.4705C269.022 57.592 269.899 57.9565 271.267 58.7584L273.151 59.9005L272.016 59.9734C271.422 60.022 270.544 59.9248 270.106 59.8033C268.918 59.3902 268.996 59.6575 270.235 60.2408C271.086 60.6295 271.215 60.7511 270.751 60.7511C269.847 60.7511 267.86 59.6818 266.647 58.564C265.563 57.5677 265.408 56.9602 266.26 57.2032C266.518 57.2518 267.292 57.3976 268.041 57.4705ZM273.538 62.2577C273.538 62.5007 273.616 62.4764 273.771 62.2334C274.055 61.8203 274.932 62.0633 276.016 62.8166C276.687 63.3026 276.816 63.5699 276.842 64.5419C276.919 66.0485 276.713 66.5831 276.094 66.5831C275.835 66.5831 275.603 66.4859 275.603 66.3644C275.603 66.2429 275.242 66.17 274.777 66.1943C274.08 66.2186 273.874 66.0728 273.358 65.2466C272.661 64.1045 272.635 63.8858 273.151 64.0559C273.435 64.1774 273.513 64.1045 273.358 63.7643C273.1 63.0596 272.687 62.9138 272.067 63.3269C271.551 63.6428 271.474 63.6428 271.474 63.3026C271.474 62.7923 272.403 61.9661 273.022 61.9661C273.306 61.9661 273.538 62.1119 273.538 62.2577ZM280.533 66.2186C280.249 67.2636 280.094 68.2599 280.172 68.43C280.352 68.8917 278.933 73.1929 278.417 73.7518C278.158 74.0191 277.926 74.6266 277.874 75.0883C277.823 75.5986 277.668 75.9145 277.487 75.8659C277.307 75.8416 277.152 76.036 277.152 76.279C277.152 76.5463 277.307 76.8136 277.487 76.8622C277.72 76.9594 277.694 77.0566 277.41 77.251C277.152 77.4211 277.023 78.0772 276.997 79.5839C276.945 81.5522 276.894 81.7466 275.835 83.399C275.242 84.3467 274.751 85.3187 274.726 85.5374C274.7 85.7805 274.313 86.2908 273.874 86.7039C272.867 87.5787 272.738 88.7451 273.513 89.9358C273.874 90.4704 273.951 90.8592 273.796 91.2237C273.564 91.8313 273.874 92.536 274.622 93.022C275.371 93.5323 275.577 94.0912 275.861 96.424C276.068 98.2223 276.042 98.7569 275.732 99.4859C275.526 99.9719 275.293 100.361 275.216 100.361C275.164 100.361 275.113 99.2429 275.139 97.8577C275.164 95.8165 275.087 95.1847 274.622 94.2127C274.08 93.0706 273.616 92.6332 273.926 93.5809C274.029 93.8725 274.029 94.5772 273.926 95.1847C273.796 96.0109 273.667 96.2296 273.332 96.181C273.048 96.1324 272.919 95.9137 272.971 95.6221C273.383 93.3865 273.306 91.7827 272.764 90.3246C272.428 89.4984 272.067 88.7208 271.938 88.575C271.577 88.1862 271.706 87.7974 272.248 87.6516C272.532 87.5787 272.816 87.2385 272.919 86.8497C273.022 86.4609 273.358 85.8534 273.667 85.5132C274.003 85.1 274.287 84.371 274.39 83.5934C274.468 82.913 274.803 81.941 275.113 81.4793C275.448 80.9933 275.784 80.1428 275.861 79.6082C275.965 79.0492 276.145 78.3931 276.248 78.1258C276.377 77.737 276.377 77.7127 276.145 78.0043C276.016 78.1987 275.835 78.2959 275.758 78.223C275.5 78.0043 276.094 76.2547 276.584 75.7444C276.842 75.4528 277.255 74.7481 277.487 74.1649C278.004 72.9742 278.029 72.8284 277.668 73.0228C277.307 73.2171 277.332 72.8284 277.694 72.4881C277.9 72.2937 277.9 72.0021 277.745 71.5161C277.462 70.7385 277.745 69.4506 278.442 68.5272C278.855 67.9683 279.036 67.4337 279.397 65.7812C279.501 65.2709 279.604 65.1737 279.862 65.3681C280.094 65.5625 280.223 65.3681 280.352 64.5905C280.507 63.7886 280.585 63.6428 280.765 63.9344C280.92 64.1774 280.843 65.0036 280.533 66.2186ZM271.861 69.0132C271.964 69.159 272.145 69.2076 272.274 69.1104C272.428 69.0375 272.867 69.0861 273.28 69.2562C274.055 69.5721 274.313 70.2282 274.39 72.1479C274.442 73.5331 273.977 73.6789 273.28 72.4881C272.687 71.4675 272.841 72.2937 273.461 73.4359C273.874 74.2135 273.796 74.2621 272.738 73.7518C271.396 73.0957 271.215 71.4432 272.48 71.4432C272.841 71.4432 272.841 71.3946 272.506 71.2002C272.299 71.0544 271.654 71.0301 271.112 71.103C270.26 71.2245 270.131 71.2002 270.26 70.8843C270.338 70.6656 270.493 70.1067 270.596 69.645C270.699 69.0132 270.88 68.7702 271.241 68.7702C271.499 68.7702 271.783 68.8917 271.861 69.0132ZM280.972 69.3777C280.894 69.6936 280.946 69.9123 281.049 69.8394C281.411 69.645 281.307 70.6413 280.894 71.589C280.662 72.1236 280.481 73.7032 280.378 75.8902L280.223 79.3409L278.907 81.6494C277.9 83.3747 277.565 84.2252 277.539 85.0514C277.513 85.9263 277.332 86.3151 276.661 86.9955C276.197 87.4572 275.629 88.1376 275.397 88.5021C275.164 88.8909 274.88 89.1825 274.803 89.1825C274.442 89.1825 274.287 88.1862 274.571 87.846C274.829 87.5544 274.829 87.4815 274.545 87.4815C274.364 87.4815 274.545 87.1413 274.984 86.6796C275.861 85.8291 276.894 84.2981 276.894 83.885C276.894 83.7392 277.255 83.3018 277.668 82.913C278.107 82.4999 278.442 81.9167 278.417 81.6008C278.417 81.0419 278.417 81.0419 278.184 81.5522C277.874 82.3055 277.41 82.4999 277.41 81.9167C277.41 80.9933 278.029 78.0043 278.21 78.0043C278.313 78.0043 278.468 78.2959 278.52 78.6604C278.571 79.0492 278.649 78.6847 278.675 77.8828C278.726 76.2061 279.217 75.0883 279.217 76.6435C279.217 78.3688 279.501 77.3725 279.759 74.7967C280.12 70.6899 280.197 70.1067 280.481 69.4263C280.817 68.6001 281.127 68.5758 280.972 69.3777ZM265.486 70.617C266.699 70.9329 266.079 71.3946 264.221 71.5647C262.156 71.7591 262.13 72.1479 264.169 72.2451C265.124 72.2694 265.615 72.1722 265.976 71.8563C266.26 71.6376 266.828 71.4432 267.241 71.4432C267.963 71.4675 267.937 71.4918 266.853 72.0264C265.331 72.7797 263.317 72.8284 261.02 72.1479C260.014 71.8806 259.11 71.5647 259.007 71.4432C258.749 71.2245 259.73 70.9815 262.13 70.7142C264.505 70.4712 264.814 70.4469 265.486 70.617ZM268.221 73.9948C268.041 74.4079 268.505 74.5051 268.763 74.1163C269.099 73.606 270.364 73.849 270.828 74.5294C271.241 75.0883 271.241 75.1369 270.854 75.0154C269.667 74.5537 269.641 74.6023 270.751 75.2827C272.196 76.1818 272.738 77.3968 272.248 78.6118L271.964 79.3409L271.138 78.4903C270.699 78.0286 270.415 77.8342 270.519 78.0772C270.622 78.2959 270.777 78.6604 270.854 78.8548C271.086 79.4138 270.648 79.2923 269.693 78.5389C269.202 78.1501 268.789 77.5912 268.763 77.2753C268.738 76.8622 268.557 76.6921 268.015 76.6435C267.112 76.5463 266.905 76.3762 267.292 76.0117C267.473 75.8416 267.602 75.4528 267.602 75.1369C267.602 74.6023 268.015 73.6303 268.247 73.6303C268.299 73.6303 268.299 73.8004 268.221 73.9948ZM264.531 74.8453L265.666 75.3556L264.556 75.2098C263.653 75.064 263.498 75.1126 263.627 75.4042C263.756 75.7444 262.595 76.2304 260.762 76.6192C260.478 76.6921 260.84 76.7407 261.536 76.765C263.085 76.8136 263.834 77.1295 262.904 77.3482C262.13 77.5669 256.787 77.251 256.607 77.008C256.426 76.7407 258.852 75.6229 261.02 74.9425C263.292 74.2621 263.214 74.2621 264.531 74.8453ZM283.191 76.6435C283.114 77.0566 282.572 78.1501 281.978 79.0979C281.411 80.0213 280.326 81.9896 279.552 83.4719C278.778 84.9299 278.21 85.9263 278.287 85.659C278.675 84.1037 279.268 82.4513 280.197 80.2157C280.791 78.8305 281.281 77.5669 281.281 77.4211C281.281 77.251 281.643 76.5949 282.082 75.9145C282.882 74.7481 282.908 74.7481 283.14 75.307C283.269 75.6472 283.295 76.2547 283.191 76.6435ZM258.104 78.7333C261.175 79.0249 262.259 79.4624 262.13 80.3858C262.079 80.7989 261.795 81.1634 261.33 81.4064C260.659 81.7466 260.582 81.7466 260.246 81.3092C259.91 80.8961 259.781 80.8718 259.265 81.1391C258.826 81.3578 258.491 81.3578 257.949 81.1877C256.994 80.8232 256.839 80.8475 257.433 81.2849C257.691 81.4793 258.465 81.8195 259.162 82.0139C260.582 82.4756 260.814 82.9859 259.523 82.7915C258.723 82.67 255.084 80.5316 253.277 79.1221L252.503 78.5146H254.051C254.903 78.5146 256.736 78.6118 258.104 78.7333ZM268.505 81.0662C270.338 81.8924 271.009 82.6214 271.009 83.7149C271.009 84.7841 270.854 84.9785 270.312 84.5654C269.847 84.2009 269.77 84.5897 270.183 85.3187C270.389 85.659 270.364 85.7805 270.131 85.7805C269.589 85.7561 267.679 84.8813 267.447 84.5411C267.215 84.2009 266.053 80.9447 266.053 80.6045C266.053 80.24 267.215 80.4587 268.505 81.0662ZM253.69 83.3261C255.445 83.7392 257.433 84.0794 258.078 84.0794C258.723 84.0794 259.472 84.2495 259.756 84.4439C260.22 84.7841 260.22 84.7841 259.472 84.7841C259.059 84.7841 258.13 84.6869 257.407 84.5654C256.71 84.4682 256.065 84.4196 256.039 84.4439C255.91 84.5411 257.407 85.3187 258.439 85.7076C259.188 85.9749 259.188 85.9992 258.568 85.9992C256.555 86.0721 250.825 83.885 249.948 82.7186C249.483 82.0868 249.483 82.0868 249.973 82.3298C250.257 82.4756 251.935 82.9373 253.69 83.3261ZM258.052 86.7282C258.543 86.874 259.42 87.0441 259.988 87.1413L261.02 87.3114L260.246 87.6273C259.833 87.7974 258.878 87.9432 258.13 87.9675C256.374 87.9675 256.168 88.3563 257.794 88.5507C258.517 88.6479 259.085 88.818 259.085 88.9638C259.085 89.2797 257.149 89.061 255.006 88.5507C253.251 88.1133 251.135 86.8011 251.625 86.4609C252.064 86.1936 256.787 86.388 258.052 86.7282ZM268.221 89.2068C268.428 89.4012 268.299 89.4498 267.679 89.3769C267.215 89.304 266.828 89.3526 266.828 89.4498C266.828 89.8143 267.525 90.1302 268.092 89.9844C269.434 89.6685 270.493 91.7827 269.434 92.6818C268.97 93.0706 268.97 93.0706 268.97 92.4631C268.97 91.8069 268.325 91.005 267.473 90.5919C267.112 90.4218 267.189 90.519 267.679 90.9564C268.454 91.6611 268.583 92.6089 267.989 93.0706C267.654 93.3136 267.499 93.3136 267.086 92.9491C266.518 92.4631 266.415 92.6089 266.853 93.3379C267.112 93.7996 267.06 93.8239 266.131 93.6538C264.685 93.4351 263.008 92.3416 262.388 91.2723C262.156 90.8835 262.182 90.8349 262.569 90.9807C262.982 91.1265 262.982 91.1022 262.621 90.5676C262.337 90.1545 262.311 89.8872 262.491 89.6442C262.698 89.3769 262.724 89.4255 262.595 89.79C262.466 90.1788 262.543 90.1545 263.034 89.6442C263.343 89.2797 263.782 88.9395 263.988 88.8423C264.608 88.6236 267.912 88.8909 268.221 89.2068ZM258.646 90.6162C258.052 91.1508 255.523 91.8313 254.155 91.8799L253.277 91.9042L254.051 92.1229C254.49 92.2687 255.497 92.3173 256.349 92.2444C257.717 92.1229 257.82 92.1472 257.51 92.4874C257.097 92.9491 255.523 92.8762 252.735 92.1958C250.645 91.7097 249.56 91.1508 250.128 90.8592C250.748 90.519 253.664 90.2274 256.478 90.1788C259.162 90.1545 259.188 90.1545 258.646 90.6162ZM275.732 91.6125C275.577 92.0742 275.99 92.3416 276.171 91.8799C276.223 91.7583 276.481 91.6125 276.765 91.5639C277.203 91.5154 277.307 91.6611 277.436 92.5846C277.513 93.1921 277.616 93.5323 277.616 93.3622C277.642 93.2164 277.771 93.0706 277.9 93.0706C278.004 93.0706 278.184 93.7996 278.287 94.6744C278.391 95.5735 278.571 96.4969 278.7 96.7156C278.881 97.0315 278.752 97.2988 278.21 97.7849C277.823 98.125 277.436 98.3681 277.358 98.2709C276.971 97.9063 275.681 101.211 275.242 103.641C275.19 104.03 275.164 103.666 275.19 102.791C275.242 101.794 275.474 100.871 275.758 100.361C276.145 99.6803 276.248 99.0485 276.223 97.2259C276.197 95.2333 276.248 94.9903 276.532 95.3791C276.739 95.6221 276.894 95.9623 276.894 96.1324C276.894 96.3025 277.023 96.5212 277.178 96.5941C277.487 96.7885 277.203 93.7996 276.868 93.4594C276.739 93.3379 276.532 93.5323 276.377 93.9454L276.068 94.6501L275.706 93.9211C275.526 93.508 275.164 92.9491 274.932 92.6332C274.674 92.3173 274.622 92.0986 274.803 92.0986C274.958 92.0986 275.087 91.9528 275.087 91.7583C275.087 91.4668 275.345 91.248 275.81 91.1508C275.861 91.1265 275.81 91.3452 275.732 91.6125ZM260.633 94.4314C260.994 94.6015 261.485 94.7959 261.769 94.8688C262.182 95.0146 262.13 95.1118 261.33 95.695C260.84 96.0595 259.781 96.5941 258.955 96.8371C257.562 97.2988 257.484 97.2988 256.71 96.8857C256.142 96.5698 255.987 96.5455 256.22 96.8128C256.452 97.0801 256.452 97.1773 256.194 97.2745C255.626 97.4689 258.284 97.7605 259.472 97.639C261.098 97.4446 262.517 96.7156 262.956 95.8165C263.446 94.7959 263.782 94.7959 263.679 95.7922C263.627 96.3511 263.421 96.667 263.008 96.8371C262.698 96.9586 262.491 97.2016 262.543 97.3717C262.698 97.7363 260.582 98.3923 259.214 98.3923C258.078 98.3923 253.148 97.0072 253.148 96.6913C253.148 96.5941 253.535 96.2782 254 96.0109C254.464 95.7436 255.084 95.2819 255.342 95.0146C255.703 94.6258 256.013 94.5529 256.658 94.6744C257.329 94.7959 257.536 94.723 257.768 94.3342C258 93.9211 258.233 93.8482 259.033 93.9697C259.549 94.0426 260.272 94.2613 260.633 94.4314ZM279.784 98.6111C279.036 98.8298 278.184 99.7289 278.184 100.263C278.184 101.211 278.804 100.944 279.862 99.5588L280.817 98.2952L280.662 101.333C280.326 107.043 280.043 108.817 278.959 111.758C278.417 113.288 277.849 114.601 277.72 114.674C276.997 115.135 276.868 115.962 277.126 118.659C277.462 121.842 277.642 132.267 277.358 131.271C277.1 130.396 276.584 123.276 276.532 120.044C276.507 117.76 276.455 117.492 276.016 117.42C275.629 117.347 275.577 117.177 275.706 116.448C275.784 115.962 276.119 115.087 276.455 114.479C276.79 113.872 277.668 112.292 278.417 110.98L279.733 108.599L279.707 105.148L279.655 101.697L279.423 104.346C279.217 106.776 279.113 107.189 278.107 109.06C277.462 110.251 276.816 111.174 276.507 111.296C276.197 111.393 275.835 111.636 275.655 111.83C275.113 112.438 274.622 114.99 274.442 117.93C274.338 119.485 274.158 120.846 274.029 120.919C273.9 120.992 273.796 120.7 273.796 120.311C273.796 119.777 273.667 119.558 273.383 119.558C273.048 119.558 272.996 119.388 273.1 118.756C273.435 116.958 273.616 116.399 273.796 116.52C274.029 116.642 274.622 113.556 274.7 111.83C274.751 110.786 274.932 110.324 275.81 109.157C276.687 107.967 277.41 106.387 277.41 105.585C277.41 105.464 276.868 106.144 276.197 107.141L274.958 108.914L274.88 107.432C274.829 106.606 274.932 105.755 275.087 105.512C275.319 105.148 275.345 105.172 275.319 105.707C275.268 106.727 275.319 106.8 275.732 106.241C276.016 105.877 276.171 105.002 276.223 103.447C276.3 100.725 276.584 100.093 277.049 101.479C277.332 102.28 277.358 102.305 277.255 101.649C277.074 100.701 277.978 98.8541 278.933 98.125C279.526 97.6877 279.578 97.6877 279.81 98.1008C279.991 98.3681 279.991 98.5382 279.784 98.6111ZM256.168 98.9027C256.968 99.17 257.794 100.239 257.794 101.065C257.794 101.794 257.278 102.791 256.271 103.957C255.807 104.516 254.955 105.78 254.413 106.752L253.432 108.501L253.561 106.8C253.639 105.853 254 103.981 254.335 102.621C254.697 101.163 254.877 99.8261 254.8 99.3887C254.619 98.5625 254.852 98.4896 256.168 98.9027ZM260.375 102.912C260.194 103.107 259.91 103.277 259.756 103.277C259.575 103.277 259.11 103.617 258.672 104.054C258 104.735 258 104.759 258.568 104.419C259.291 103.957 259.704 103.884 259.446 104.273C259.368 104.419 259.42 104.638 259.601 104.735C260.323 105.148 258.31 108.04 256.503 109.157C255.936 109.522 255.91 109.546 256.4 109.425C257.149 109.255 258.878 107.675 259.988 106.12C261.02 104.662 261.072 104.71 260.375 106.509C259.756 108.04 257.304 110.445 256.091 110.713C255.678 110.81 255.11 111.053 254.826 111.296C254.542 111.539 254 111.782 253.613 111.879C252.684 112.073 252.684 111.685 253.613 109.595C254.929 106.727 257.768 103.398 259.73 102.451C260.556 102.037 260.917 102.305 260.375 102.912ZM269.28 106.168C269.073 106.411 268.944 106.654 269.022 106.727C269.228 106.897 266.699 108.137 266.105 108.137C265.821 108.137 265.537 107.942 265.46 107.627C265.382 107.359 265.073 107.068 264.789 106.995C264.479 106.922 264.247 106.776 264.247 106.679C264.247 106.339 265.434 106.193 266.311 106.436C266.776 106.557 267.447 106.606 267.783 106.533C268.531 106.339 269.409 105.342 269.409 104.638C269.409 104.152 269.409 104.152 268.996 104.686C268.479 105.391 267.37 105.828 267.008 105.488C266.828 105.318 266.957 105.148 267.37 105.002C267.963 104.783 267.963 104.759 267.163 104.759C266.724 104.735 266.26 104.856 266.182 104.978C266.079 105.124 265.898 105.172 265.769 105.099C265.64 105.002 265.434 105.221 265.279 105.561C265.15 105.901 264.918 106.193 264.763 106.193C264.608 106.193 264.66 105.901 264.892 105.488C265.176 104.978 265.666 104.638 266.75 104.249C267.55 103.957 268.505 103.52 268.867 103.277L269.538 102.815L269.615 104.297C269.667 105.367 269.589 105.877 269.28 106.168ZM263.059 105.853C263.188 106.339 263.085 106.654 262.646 107.116C262.311 107.456 262.182 107.651 262.337 107.578C262.517 107.481 262.775 107.578 262.956 107.772C263.111 107.942 263.421 108.04 263.653 107.967C263.963 107.845 264.014 107.942 263.859 108.404C263.446 109.643 263.214 110.081 262.982 110.081C262.775 110.081 261.536 111.976 260.014 114.576C259.575 115.305 259.575 115.305 259.73 113.847C259.962 111.855 260.323 110.494 261.175 108.623C261.562 107.748 261.949 106.63 262.053 106.12C262.259 105.075 262.827 104.929 263.059 105.853ZM276.223 128.938C276.584 130.42 277.152 133.361 277.539 135.475C277.9 137.589 278.262 139.387 278.313 139.46C278.365 139.533 278.52 140.869 278.675 142.4C278.959 144.879 280.197 152.801 280.791 155.766C280.894 156.373 281.127 159.362 281.281 162.448C281.436 165.51 281.669 169.179 281.823 170.589C281.978 171.998 282.107 175.813 282.159 179.094C282.211 183.954 282.34 185.655 282.804 188.328C283.372 191.56 283.398 195.181 282.856 195.691C282.598 195.934 282.107 193.237 281.823 190.005C281.694 188.474 281.436 187.307 281.075 186.603C280.585 185.631 280.533 185.072 280.481 180.309C280.456 176.883 280.326 174.55 280.068 173.505C279.501 170.978 278.933 165.534 279.01 163.177C279.036 161.962 278.881 158.803 278.623 156.13C278.391 153.457 278.004 149.35 277.797 147.017C277.126 139.679 275.965 129.643 275.422 126.848C275.087 124.977 275.629 126.435 276.223 128.938Z" fill="black"/>
<path d="M237.169 12.7579C237.814 13.7785 237.711 14.4589 236.704 15.5767C236.291 16.0141 236.162 16.2814 236.368 16.1599C236.575 16.0627 236.472 16.2814 236.11 16.6702C235.749 17.059 235.413 17.4721 235.31 17.5693C235.181 17.7394 234.329 17.5693 231.026 16.7674C230.019 16.5487 228.419 16.8403 226.896 17.5207C225.967 17.9338 225.735 17.9581 225.218 17.6908C224.392 17.2534 224.238 17.0104 224.238 16.1113C224.238 14.9692 224.728 14.1673 225.76 13.5841C226.844 12.9523 226.457 12.6607 225.296 13.2439C224.857 13.4383 224.418 13.6327 224.315 13.6327C224.186 13.6327 223.954 13.7542 223.799 13.9C223.412 14.1916 223.334 14.9206 223.721 14.7019C223.85 14.629 223.85 14.8477 223.696 15.2851C223.515 15.7468 223.515 16.4272 223.67 17.2291C223.799 17.9095 223.85 18.7358 223.773 19.076C223.721 19.4405 223.773 19.6835 223.954 19.6835C224.108 19.6835 224.212 19.5377 224.186 19.3676C224.108 19.0517 224.186 19.0517 225.347 19.319C225.786 19.4405 226.044 19.3919 226.044 19.2218C226.044 19.076 225.889 18.9545 225.735 18.9302C225.554 18.9302 225.786 18.8087 226.277 18.6872C226.767 18.5414 227.18 18.2498 227.257 17.9581C227.361 17.6179 227.619 17.4964 228.264 17.4964C228.729 17.4964 229.425 17.3506 229.813 17.2048C230.38 16.9618 230.535 16.9618 230.639 17.2048C230.69 17.3506 230.845 17.4964 230.974 17.4964C231.129 17.4964 231.155 17.3749 231.077 17.2291C230.974 17.1076 231.335 17.1562 231.852 17.3506C232.394 17.5693 233.091 17.7394 233.426 17.7394C233.762 17.7394 234.045 17.8609 234.045 17.9824C234.045 18.1283 233.736 18.1769 233.349 18.104C232.678 17.9824 232.652 17.9824 233.194 18.2498C233.942 18.6143 234.897 18.3713 235.955 17.4964C236.42 17.0833 236.936 16.7674 237.04 16.7674C237.169 16.7674 237.736 16.2814 238.278 15.6739C238.846 15.0907 239.388 14.6533 239.517 14.7262C239.646 14.7991 239.879 14.7505 240.059 14.629C240.24 14.4832 241.247 14.3617 242.305 14.3131C244.912 14.2402 246.047 14.6776 246.409 15.9655C246.77 17.1805 247.209 17.7394 248.448 18.5657C249.325 19.1246 249.558 19.1732 250.125 18.9302C251.106 18.5171 252.397 19.4891 254.049 21.8705C254.797 22.9397 255.468 23.9117 255.546 23.9846C255.623 24.0575 255.417 23.1827 255.081 22.0649C254.255 19.1975 253.197 17.2048 252.293 16.816C251.88 16.6216 251.493 16.5487 251.416 16.6216C251.338 16.6945 251.545 16.8646 251.906 16.9861C252.629 17.2534 253.016 17.6422 253.377 18.4928C253.79 19.562 253.352 19.7807 252.242 19.0517C251.468 18.5657 251.029 18.4442 250.28 18.5414C248.706 18.7358 247.235 17.6422 246.796 15.9169C246.693 15.5038 246.512 15.115 246.383 15.0421C246.151 14.8963 246.383 14.0944 246.667 14.0944C246.77 14.0944 247.08 13.9243 247.364 13.7299C247.802 13.414 247.777 13.3897 246.77 13.4869C246.151 13.5355 245.402 13.6327 245.092 13.7299C244.525 13.8757 244.525 13.8514 244.963 13.5112C245.402 13.1953 245.325 13.171 244.189 13.1953C243.105 13.2439 242.95 13.1953 243.028 12.8065C243.079 12.4906 242.976 12.3691 242.64 12.442C241.995 12.5392 241.866 13.5355 242.485 13.6813C242.744 13.7542 242.331 13.8028 241.582 13.8271C240.834 13.8271 239.827 14.0215 239.337 14.1916C238.459 14.5561 238.433 14.5318 238.433 13.9729C238.433 13.0738 238.175 12.6364 237.375 12.2719L236.652 11.9074L237.169 12.7579Z" fill="black"/>
<path d="M279.99 12.5391C280.145 12.8793 280.248 13.4868 280.248 13.8756C280.248 14.2644 280.352 14.556 280.455 14.5074C280.584 14.4831 281.229 14.9448 281.9 15.5037L283.139 16.573L282.829 17.7637C282.546 18.8086 282.468 18.9301 282.107 18.6628C281.771 18.3712 281.745 18.4198 282.029 18.9058C282.339 19.4647 282.21 20.4124 281.797 20.4124C281.694 20.4124 281.539 20.1694 281.436 19.8535C281.152 18.76 279.706 17.059 277.874 15.6981C275.964 14.2887 275.551 14.1672 274.26 14.7018C273.925 14.8233 273.796 14.7747 273.796 14.4588C273.796 14.1672 273.667 14.0943 273.357 14.2158C272.17 14.6532 271.292 14.8233 270.647 14.6775C269.976 14.556 269.924 14.6046 270.027 15.2364C270.157 16.2328 270.75 17.4721 272.35 20.0236C273.718 22.2106 274.622 23.0855 275.473 23.0855C275.861 23.0855 275.861 23.0612 275.499 22.6967C274.648 21.8947 275.164 21.6031 276.248 22.2593C276.893 22.6481 277.125 23.6444 276.661 23.936C276.506 24.0089 275.99 23.8388 275.448 23.5715C274.931 23.2799 274.493 23.0855 274.441 23.1341C274.389 23.207 278.364 29.2335 280.997 33.0486C281.694 34.0449 282.752 35.4058 283.371 36.0619L284.507 37.2526L284.714 36.4264C285.178 34.7011 285.204 34.0206 284.791 32.8785C284.197 31.1532 283.707 26.5361 284.094 26.1716C284.456 25.8314 284.456 24.8594 284.068 24.6407C283.888 24.5435 283.862 24.5678 283.965 24.7379C284.146 25.0295 283.268 26.8277 282.804 27.095C282.623 27.2165 282.571 26.366 282.649 24.2033C282.778 21.3358 282.829 21.0442 283.578 19.8049C284.017 19.0759 284.378 18.2011 284.378 17.8609C284.378 17.5207 284.533 17.2534 284.714 17.2534C284.92 17.2534 284.894 17.1805 284.636 17.0104C284.172 16.7431 284.43 16.4515 284.998 16.6702C285.23 16.7431 285.41 17.1076 285.436 17.4721L285.462 18.1039L285.694 17.3992C285.798 16.9861 285.875 16.6702 285.849 16.6459C283.062 15.5523 281.978 14.8719 281.152 13.6326C280.661 12.9279 280.248 12.2475 280.248 12.126C280.248 12.0045 280.145 11.9073 279.99 11.9073C279.835 11.9073 279.835 12.126 279.99 12.5391ZM279.964 19.8292C281.1 21.19 281.41 24.0818 280.429 24.2519C279.913 24.3491 277.745 22.4537 278.029 22.1863C278.132 22.0891 278.338 22.162 278.467 22.3565C278.674 22.6238 278.7 22.3565 278.622 21.4087C278.416 19.1488 278.932 18.5899 279.964 19.8292ZM280.094 25.3211C280.816 25.8071 281.152 26.8763 280.894 27.9455C280.739 28.5774 280.636 28.6503 279.81 28.5774C278.777 28.5045 278.055 27.7997 277.822 26.6576C277.616 25.7342 277.616 24.6893 277.822 24.2033C277.951 23.8631 278.08 23.8874 278.7 24.3734C279.113 24.665 279.732 25.1024 280.094 25.3211Z" fill="black"/>
<path d="M181.548 12.7334C180.412 13.0736 179.586 13.8998 179.586 14.7017C179.586 14.9933 179.328 15.4308 179.018 15.6495C178.425 16.0383 178.451 16.0383 179.457 15.9411C180.025 15.8925 181.29 15.6009 182.296 15.3335C183.277 15.0419 184.619 14.8232 185.29 14.8232C186.4 14.8232 186.581 14.9204 187.717 16.0869C191.537 20.0478 192.285 20.6553 193.317 20.6553C193.885 20.6553 194.582 20.5095 194.892 20.3637C195.227 20.1936 196.441 20.0478 197.808 20.0478C199.589 20.0478 200.286 19.9506 200.648 19.659C200.932 19.4403 202.093 19.1001 203.28 18.8814C204.442 18.687 205.939 18.2739 206.584 17.9823C207.849 17.3991 210.017 15.4065 210.043 14.8232C210.043 14.24 209.088 12.9521 208.442 12.6119C207.875 12.3446 207.875 12.3446 208.262 12.782C208.494 13.025 208.752 13.5596 208.804 13.9727C208.881 14.3615 209.01 14.8718 209.113 15.0662C209.217 15.3335 208.804 15.7224 207.668 16.4514C205.939 17.5449 205.035 17.9094 201.474 18.8328C198.841 19.5375 197.499 19.6104 196.828 19.0272C196.389 18.6627 196.234 18.6627 195.511 18.93C195.047 19.1001 194.169 19.3431 193.524 19.4403C192.492 19.6104 192.233 19.5375 191.278 18.93C190.685 18.5412 190.04 18.0066 189.859 17.7636C189.652 17.4963 188.801 16.5729 187.923 15.6981C186.168 13.9241 185.807 13.8269 183.716 14.4344C181.883 14.969 180.361 15.2606 180.232 15.0662C180.18 14.969 180.335 14.5316 180.567 14.0942C180.903 13.4624 181.316 13.1708 182.296 12.8306C183.742 12.3689 183.122 12.2717 181.548 12.7334Z" fill="black"/>
<path d="M212.391 13.7541C211.797 14.3859 211.333 15.0663 211.333 15.285C211.333 15.5037 211.255 15.9411 211.152 16.257C211.023 16.7187 211.074 16.8159 211.384 16.7187C211.616 16.6215 212.055 16.8645 212.468 17.2776C212.855 17.6664 213.294 17.9823 213.423 17.9823C213.578 17.9823 213.604 18.1038 213.526 18.2253C213.243 18.6627 216.52 19.9021 218.637 20.1694C219.721 20.2909 220.779 20.3395 220.986 20.2666C221.502 20.0722 222.457 18.5169 222.147 18.4197C222.018 18.3711 221.734 17.7879 221.528 17.1318C221.192 16.0626 221.166 16.014 221.244 16.8402C221.321 17.3748 221.27 17.6907 221.115 17.6178C220.986 17.5206 220.882 17.6907 220.882 17.958C220.882 18.201 220.805 18.6141 220.728 18.8086C220.599 19.1002 220.676 19.1731 220.986 19.0516C221.27 18.9544 221.399 19.0516 221.399 19.3918C221.399 19.7077 221.192 19.9021 220.728 19.9993C220.237 20.0722 220.108 20.0236 220.211 19.7563C220.34 19.489 220.237 19.4404 219.773 19.5862C219.463 19.7077 218.818 19.7563 218.379 19.732C216.908 19.6591 212.959 18.2253 214.172 18.2253C214.378 18.2253 214.094 17.8608 213.578 17.3991C213.062 16.9617 212.623 16.4271 212.623 16.2084C212.623 16.014 212.442 15.7953 212.236 15.6981C211.591 15.4794 211.797 14.8719 212.907 13.7298C213.501 13.1223 213.862 12.6363 213.707 12.6363C213.552 12.6363 212.959 13.1466 212.391 13.7541Z" fill="black"/>
<path d="M261.536 13.3898C260.71 13.6085 258.878 15.188 259.136 15.4553C259.239 15.5282 259.626 15.2609 260.039 14.8721C260.736 14.1674 260.788 14.1431 262.466 14.3375C263.859 14.4833 264.479 14.702 265.95 15.6011C267.499 16.5488 267.886 16.9376 268.996 18.7359C270.209 20.6556 271.602 22.4781 273.151 24.1791C273.951 25.054 271.241 20.7285 269.486 18.3471C267.602 15.7955 263.137 13.001 261.536 13.3898Z" fill="black"/>
<path d="M259.446 16.4759C257.871 17.4965 257.562 17.618 257.149 17.3507C256.891 17.1563 256.787 16.9133 256.891 16.7189C257.045 16.4759 257.02 16.4759 256.761 16.6946C256.065 17.3021 256.581 22.0164 257.587 24.3735C258 25.3941 258.078 25.0296 257.665 23.9118C257.226 22.6968 256.865 18.3956 257.252 18.9788C257.407 19.1975 257.768 20.4368 258.052 21.7491C258.723 24.5922 259.162 25.71 258.981 24.0576C258.749 22.1379 258.697 18.9788 258.904 18.8087C259.007 18.7115 259.084 18.6872 259.084 18.7358C259.084 18.7844 259.265 20.0237 259.472 21.5061C259.678 22.9641 259.859 24.6408 259.859 25.224C259.859 25.7829 260.065 26.8764 260.349 27.654C260.607 28.4074 260.891 29.3308 260.994 29.6953C261.072 30.0355 261.382 30.5944 261.665 30.9103C261.949 31.2019 263.575 33.3403 265.253 35.6489C269.486 41.3838 275.913 49.0141 276.377 48.9169C276.532 48.8683 276.61 48.9169 276.558 49.0384C276.532 49.1356 276.997 49.6459 277.616 50.1562C278.21 50.6665 278.7 51.2011 278.7 51.3226C278.7 51.4684 279.087 51.9787 279.578 52.4647C280.042 52.9508 281.849 54.7976 283.604 56.5472C285.334 58.3211 286.856 59.8035 286.985 59.8035C287.114 59.8278 287.373 59.8521 287.553 59.8764C287.708 59.9007 287.915 60.1194 287.992 60.3624C288.069 60.6297 288.25 60.8727 288.405 60.9213C288.766 61.0428 288.87 56.6687 288.56 55.0892C288.405 54.4331 288.405 53.8742 288.534 53.8013C288.895 53.6069 288.818 51.9544 288.379 49.8646C287.889 47.6533 286.96 44.64 286.779 44.7858C286.727 44.8587 286.856 45.4662 287.063 46.1709C287.553 47.7019 288.328 51.9058 288.199 52.2946C288.147 52.4404 287.708 51.2011 287.218 49.5487C286.211 45.9765 284.224 41.6754 282.262 38.7107C276.119 29.5009 273.925 26.2932 273.306 25.7586C272.945 25.4184 271.809 24.009 270.828 22.5996C269.822 21.1901 267.963 19.0274 266.698 17.7881L264.376 15.5282L262.827 15.4067C261.304 15.2851 261.227 15.3094 259.446 16.4759ZM261.407 16.646C261.02 17.0834 261.278 17.4965 262.001 17.4965C262.44 17.4965 262.491 17.4479 262.182 17.2535C261.898 17.0834 261.949 16.9862 262.517 16.7918C263.55 16.4273 264.014 16.4516 264.969 17.0105C265.873 17.5451 266.027 18.0797 265.356 18.347C264.117 18.8087 263.395 18.9059 262.801 18.6872C262.078 18.4442 261.278 18.8087 261.278 19.4162C261.278 19.6106 261.123 19.805 260.943 19.8779C260.659 19.9508 260.607 19.6349 260.659 18.3227C260.736 16.7675 260.943 16.3058 261.511 16.2815C261.64 16.2815 261.588 16.4516 261.407 16.646ZM268.763 26.3175C269.202 26.9007 269.305 30.4972 268.918 31.0804C268.634 31.4935 268.041 31.1533 266.982 29.9869C266.234 29.1364 266.079 28.6747 266.698 29.1607C267.06 29.428 267.06 29.4037 266.828 28.8205C266.698 28.456 266.569 27.8242 266.569 27.411C266.569 26.7549 266.621 26.7063 267.008 26.9979C267.447 27.3138 267.447 27.2895 267.06 26.7306C266.853 26.3904 266.724 25.9287 266.776 25.71C266.853 25.3698 266.982 25.3455 267.628 25.5642C268.041 25.6857 268.557 26.0502 268.763 26.3175ZM275.164 29.1607C275.964 29.9626 277.023 31.4449 277.565 32.4412L278.52 34.2638L277.874 34.9442C277.513 35.3087 277.255 35.7218 277.332 35.8919C277.513 36.3779 277.023 36.4265 275.732 36.0863C273.848 35.5274 273.822 35.6246 275.551 36.8153C276.481 37.4471 277.152 38.1032 277.152 38.3462C277.152 38.5892 277.307 38.9294 277.487 39.0995C277.745 39.3425 277.616 39.3668 276.868 39.2453C276.3 39.1481 275.68 39.1967 275.371 39.3425C275.035 39.5126 274.648 39.5369 274.39 39.4154C274.132 39.2939 273.512 39.1238 273.022 39.0266L272.119 38.8808L273.358 40.0472C274.029 40.6791 274.571 41.3352 274.571 41.5053C274.571 41.6754 274.648 41.7969 274.777 41.7969C274.88 41.8212 275.319 42.0885 275.732 42.4044C276.377 42.9147 276.455 43.0605 276.119 43.2549C275.293 43.7652 273.203 43.2063 272.686 42.3801C272.583 42.1857 272.325 42.0399 272.119 42.0399C271.938 42.0399 270.183 40.0715 268.247 37.6415C266.311 35.2358 264.892 33.3403 265.072 33.4375C265.253 33.5347 265.692 33.802 266.053 34.0208C266.415 34.2395 266.905 34.5068 267.189 34.5797C267.576 34.7255 267.628 34.6769 267.473 34.3367C267.24 33.802 266.879 31.3477 267.008 31.3477C267.086 31.3477 267.602 31.6636 268.195 32.0524C269.796 33.073 270.57 33.4132 270.286 33.0001C270.157 32.83 270.054 32.5627 270.002 32.4412C269.692 31.1047 269.667 30.3271 269.925 29.4523L270.209 28.4074L271.293 29.2336C273.487 30.9103 274.519 31.4449 274.958 31.1047C275.164 30.9346 275.345 30.4486 275.319 30.0355C275.293 29.3308 275.293 29.3065 275.113 29.8897C275.009 30.2299 274.803 30.4972 274.648 30.4972C274.416 30.4972 272.506 28.0915 272.506 27.7999C272.506 27.7513 272.79 27.7027 273.125 27.7027C273.538 27.7027 274.183 28.1644 275.164 29.1607ZM278.623 40.4847C279.939 40.5576 280.249 40.7034 280.275 41.3838C280.301 41.7969 280.326 41.8212 280.43 41.481C280.61 40.8735 280.92 40.9707 281.281 41.7726C281.823 43.0605 281.126 43.3278 279.165 42.5988C278.545 42.3801 277.745 41.9913 277.358 41.7483C276.352 41.0922 276.455 41.5296 277.461 42.3315C277.926 42.696 278.184 43.0119 278.029 43.0119C277.874 43.0119 277.281 42.6231 276.687 42.1371C275.19 40.9221 275.216 39.8771 276.765 40.2417C277.177 40.3389 278.029 40.4361 278.623 40.4847ZM286.624 49.816C287.605 52.5863 287.76 54.2144 287.192 55.7696C286.65 57.2276 286.082 57.0575 286.082 55.4051C286.108 54.2873 286.082 54.2387 286.005 55.1135C285.901 56.0126 285.85 56.1341 285.514 55.8911C285.256 55.6724 285.153 54.992 285.153 53.2424C285.153 51.5413 285.05 50.7394 284.766 50.3992C284.559 50.1562 284.404 49.5487 284.404 49.087V48.2365L284.998 48.8926C285.334 49.2571 285.695 50.0104 285.798 50.5936C286.056 52.1002 286.366 52.489 286.314 51.2497C286.289 50.6665 285.901 49.1356 285.463 47.872C284.998 46.6084 284.637 45.4419 284.663 45.3204C284.688 44.9073 285.669 47.143 286.624 49.816Z" fill="black"/>
<path d="M286.261 17.2534C286.777 19.9994 286.751 23.0126 286.209 25.4426C285.641 28.0428 285.486 30.6186 285.925 30.6186C286.08 30.6186 286.209 29.8896 286.209 28.9662C286.235 28.0671 286.338 26.9979 286.441 26.6091C286.545 26.196 286.596 27.3138 286.57 29.1606C286.493 32.2711 286.493 32.3197 286.699 30.1326C286.803 28.869 286.932 27.2166 286.958 26.4876C287.061 24.4706 287.19 25.4669 287.474 29.7681C287.68 33.3889 287.68 33.2917 287.551 28.1886C287.37 21.263 287.37 20.8985 287.474 18.7357C287.525 17.4964 287.474 16.8889 287.267 16.816C287.061 16.7674 286.958 17.0347 286.932 17.545L286.906 18.3469L286.699 17.545C286.415 16.4272 286.08 16.2085 286.261 17.2534Z" fill="black"/>
<path d="M211.694 19.2943C211.565 19.6102 210.275 19.7803 205.422 20.072C203.383 20.1935 201.938 20.5337 201.525 21.0197C201.344 21.2141 200.957 21.3842 200.647 21.3842C200.363 21.4085 199.821 21.5543 199.46 21.7487C198.66 22.1861 197.886 22.2104 196.982 21.8216L196.311 21.53L197.292 21.0926C197.86 20.8496 198.066 20.7038 197.782 20.7767C196.518 21.1412 195.847 21.1898 195.847 20.9225C195.847 20.4608 195.15 20.6309 194.995 21.1412C194.892 21.53 194.659 21.6272 193.73 21.6272C192.414 21.6272 192.182 21.5057 191.33 20.4122C190.968 19.9504 190.685 19.7074 190.685 19.8289C190.685 19.9747 190.865 20.2907 191.072 20.558C191.562 21.1898 191.562 21.4085 191.02 21.2141C190.659 21.0926 190.685 21.1898 191.123 21.6515C191.614 22.1375 192.078 22.2347 194.35 22.4291C195.821 22.5263 197.369 22.6235 197.782 22.6478C198.737 22.6721 201.06 21.8702 202.041 21.1655C203.177 20.3879 203.564 20.558 202.557 21.3842C202.067 21.773 201.783 22.0889 201.964 22.1132C202.119 22.1132 202.299 22.0403 202.351 21.9188C202.402 21.8216 202.79 21.4571 203.228 21.1169C203.977 20.5337 204.312 20.4851 207.41 20.315C209.707 20.2178 211.178 20.2421 211.978 20.4365C212.959 20.6795 213.243 20.6552 213.398 20.4122C213.527 20.2178 213.888 20.1449 214.456 20.2421C215.153 20.3636 215.024 20.2421 213.785 19.6831C211.952 18.8569 211.875 18.8569 211.694 19.2943Z" fill="black"/>
<path d="M227.389 20.4366C226.615 20.7525 226.279 21.0198 226.331 21.3114C226.382 21.5544 226.15 22.1376 225.815 22.6479C225.298 23.4498 225.144 23.5227 224.085 23.4984C223.001 23.4984 222.95 23.1096 224.034 23.0853C224.55 23.0853 225.531 21.9675 225.531 21.4086C225.505 21.1656 225.35 21.2871 225.118 21.7002C224.653 22.5264 223.672 22.7937 222.15 22.5021C221.582 22.4049 221.375 22.2591 221.504 21.9918C221.582 21.7731 221.504 21.6273 221.298 21.6273C220.317 21.6273 220.782 22.7208 221.969 23.1825L222.769 23.4984L221.582 23.6685C220.369 23.8386 219.181 23.5227 219.465 23.061C219.568 22.9395 219.362 22.7451 219.026 22.6236C218.691 22.5021 217.968 22.0647 217.4 21.6273C215.645 20.3151 215.387 20.3151 216.497 21.6759C217.942 23.4012 219.336 24.0574 221.866 24.1789C222.95 24.2275 224.266 24.1546 224.756 24.0088C225.247 23.8629 225.84 23.6928 226.047 23.6199C226.331 23.547 226.357 23.4741 226.099 23.4012C225.789 23.2797 227.028 21.4329 227.854 20.8254C228.189 20.5581 228.189 20.5824 227.879 20.9712C227.286 21.6759 227.776 21.7245 228.654 21.0441C229.557 20.3151 229.996 20.3637 231.57 21.3114C232.345 21.7731 232.912 21.9189 234.1 21.9189C235.003 21.9432 235.752 21.8217 235.932 21.6273C236.19 21.3843 236.036 21.36 235.261 21.4815C234.616 21.603 234.126 21.5544 233.893 21.36C233.635 21.1656 233.532 21.1656 233.532 21.36C233.532 21.7974 232.629 21.6759 231.906 21.1413C231.08 20.5338 229.583 19.9263 228.963 19.9506C228.705 19.9506 228.008 20.1693 227.389 20.4366Z" fill="black"/>
</svg>
